  0
SECTION
  2
HEADER
  9
$ACADVER
  1
AC1014
  9
$ACADMAINTVER
 70
     9
  9
$DWGCODEPAGE
  3
ANSI_1252
  9
$INSBASE
 10
0.0
 20
0.0
 30
0.0
  9
$EXTMIN
 10
1.000000000000000E+20
 20
1.000000000000000E+20
 30
1.000000000000000E+20
  9
$EXTMAX
 10
-1.000000000000000E+20
 20
-1.000000000000000E+20
 30
-1.000000000000000E+20
  9
$LIMMIN
 10
0.0
 20
0.0
  9
$LIMMAX
 10
420.0
 20
297.0
  9
$ORTHOMODE
 70
     1
  9
$REGENMODE
 70
     1
  9
$FILLMODE
 70
     1
  9
$QTEXTMODE
 70
     0
  9
$MIRRTEXT
 70
     0
  9
$DRAGMODE
 70
     2
  9
$LTSCALE
 40
1.0
  9
$OSMODE
 70
   511
  9
$ATTMODE
 70
     1
  9
$TEXTSIZE
 40
2.5
  9
$TRACEWID
 40
1.0
  9
$TEXTSTYLE
  7
STANDARD
  9
$CLAYER
  8
0
  9
$CELTYPE
  6
BYLAYER
  9
$CECOLOR
 62
   256
  9
$CELTSCALE
 40
1.0
  9
$DELOBJ
 70
     1
  9
$DISPSILH
 70
     0
  9
$DIMSCALE
 40
1.0
  9
$DIMASZ
 40
2.5
  9
$DIMEXO
 40
0.625
  9
$DIMDLI
 40
3.75
  9
$DIMRND
 40
0.0
  9
$DIMDLE
 40
0.0
  9
$DIMEXE
 40
1.25
  9
$DIMTP
 40
0.0
  9
$DIMTM
 40
0.0
  9
$DIMTXT
 40
2.5
  9
$DIMCEN
 40
2.5
  9
$DIMTSZ
 40
0.0
  9
$DIMTOL
 70
     0
  9
$DIMLIM
 70
     0
  9
$DIMTIH
 70
     1
  9
$DIMTOH
 70
     1
  9
$DIMSE1
 70
     0
  9
$DIMSE2
 70
     0
  9
$DIMTAD
 70
     1
  9
$DIMZIN
 70
     8
  9
$DIMBLK
  1

  9
$DIMASO
 70
     1
  9
$DIMSHO
 70
     1
  9
$DIMPOST
  1

  9
$DIMAPOST
  1

  9
$DIMALT
 70
     0
  9
$DIMALTD
 70
     3
  9
$DIMALTF
 40
0.03937007874016
  9
$DIMLFAC
 40
1.0
  9
$DIMTOFL
 70
     1
  9
$DIMTVP
 40
0.0
  9
$DIMTIX
 70
     0
  9
$DIMSOXD
 70
     0
  9
$DIMSAH
 70
     0
  9
$DIMBLK1
  1

  9
$DIMBLK2
  1

  9
$DIMSTYLE
  2
ISO-25
  9
$DIMCLRD
 70
     0
  9
$DIMCLRE
 70
     0
  9
$DIMCLRT
 70
     0
  9
$DIMTFAC
 40
1.0
  9
$DIMGAP
 40
0.615
  9
$DIMJUST
 70
     0
  9
$DIMSD1
 70
     0
  9
$DIMSD2
 70
     0
  9
$DIMTOLJ
 70
     0
  9
$DIMTZIN
 70
     8
  9
$DIMALTZ
 70
     0
  9
$DIMALTTZ
 70
     0
  9
$DIMFIT
 70
     5
  9
$DIMUPT
 70
     0
  9
$DIMUNIT
 70
     2
  9
$DIMDEC
 70
     2
  9
$DIMTDEC
 70
     2
  9
$DIMALTU
 70
     2
  9
$DIMALTTD
 70
     3
  9
$DIMTXSTY
  7
STANDARD
  9
$DIMAUNIT
 70
     0
  9
$LUNITS
 70
     2
  9
$LUPREC
 70
     3
  9
$SKETCHINC
 40
1.0
  9
$FILLETRAD
 40
10.0
  9
$AUNITS
 70
     0
  9
$AUPREC
 70
     0
  9
$MENU
  1
.
  9
$ELEVATION
 40
0.0
  9
$PELEVATION
 40
0.0
  9
$THICKNESS
 40
0.0
  9
$LIMCHECK
 70
     0
  9
$CHAMFERA
 40
10.0
  9
$CHAMFERB
 40
10.0
  9
$CHAMFERC
 40
20.0
  9
$CHAMFERD
 40
0.0
  9
$SKPOLY
 70
     0
  9
$TDCREATE
 40
2455022.679026158
  9
$TDUPDATE
 40
2457404.965420289
  9
$TDINDWG
 40
0.5380289236
  9
$TDUSRTIMER
 40
2457404.767741829
  9
$USRTIMER
 70
     1
  9
$ANGBASE
 50
0.0
  9
$ANGDIR
 70
     0
  9
$PDMODE
 70
     0
  9
$PDSIZE
 40
0.0
  9
$PLINEWID
 40
0.0
  9
$COORDS
 70
     2
  9
$SPLFRAME
 70
     0
  9
$SPLINETYPE
 70
     6
  9
$SPLINESEGS
 70
     8
  9
$ATTDIA
 70
     0
  9
$ATTREQ
 70
     1
  9
$HANDLING
 70
     1
  9
$HANDSEED
  5
3F4
  9
$SURFTAB1
 70
     6
  9
$SURFTAB2
 70
     6
  9
$SURFTYPE
 70
     6
  9
$SURFU
 70
     6
  9
$SURFV
 70
     6
  9
$UCSNAME
  2

  9
$UCSORG
 10
0.0
 20
0.0
 30
0.0
  9
$UCSXDIR
 10
1.0
 20
0.0
 30
0.0
  9
$UCSYDIR
 10
0.0
 20
1.0
 30
0.0
  9
$PUCSNAME
  2

  9
$PUCSORG
 10
0.0
 20
0.0
 30
0.0
  9
$PUCSXDIR
 10
1.0
 20
0.0
 30
0.0
  9
$PUCSYDIR
 10
0.0
 20
1.0
 30
0.0
  9
$USERI1
 70
     0
  9
$USERI2
 70
     0
  9
$USERI3
 70
     0
  9
$USERI4
 70
     0
  9
$USERI5
 70
     0
  9
$USERR1
 40
0.0
  9
$USERR2
 40
0.0
  9
$USERR3
 40
0.0
  9
$USERR4
 40
0.0
  9
$USERR5
 40
0.0
  9
$WORLDVIEW
 70
     1
  9
$SHADEDGE
 70
     3
  9
$SHADEDIF
 70
    70
  9
$TILEMODE
 70
     1
  9
$MAXACTVP
 70
    64
  9
$PINSBASE
 10
0.0
 20
0.0
 30
0.0
  9
$PLIMCHECK
 70
     0
  9
$PEXTMIN
 10
1.000000000000000E+20
 20
1.000000000000000E+20
 30
1.000000000000000E+20
  9
$PEXTMAX
 10
-1.000000000000000E+20
 20
-1.000000000000000E+20
 30
-1.000000000000000E+20
  9
$PLIMMIN
 10
0.0
 20
0.0
  9
$PLIMMAX
 10
0.0
 20
0.0
  9
$UNITMODE
 70
     0
  9
$VISRETAIN
 70
     1
  9
$PLINEGEN
 70
     0
  9
$PSLTSCALE
 70
     1
  9
$TREEDEPTH
 70
  3020
  9
$PICKSTYLE
 70
     1
  9
$CMLSTYLE
  2
STANDARD
  9
$CMLJUST
 70
     0
  9
$CMLSCALE
 40
20.0
  9
$PROXYGRAPHICS
 70
     1
  9
$MEASUREMENT
 70
     1
  0
ENDSEC
  0
SECTION
  2
CLASSES
  0
CLASS
  1
ACDBDICTIONARYWDFLT
  2
AcDbDictionaryWithDefault
  3
ObjectDBX Classes
 90
        0
280
     0
281
     0
  0
CLASS
  1
VISUALSTYLE
  2
AcDbVisualStyle
  3
ObjectDBX Classes
 90
     4095
280
     0
281
     0
  0
CLASS
  1
TABLESTYLE
  2
AcDbTableStyle
  3
ObjectDBX Classes
 90
     4095
280
     0
281
     0
  0
CLASS
  1
DICTIONARYVAR
  2
AcDbDictionaryVar
  3
ObjectDBX Classes
 90
        0
280
     0
281
     0
  0
CLASS
  1
SCALE
  2
AcDbScale
  3
ObjectDBX Classes
 90
     1153
280
     0
281
     0
  0
CLASS
  1
CELLSTYLEMAP
  2
AcDbCellStyleMap
  3
ObjectDBX Classes
 90
     1152
280
     0
281
     0
  0
CLASS
  1
RASTERVARIABLES
  2
AcDbRasterVariables
  3
ISM
 90
        0
280
     0
281
     0
  0
CLASS
  1
MATERIAL
  2
AcDbMaterial
  3
ObjectDBX Classes
 90
     1153
280
     0
281
     0
  0
CLASS
  1
SUN
  2
AcDbSun
  3
SCENEOE
 90
     1153
280
     0
281
     0
  0
CLASS
  1
MLEADERSTYLE
  2
AcDbMLeaderStyle
  3
ACDB_MLEADERSTYLE_CLASS
 90
     4095
280
     0
281
     0
  0
CLASS
  1
XRECORD
  2
AcDbXrecord
  3
ObjectDBX Classes
 90
        0
280
     0
281
     0
  0
CLASS
  1
LWPOLYLINE
  2
AcDbPolyline
  3
ObjectDBX Classes
 90
        0
280
     0
281
     1
  0
CLASS
  1
HATCH
  2
AcDbHatch
  3
ObjectDBX Classes
 90
        0
280
     0
281
     1
  0
CLASS
  1
DIMASSOC
  2
AcDbDimAssoc
  3
"AcDbDimAssoc|Product Desc:     AcDim ARX App For Dimension|Company:          Autodesk, Inc.|WEB Address:      www.autodesk.com"
 90
        0
280
     0
281
     0
  0
ENDSEC
  0
SECTION
  2
TABLES
  0
TABLE
  2
VPORT
  5
8
330
0
100
AcDbSymbolTable
 70
     1
  0
VPORT
  5
29
330
8
100
AcDbSymbolTableRecord
100
AcDbViewportTableRecord
  2
*ACTIVE
 70
     0
 10
0.0
 20
0.0
 11
1.0
 21
1.0
 12
264.0638923252391
 22
179.67292703255
 13
0.0
 23
0.0
 14
10.0
 24
10.0
 15
10.0
 25
10.0
 16
0.0
 26
0.0
 36
1.0
 17
-134.1869158878508
 27
0.0
 37
0.0
 40
726.8904389965497
 41
1.84608843537415
 42
50.0
 43
0.0
 44
0.0
 50
0.0
 51
0.0
 71
    16
 72
  1000
 73
     1
 74
     3
 75
     0
 76
     0
 77
     0
 78
     0
  0
ENDTAB
  0
TABLE
  2
LTYPE
  5
5
330
0
100
AcDbSymbolTable
 70
     5
  0
LTYPE
  5
14
330
5
100
AcDbSymbolTableRecord
100
AcDbLinetypeTableRecord
  2
BYBLOCK
 70
     0
  3

 72
    65
 73
     0
 40
0.0
  0
LTYPE
  5
15
330
5
100
AcDbSymbolTableRecord
100
AcDbLinetypeTableRecord
  2
BYLAYER
 70
     0
  3

 72
    65
 73
     0
 40
0.0
  0
LTYPE
  5
16
330
5
100
AcDbSymbolTableRecord
100
AcDbLinetypeTableRecord
  2
CONTINUOUS
 70
     0
  3
Solid line
 72
    65
 73
     0
 40
0.0
  0
LTYPE
  5
186
330
5
100
AcDbSymbolTableRecord
100
AcDbLinetypeTableRecord
  2
DASHDOT
 70
     0
  3
DashDot __  . __  . __  . __  . __  . __  . __ 
 72
    65
 73
     4
 40
25.4
 49
12.7
 74
     0
 49
-6.35
 74
     0
 49
0.0
 74
     0
 49
-6.35
 74
     0
  0
LTYPE
  5
187
330
5
100
AcDbSymbolTableRecord
100
AcDbLinetypeTableRecord
  2
DASH2DOT
 70
     0
  3
DashDotDot ____ . . ____ . . ____ . . ____ . . 
 72
    65
 73
     6
 40
31.75
 49
12.7
 74
     0
 49
-6.35
 74
     0
 49
0.0
 74
     0
 49
-6.35
 74
     0
 49
0.0
 74
     0
 49
-6.35
 74
     0
  0
LTYPE
  5
188
330
5
100
AcDbSymbolTableRecord
100
AcDbLinetypeTableRecord
  2
DOTTED
 70
     0
  3
Dotted . . . . . . . . . . . . . . . . . . . . 
 72
    65
 73
     2
 40
6.35
 49
0.0
 74
     0
 49
-6.35
 74
     0
  0
LTYPE
  5
189
330
5
100
AcDbSymbolTableRecord
100
AcDbLinetypeTableRecord
  2
DASH2
 70
     0
  3
DashLong ____   ____   ____   ____   ____   ___
 72
    65
 73
     2
 40
19.05
 49
12.7
 74
     0
 49
-6.35
 74
     0
  0
ENDTAB
  0
TABLE
  2
LAYER
  5
2
102
{ACAD_XDICTIONARY
360
181
102
}
330
0
100
AcDbSymbolTable
 70
     4
  0
LAYER
  5
10
330
2
100
AcDbSymbolTableRecord
100
AcDbLayerTableRecord
  2
0
 70
     0
 62
     7
  6
CONTINUOUS
  0
LAYER
  5
C4
330
2
100
AcDbSymbolTableRecord
100
AcDbLayerTableRecord
  2
DEFPOINTS
 70
     0
 62
     7
  6
CONTINUOUS
  0
LAYER
  5
184
330
2
100
AcDbSymbolTableRecord
100
AcDbLayerTableRecord
  2
AXES
 70
     0
 62
     6
  6
DASHDOT
1001
ACAECLAYERSTANDARD
1000

1000

  0
LAYER
  5
18D
330
2
100
AcDbSymbolTableRecord
100
AcDbLayerTableRecord
  2
COTES
 70
     0
 62
     1
  6
CONTINUOUS
1001
ACAECLAYERSTANDARD
1000

1000

  0
ENDTAB
  0
TABLE
  2
STYLE
  5
3
330
0
100
AcDbSymbolTable
 70
     1
  0
STYLE
  5
11
330
3
100
AcDbSymbolTableRecord
100
AcDbTextStyleTableRecord
  2
STANDARD
 70
     0
 40
5.0
 41
1.0
 50
0.0
 71
     0
 42
2.5
  3
arial.ttf
  4

1001
ACAD
1000
Arial
1071
        0
  0
ENDTAB
  0
TABLE
  2
VIEW
  5
6
330
0
100
AcDbSymbolTable
 70
     0
  0
ENDTAB
  0
TABLE
  2
UCS
  5
7
330
0
100
AcDbSymbolTable
 70
     0
  0
ENDTAB
  0
TABLE
  2
APPID
  5
9
330
0
100
AcDbSymbolTable
 70
     3
  0
APPID
  5
12
330
9
100
AcDbSymbolTableRecord
100
AcDbRegAppTableRecord
  2
ACAD
 70
     0
  0
APPID
  5
185
330
9
100
AcDbSymbolTableRecord
100
AcDbRegAppTableRecord
  2
ACAECLAYERSTANDARD
 70
     0
  0
APPID
  5
3A8
330
9
100
AcDbSymbolTableRecord
100
AcDbRegAppTableRecord
  2
ACAD_DSTYLE_DIMRADIAL_EXTE
 70
     0
  0
ENDTAB
  0
TABLE
  2
DIMSTYLE
  5
A
330
0
100
AcDbSymbolTable
 70
     1
  0
DIMSTYLE
105
27
102
{ACAD_REACTORS
330
C5
330
D8
330
E7
330
F7
330
190
330
19F
330
1AE
330
1F0
330
1FF
330
266
330
275
330
2D0
330
2E9
330
2FB
330
30B
330
31B
330
341
330
350
330
35F
330
36F
330
386
330
395
330
3A9
330
3B6
102
}
330
A
100
AcDbSymbolTableRecord
100
AcDbDimStyleTableRecord
  2
ISO-25
 70
     0
  3

  4

  5

  6

  7

 40
1.0
 41
2.5
 42
0.625
 43
3.75
 44
1.25
 45
0.0
 46
0.0
 47
0.0
 48
0.0
140
2.5
141
2.5
142
0.0
143
0.03937007874016
144
1.0
145
0.0
146
1.0
147
0.625
 71
     0
 72
     0
 73
     0
 74
     0
 75
     0
 76
     0
 77
     1
 78
     8
170
     0
171
     3
172
     1
173
     0
174
     0
175
     0
176
     0
177
     0
178
     0
270
     2
271
     2
272
     2
273
     2
274
     3
340
11
275
     0
280
     0
281
     0
282
     0
283
     0
284
     8
285
     0
286
     0
287
     3
288
     0
  0
ENDTAB
  0
TABLE
  2
BLOCK_RECORD
  5
1
330
0
100
AcDbSymbolTable
 70
    29
  0
BLOCK_RECORD
  5
1F
330
1
100
AcDbSymbolTableRecord
100
AcDbBlockTableRecord
  2
*MODEL_SPACE
  0
BLOCK_RECORD
  5
1B
330
1
100
AcDbSymbolTableRecord
100
AcDbBlockTableRecord
  2
*PAPER_SPACE
  0
BLOCK_RECORD
  5
23
330
1
100
AcDbSymbolTableRecord
100
AcDbBlockTableRecord
  2
*PAPER_SPACE0
  0
BLOCK_RECORD
  5
C8
330
1
100
AcDbSymbolTableRecord
100
AcDbBlockTableRecord
  2
*D1
  0
BLOCK_RECORD
  5
DB
330
1
100
AcDbSymbolTableRecord
100
AcDbBlockTableRecord
  2
*D2
  0
BLOCK_RECORD
  5
EA
330
1
100
AcDbSymbolTableRecord
100
AcDbBlockTableRecord
  2
*D3
  0
BLOCK_RECORD
  5
FA
330
1
100
AcDbSymbolTableRecord
100
AcDbBlockTableRecord
  2
*D4
  0
BLOCK_RECORD
  5
111
330
1
100
AcDbSymbolTableRecord
100
AcDbBlockTableRecord
  2
*D5
  0
BLOCK_RECORD
  5
120
330
1
100
AcDbSymbolTableRecord
100
AcDbBlockTableRecord
  2
*D6
  0
BLOCK_RECORD
  5
193
330
1
100
AcDbSymbolTableRecord
100
AcDbBlockTableRecord
  2
*D7
  0
BLOCK_RECORD
  5
1A2
330
1
100
AcDbSymbolTableRecord
100
AcDbBlockTableRecord
  2
*D8
  0
BLOCK_RECORD
  5
1B1
330
1
100
AcDbSymbolTableRecord
100
AcDbBlockTableRecord
  2
*D9
  0
BLOCK_RECORD
  5
1D7
330
1
100
AcDbSymbolTableRecord
100
AcDbBlockTableRecord
  2
*D10
  0
BLOCK_RECORD
  5
1F3
330
1
100
AcDbSymbolTableRecord
100
AcDbBlockTableRecord
  2
*D11
  0
BLOCK_RECORD
  5
202
330
1
100
AcDbSymbolTableRecord
100
AcDbBlockTableRecord
  2
*D12
  0
BLOCK_RECORD
  5
269
330
1
100
AcDbSymbolTableRecord
100
AcDbBlockTableRecord
  2
*D13
  0
BLOCK_RECORD
  5
278
330
1
100
AcDbSymbolTableRecord
100
AcDbBlockTableRecord
  2
*D14
  0
BLOCK_RECORD
  5
2D1
330
1
100
AcDbSymbolTableRecord
100
AcDbBlockTableRecord
  2
*D15
  0
BLOCK_RECORD
  5
2EC
330
1
100
AcDbSymbolTableRecord
100
AcDbBlockTableRecord
  2
*D16
  0
BLOCK_RECORD
  5
2FE
330
1
100
AcDbSymbolTableRecord
100
AcDbBlockTableRecord
  2
*D17
  0
BLOCK_RECORD
  5
30E
330
1
100
AcDbSymbolTableRecord
100
AcDbBlockTableRecord
  2
*D18
  0
BLOCK_RECORD
  5
31E
330
1
100
AcDbSymbolTableRecord
100
AcDbBlockTableRecord
  2
*D19
  0
BLOCK_RECORD
  5
344
330
1
100
AcDbSymbolTableRecord
100
AcDbBlockTableRecord
  2
*D20
  0
BLOCK_RECORD
  5
353
330
1
100
AcDbSymbolTableRecord
100
AcDbBlockTableRecord
  2
*D21
  0
BLOCK_RECORD
  5
362
330
1
100
AcDbSymbolTableRecord
100
AcDbBlockTableRecord
  2
*D22
  0
BLOCK_RECORD
  5
372
330
1
100
AcDbSymbolTableRecord
100
AcDbBlockTableRecord
  2
*D23
  0
BLOCK_RECORD
  5
389
330
1
100
AcDbSymbolTableRecord
100
AcDbBlockTableRecord
  2
*D24
  0
BLOCK_RECORD
  5
398
330
1
100
AcDbSymbolTableRecord
100
AcDbBlockTableRecord
  2
*D25
  0
BLOCK_RECORD
  5
3AC
330
1
100
AcDbSymbolTableRecord
100
AcDbBlockTableRecord
  2
*D26
  0
BLOCK_RECORD
  5
3B9
330
1
100
AcDbSymbolTableRecord
100
AcDbBlockTableRecord
  2
*D27
  0
ENDTAB
  0
ENDSEC
  0
SECTION
  2
BLOCKS
  0
BLOCK
  5
20
330
1F
100
AcDbEntity
  8
0
100
AcDbBlockBegin
  2
*MODEL_SPACE
 70
     0
 10
0.0
 20
0.0
 30
0.0
  3
*MODEL_SPACE
  1

  0
ENDBLK
  5
21
330
1F
100
AcDbEntity
  8
0
100
AcDbBlockEnd
  0
BLOCK
  5
1C
330
1B
100
AcDbEntity
 67
     1
  8
0
100
AcDbBlockBegin
  2
*PAPER_SPACE
 70
     0
 10
0.0
 20
0.0
 30
0.0
  3
*PAPER_SPACE
  1

  0
ENDBLK
  5
1D
330
1B
100
AcDbEntity
 67
     1
  8
0
100
AcDbBlockEnd
  0
BLOCK
  5
24
330
23
100
AcDbEntity
  8
0
100
AcDbBlockBegin
  2
*PAPER_SPACE0
 70
     0
 10
0.0
 20
0.0
 30
0.0
  3
*PAPER_SPACE0
  1
*PAPER_SPACE0
  0
ENDBLK
  5
25
330
23
100
AcDbEntity
  8
0
100
AcDbBlockEnd
  0
BLOCK
  5
C9
330
C8
100
AcDbEntity
  8
0
100
AcDbBlockBegin
  2
*D1
 70
     1
 10
0.0
 20
0.0
 30
0.0
  3
*D1
  1
*D1
  0
LINE
  5
CB
330
C8
100
AcDbEntity
  8
COTES
 62
     0
100
AcDbLine
 10
0.0
 20
318.875
 30
0.0
 11
0.0
 21
113.8713833321535
 31
0.0
  0
LINE
  5
CC
330
C8
100
AcDbEntity
  8
COTES
 62
     0
100
AcDbLine
 10
20.0
 20
129.375
 30
0.0
 11
20.0
 21
113.8713833321535
 31
0.0
  0
LINE
  5
CD
330
C8
100
AcDbEntity
  8
COTES
 62
     0
100
AcDbLine
 10
2.5
 20
115.1213833321535
 30
0.0
 11
17.5
 21
115.1213833321535
 31
0.0
  0
SOLID
  5
CE
330
C8
100
AcDbEntity
  8
COTES
 62
     0
100
AcDbTrace
 10
2.5
 20
115.5380499988202
 30
0.0
 11
2.5
 21
114.7047166654868
 31
0.0
 12
0.0
 22
115.1213833321535
 32
0.0
 13
0.0
 23
115.1213833321535
 33
0.0
  0
SOLID
  5
CF
330
C8
100
AcDbEntity
  8
COTES
 62
     0
100
AcDbTrace
 10
17.5
 20
114.7047166654868
 30
0.0
 11
17.5
 21
115.5380499988202
 31
0.0
 12
20.0
 22
115.1213833321535
 32
0.0
 13
20.0
 23
115.1213833321535
 33
0.0
  0
MTEXT
  5
D0
330
C8
100
AcDbEntity
  8
COTES
 62
     0
100
AcDbMText
 10
10.0
 20
118.2988833321535
 30
0.0
 40
5.0
 41
0.0
 71
     5
 72
     1
  1
20
  0
POINT
  5
D1
330
C8
100
AcDbEntity
  8
DEFPOINTS
 62
     0
100
AcDbPoint
 10
0.0
 20
319.5
 30
0.0
  0
POINT
  5
D2
330
C8
100
AcDbEntity
  8
DEFPOINTS
 62
     0
100
AcDbPoint
 10
20.0
 20
130.0
 30
0.0
  0
POINT
  5
D3
330
C8
100
AcDbEntity
  8
DEFPOINTS
 62
     0
100
AcDbPoint
 10
20.0
 20
115.1213833321535
 30
0.0
  0
ENDBLK
  5
CA
330
C8
100
AcDbEntity
  8
0
100
AcDbBlockEnd
  0
BLOCK
  5
DC
330
DB
100
AcDbEntity
  8
0
100
AcDbBlockBegin
  2
*D2
 70
     1
 10
0.0
 20
0.0
 30
0.0
  3
*D2
  1
*D2
  0
LINE
  5
DE
330
DB
100
AcDbEntity
  8
COTES
 62
     0
100
AcDbLine
 10
20.0
 20
129.375
 30
0.0
 11
20.0
 21
113.8713833321535
 31
0.0
  0
LINE
  5
DF
330
DB
100
AcDbEntity
  8
COTES
 62
     0
100
AcDbLine
 10
111.9999999999999
 20
129.375
 30
0.0
 11
111.9999999999999
 21
113.8713833321535
 31
0.0
  0
LINE
  5
E0
330
DB
100
AcDbEntity
  8
COTES
 62
     0
100
AcDbLine
 10
22.5
 20
115.1213833321535
 30
0.0
 11
109.4999999999999
 21
115.1213833321535
 31
0.0
  0
SOLID
  5
E1
330
DB
100
AcDbEntity
  8
COTES
 62
     0
100
AcDbTrace
 10
22.5
 20
115.5380499988202
 30
0.0
 11
22.5
 21
114.7047166654868
 31
0.0
 12
20.0
 22
115.1213833321535
 32
0.0
 13
20.0
 23
115.1213833321535
 33
0.0
  0
SOLID
  5
E2
330
DB
100
AcDbEntity
  8
COTES
 62
     0
100
AcDbTrace
 10
109.4999999999999
 20
114.7047166654868
 30
0.0
 11
109.4999999999999
 21
115.5380499988202
 31
0.0
 12
111.9999999999999
 22
115.1213833321535
 32
0.0
 13
111.9999999999999
 23
115.1213833321535
 33
0.0
  0
MTEXT
  5
E3
330
DB
100
AcDbEntity
  8
COTES
 62
     0
100
AcDbMText
 10
65.99999999999994
 20
118.2988833321535
 30
0.0
 40
5.0
 41
0.0
 71
     5
 72
     1
  1
92
  0
POINT
  5
E4
330
DB
100
AcDbEntity
  8
DEFPOINTS
 62
     0
100
AcDbPoint
 10
20.0
 20
130.0
 30
0.0
  0
POINT
  5
E5
330
DB
100
AcDbEntity
  8
DEFPOINTS
 62
     0
100
AcDbPoint
 10
111.9999999999999
 20
130.0
 30
0.0
  0
POINT
  5
E6
330
DB
100
AcDbEntity
  8
DEFPOINTS
 62
     0
100
AcDbPoint
 10
111.9999999999999
 20
115.1213833321535
 30
0.0
  0
ENDBLK
  5
DD
330
DB
100
AcDbEntity
  8
0
100
AcDbBlockEnd
  0
BLOCK
  5
EB
330
EA
100
AcDbEntity
  8
0
100
AcDbBlockBegin
  2
*D3
 70
     1
 10
0.0
 20
0.0
 30
0.0
  3
*D3
  1
*D3
  0
LINE
  5
ED
330
EA
100
AcDbEntity
  8
COTES
 62
     0
100
AcDbLine
 10
19.375
 20
245.0
 30
0.0
 11
-15.82880612244898
 21
245.0
 31
0.0
  0
LINE
  5
EE
330
EA
100
AcDbEntity
  8
COTES
 62
     0
100
AcDbLine
 10
-0.625
 20
320.0
 30
0.0
 11
-15.82880612244897
 21
320.0
 31
0.0
  0
LINE
  5
EF
330
EA
100
AcDbEntity
  8
COTES
 62
     0
100
AcDbLine
 10
-14.57880612244898
 20
247.5
 30
0.0
 11
-14.57880612244897
 21
279.3425
 31
0.0
  0
LINE
  5
F0
330
EA
100
AcDbEntity
  8
COTES
 62
     0
100
AcDbLine
 10
-14.57880612244897
 20
317.5
 30
0.0
 11
-14.57880612244897
 21
285.6575
 31
0.0
  0
SOLID
  5
F1
330
EA
100
AcDbEntity
  8
COTES
 62
     0
100
AcDbTrace
 10
-14.99547278911564
 20
247.5
 30
0.0
 11
-14.16213945578231
 21
247.5
 31
0.0
 12
-14.57880612244898
 22
245.0
 32
0.0
 13
-14.57880612244898
 23
245.0
 33
0.0
  0
SOLID
  5
F2
330
EA
100
AcDbEntity
  8
COTES
 62
     0
100
AcDbTrace
 10
-14.1621394557823
 20
317.5
 30
0.0
 11
-14.99547278911564
 21
317.5
 31
0.0
 12
-14.57880612244897
 22
320.0
 32
0.0
 13
-14.57880612244897
 23
320.0
 33
0.0
  0
MTEXT
  5
F3
330
EA
100
AcDbEntity
  8
COTES
 62
     0
100
AcDbMText
 10
-14.57880612244897
 20
282.5
 30
0.0
 40
5.0
 41
0.0
 71
     5
 72
     1
  1
75
  0
POINT
  5
F4
330
EA
100
AcDbEntity
  8
DEFPOINTS
 62
     0
100
AcDbPoint
 10
20.0
 20
245.0
 30
0.0
  0
POINT
  5
F5
330
EA
100
AcDbEntity
  8
DEFPOINTS
 62
     0
100
AcDbPoint
 10
0.0
 20
320.0
 30
0.0
  0
POINT
  5
1D2
330
EA
100
AcDbEntity
  8
DEFPOINTS
 62
     0
100
AcDbPoint
 10
-14.57880612244897
 20
320.0
 30
0.0
  0
ENDBLK
  5
EC
330
EA
100
AcDbEntity
  8
0
100
AcDbBlockEnd
  0
BLOCK
  5
FB
330
FA
100
AcDbEntity
  8
0
100
AcDbBlockBegin
  2
*D4
 70
     1
 10
0.0
 20
0.0
 30
0.0
  3
*D4
  1
*D4
  0
LINE
  5
FD
330
FA
100
AcDbEntity
  8
COTES
 62
     0
100
AcDbLine
 10
19.375
 20
130.0
 30
0.0
 11
-15.82880612244898
 21
130.0
 31
0.0
  0
LINE
  5
FE
330
FA
100
AcDbEntity
  8
COTES
 62
     0
100
AcDbLine
 10
18.75
 20
245.0
 30
0.0
 11
-15.82880612244897
 21
245.0
 31
0.0
  0
LINE
  5
FF
330
FA
100
AcDbEntity
  8
COTES
 62
     0
100
AcDbLine
 10
-14.57880612244898
 20
132.5
 30
0.0
 11
-14.57880612244897
 21
184.3325
 31
0.0
  0
LINE
  5
100
330
FA
100
AcDbEntity
  8
COTES
 62
     0
100
AcDbLine
 10
-14.57880612244897
 20
242.5
 30
0.0
 11
-14.57880612244897
 21
190.6675
 31
0.0
  0
SOLID
  5
101
330
FA
100
AcDbEntity
  8
COTES
 62
     0
100
AcDbTrace
 10
-14.99547278911564
 20
132.5
 30
0.0
 11
-14.16213945578231
 21
132.5
 31
0.0
 12
-14.57880612244898
 22
130.0
 32
0.0
 13
-14.57880612244898
 23
130.0
 33
0.0
  0
SOLID
  5
102
330
FA
100
AcDbEntity
  8
COTES
 62
     0
100
AcDbTrace
 10
-14.1621394557823
 20
242.5
 30
0.0
 11
-14.99547278911564
 21
242.5
 31
0.0
 12
-14.57880612244897
 22
245.0
 32
0.0
 13
-14.57880612244897
 23
245.0
 33
0.0
  0
MTEXT
  5
103
330
FA
100
AcDbEntity
  8
COTES
 62
     0
100
AcDbMText
 10
-14.57880612244897
 20
187.5
 30
0.0
 40
5.0
 41
0.0
 71
     5
 72
     1
  1
115
  0
POINT
  5
104
330
FA
100
AcDbEntity
  8
DEFPOINTS
 62
     0
100
AcDbPoint
 10
20.0
 20
130.0
 30
0.0
  0
POINT
  5
105
330
FA
100
AcDbEntity
  8
DEFPOINTS
 62
     0
100
AcDbPoint
 10
19.375
 20
245.0
 30
0.0
  0
POINT
  5
1D3
330
FA
100
AcDbEntity
  8
DEFPOINTS
 62
     0
100
AcDbPoint
 10
-14.57880612244897
 20
245.0
 30
0.0
  0
ENDBLK
  5
FC
330
FA
100
AcDbEntity
  8
0
100
AcDbBlockEnd
  0
BLOCK
  5
112
330
111
100
AcDbEntity
  8
0
100
AcDbBlockBegin
  2
*D5
 70
     1
 10
0.0
 20
0.0
 30
0.0
  3
*D5
  1
*D5
  0
LINE
  5
114
330
111
100
AcDbEntity
  8
COTES
 62
     0
100
AcDbLine
 10
0.0
 20
320.625
 30
0.0
 11
0.0
 21
328.7574219957876
 31
0.0
  0
LINE
  5
115
330
111
100
AcDbEntity
  8
COTES
 62
     0
100
AcDbLine
 10
41.0
 20
305.75
 30
0.0
 11
41.0
 21
328.7574219957876
 31
0.0
  0
LINE
  5
116
330
111
100
AcDbEntity
  8
COTES
 62
     0
100
AcDbLine
 10
2.5
 20
327.5074219957876
 30
0.0
 11
38.5
 21
327.5074219957876
 31
0.0
  0
SOLID
  5
117
330
111
100
AcDbEntity
  8
COTES
 62
     0
100
AcDbTrace
 10
2.5
 20
327.9240886624543
 30
0.0
 11
2.5
 21
327.0907553291209
 31
0.0
 12
0.0
 22
327.5074219957876
 32
0.0
 13
0.0
 23
327.5074219957876
 33
0.0
  0
SOLID
  5
118
330
111
100
AcDbEntity
  8
COTES
 62
     0
100
AcDbTrace
 10
38.5
 20
327.0907553291209
 30
0.0
 11
38.5
 21
327.9240886624543
 31
0.0
 12
41.0
 22
327.5074219957876
 32
0.0
 13
41.0
 23
327.5074219957876
 33
0.0
  0
MTEXT
  5
119
330
111
100
AcDbEntity
  8
COTES
 62
     0
100
AcDbMText
 10
20.5
 20
330.6424219957876
 30
0.0
 40
5.0
 41
0.0
 71
     5
 72
     1
  1
41
  0
POINT
  5
11A
330
111
100
AcDbEntity
  8
DEFPOINTS
 62
     0
100
AcDbPoint
 10
0.0
 20
320.0
 30
0.0
  0
POINT
  5
11B
330
111
100
AcDbEntity
  8
DEFPOINTS
 62
     0
100
AcDbPoint
 10
41.0
 20
305.125
 30
0.0
  0
POINT
  5
11C
330
111
100
AcDbEntity
  8
DEFPOINTS
 62
     0
100
AcDbPoint
 10
41.0
 20
327.5074219957876
 30
0.0
  0
ENDBLK
  5
113
330
111
100
AcDbEntity
  8
0
100
AcDbBlockEnd
  0
BLOCK
  5
121
330
120
100
AcDbEntity
  8
0
100
AcDbBlockBegin
  2
*D6
 70
     1
 10
0.0
 20
0.0
 30
0.0
  3
*D6
  1
*D6
  0
LINE
  5
123
330
120
100
AcDbEntity
  8
COTES
 62
     0
100
AcDbLine
 10
0.0
 20
320.625
 30
0.0
 11
0.0
 21
339.1376152579752
 31
0.0
  0
LINE
  5
124
330
120
100
AcDbEntity
  8
COTES
 62
     0
100
AcDbLine
 10
78.0
 20
305.75
 30
0.0
 11
78.0
 21
339.1376152579752
 31
0.0
  0
LINE
  5
125
330
120
100
AcDbEntity
  8
COTES
 62
     0
100
AcDbLine
 10
2.5
 20
337.8876152579752
 30
0.0
 11
75.5
 21
337.8876152579752
 31
0.0
  0
SOLID
  5
126
330
120
100
AcDbEntity
  8
COTES
 62
     0
100
AcDbTrace
 10
2.5
 20
338.3042819246419
 30
0.0
 11
2.5
 21
337.4709485913085
 31
0.0
 12
0.0
 22
337.8876152579752
 32
0.0
 13
0.0
 23
337.8876152579752
 33
0.0
  0
SOLID
  5
127
330
120
100
AcDbEntity
  8
COTES
 62
     0
100
AcDbTrace
 10
75.5
 20
337.4709485913085
 30
0.0
 11
75.5
 21
338.3042819246419
 31
0.0
 12
78.0
 22
337.8876152579752
 32
0.0
 13
78.0
 23
337.8876152579752
 33
0.0
  0
MTEXT
  5
128
330
120
100
AcDbEntity
  8
COTES
 62
     0
100
AcDbMText
 10
39.0
 20
341.0651152579752
 30
0.0
 40
5.0
 41
0.0
 71
     5
 72
     1
  1
78
  0
POINT
  5
129
330
120
100
AcDbEntity
  8
DEFPOINTS
 62
     0
100
AcDbPoint
 10
0.0
 20
320.0
 30
0.0
  0
POINT
  5
12A
330
120
100
AcDbEntity
  8
DEFPOINTS
 62
     0
100
AcDbPoint
 10
78.0
 20
305.125
 30
0.0
  0
POINT
  5
12B
330
120
100
AcDbEntity
  8
DEFPOINTS
 62
     0
100
AcDbPoint
 10
78.0
 20
337.8876152579752
 30
0.0
  0
ENDBLK
  5
122
330
120
100
AcDbEntity
  8
0
100
AcDbBlockEnd
  0
BLOCK
  5
194
330
193
100
AcDbEntity
  8
0
100
AcDbBlockBegin
  2
*D7
 70
     1
 10
0.0
 20
0.0
 30
0.0
  3
*D7
  1
*D7
  0
LINE
  5
196
330
193
100
AcDbEntity
  8
COTES
 62
     0
100
AcDbLine
 10
0.0
 20
320.0
 30
0.0
 11
0.0
 21
273.3149512975484
 31
0.0
  0
LINE
  5
197
330
193
100
AcDbEntity
  8
COTES
 62
     0
100
AcDbLine
 10
124.9999999999999
 20
235.625
 30
0.0
 11
124.9999999999999
 21
275.8149512975484
 31
0.0
  0
LINE
  5
198
330
193
100
AcDbEntity
  8
COTES
 62
     0
100
AcDbLine
 10
2.5
 20
274.5649512975484
 30
0.0
 11
122.4999999999999
 21
274.5649512975484
 31
0.0
  0
SOLID
  5
199
330
193
100
AcDbEntity
  8
COTES
 62
     0
100
AcDbTrace
 10
2.5
 20
274.9816179642151
 30
0.0
 11
2.5
 21
274.1482846308817
 31
0.0
 12
0.0
 22
274.5649512975484
 32
0.0
 13
0.0
 23
274.5649512975484
 33
0.0
  0
SOLID
  5
19A
330
193
100
AcDbEntity
  8
COTES
 62
     0
100
AcDbTrace
 10
122.4999999999999
 20
274.1482846308817
 30
0.0
 11
122.4999999999999
 21
274.9816179642151
 31
0.0
 12
124.9999999999999
 22
274.5649512975484
 32
0.0
 13
124.9999999999999
 23
274.5649512975484
 33
0.0
  0
MTEXT
  5
19B
330
193
100
AcDbEntity
  8
COTES
 62
     0
100
AcDbMText
 10
62.49999999999994
 20
277.7324512975484
 30
0.0
 40
5.0
 41
0.0
 71
     5
 72
     1
  1
125
  0
POINT
  5
19C
330
193
100
AcDbEntity
  8
DEFPOINTS
 62
     0
100
AcDbPoint
 10
0.0
 20
320.625
 30
0.0
  0
POINT
  5
19D
330
193
100
AcDbEntity
  8
DEFPOINTS
 62
     0
100
AcDbPoint
 10
124.9999999999999
 20
235.0
 30
0.0
  0
POINT
  5
19E
330
193
100
AcDbEntity
  8
DEFPOINTS
 62
     0
100
AcDbPoint
 10
124.9999999999999
 20
274.5649512975484
 30
0.0
  0
ENDBLK
  5
195
330
193
100
AcDbEntity
  8
0
100
AcDbBlockEnd
  0
BLOCK
  5
1A3
330
1A2
100
AcDbEntity
  8
0
100
AcDbBlockBegin
  2
*D8
 70
     1
 10
0.0
 20
0.0
 30
0.0
  3
*D8
  1
*D8
  0
LINE
  5
1A5
330
1A2
100
AcDbEntity
  8
COTES
 62
     0
100
AcDbLine
 10
125.6249999999999
 20
190.0
 30
0.0
 11
151.1146820652951
 21
190.0
 31
0.0
  0
LINE
  5
1A6
330
1A2
100
AcDbEntity
  8
COTES
 62
     0
100
AcDbLine
 10
0.625
 20
320.0
 30
0.0
 11
151.1146820652951
 21
320.0
 31
0.0
  0
LINE
  5
1A7
330
1A2
100
AcDbEntity
  8
COTES
 62
     0
100
AcDbLine
 10
149.8646820652951
 20
192.5
 30
0.0
 11
149.8646820652951
 21
285.91625
 31
0.0
  0
LINE
  5
1A8
330
1A2
100
AcDbEntity
  8
COTES
 62
     0
100
AcDbLine
 10
149.8646820652951
 20
317.5
 30
0.0
 11
149.8646820652951
 21
292.25125
 31
0.0
  0
SOLID
  5
1A9
330
1A2
100
AcDbEntity
  8
COTES
 62
     0
100
AcDbTrace
 10
149.4480153986285
 20
192.5
 30
0.0
 11
150.2813487319618
 21
192.5
 31
0.0
 12
149.8646820652951
 22
190.0
 32
0.0
 13
149.8646820652951
 23
190.0
 33
0.0
  0
SOLID
  5
1AA
330
1A2
100
AcDbEntity
  8
COTES
 62
     0
100
AcDbTrace
 10
150.2813487319618
 20
317.5
 30
0.0
 11
149.4480153986285
 21
317.5
 31
0.0
 12
149.8646820652951
 22
320.0
 32
0.0
 13
149.8646820652951
 23
320.0
 33
0.0
  0
MTEXT
  5
1AB
330
1A2
100
AcDbEntity
  8
COTES
 62
     0
100
AcDbMText
 10
149.8646820652951
 20
289.08375
 30
0.0
 40
5.0
 41
0.0
 71
     5
 72
     1
  1
130
  0
POINT
  5
1AC
330
1A2
100
AcDbEntity
  8
DEFPOINTS
 62
     0
100
AcDbPoint
 10
124.9999999999999
 20
190.0
 30
0.0
  0
POINT
  5
1AD
330
1A2
100
AcDbEntity
  8
DEFPOINTS
 62
     0
100
AcDbPoint
 10
0.0
 20
320.0
 30
0.0
  0
POINT
  5
1D0
330
1A2
100
AcDbEntity
  8
DEFPOINTS
 62
     0
100
AcDbPoint
 10
149.8646820652951
 20
320.0
 30
0.0
  0
ENDBLK
  5
1A4
330
1A2
100
AcDbEntity
  8
0
100
AcDbBlockEnd
  0
BLOCK
  5
1B2
330
1B1
100
AcDbEntity
  8
0
100
AcDbBlockBegin
  2
*D9
 70
     1
 10
0.0
 20
0.0
 30
0.0
  3
*D9
  1
*D9
  0
LINE
  5
1B4
330
1B1
100
AcDbEntity
  8
COTES
 62
     0
100
AcDbLine
 10
1.25
 20
320.0
 30
0.0
 11
160.3084270579593
 21
320.0
 31
0.0
  0
LINE
  5
1B5
330
1B1
100
AcDbEntity
  8
COTES
 62
     0
100
AcDbLine
 10
125.6249999999999
 20
150.0
 30
0.0
 11
160.3084270579593
 21
150.0
 31
0.0
  0
LINE
  5
1B6
330
1B1
100
AcDbEntity
  8
COTES
 62
     0
100
AcDbLine
 10
159.0584270579593
 20
317.5
 30
0.0
 11
159.0584270579593
 21
281.667941844394
 31
0.0
  0
LINE
  5
1B7
330
1B1
100
AcDbEntity
  8
COTES
 62
     0
100
AcDbLine
 10
159.0584270579593
 20
152.5
 30
0.0
 11
159.0584270579593
 21
275.332941844394
 31
0.0
  0
SOLID
  5
1B8
330
1B1
100
AcDbEntity
  8
COTES
 62
     0
100
AcDbTrace
 10
159.475093724626
 20
317.5
 30
0.0
 11
158.6417603912926
 21
317.5
 31
0.0
 12
159.0584270579593
 22
320.0
 32
0.0
 13
159.0584270579593
 23
320.0
 33
0.0
  0
SOLID
  5
1B9
330
1B1
100
AcDbEntity
  8
COTES
 62
     0
100
AcDbTrace
 10
158.6417603912926
 20
152.5
 30
0.0
 11
159.475093724626
 21
152.5
 31
0.0
 12
159.0584270579593
 22
150.0
 32
0.0
 13
159.0584270579593
 23
150.0
 33
0.0
  0
MTEXT
  5
1BA
330
1B1
100
AcDbEntity
  8
COTES
 62
     0
100
AcDbMText
 10
159.0584270579593
 20
278.500441844394
 30
0.0
 40
5.0
 41
0.0
 71
     5
 72
     1
  1
170
  0
POINT
  5
1BB
330
1B1
100
AcDbEntity
  8
DEFPOINTS
 62
     0
100
AcDbPoint
 10
0.625
 20
320.0
 30
0.0
  0
POINT
  5
1BC
330
1B1
100
AcDbEntity
  8
DEFPOINTS
 62
     0
100
AcDbPoint
 10
124.9999999999999
 20
150.0
 30
0.0
  0
POINT
  5
1D1
330
1B1
100
AcDbEntity
  8
DEFPOINTS
 62
     0
100
AcDbPoint
 10
159.0584270579593
 20
150.0
 30
0.0
  0
ENDBLK
  5
1B3
330
1B1
100
AcDbEntity
  8
0
100
AcDbBlockEnd
  0
BLOCK
  5
1D8
330
1D7
100
AcDbEntity
  8
0
100
AcDbBlockBegin
  2
*D10
 70
     1
 10
0.0
 20
0.0
 30
0.0
  3
*D10
  1
*D10
  0
LINE
  5
1DA
330
1D7
100
AcDbEntity
  8
COTES
 62
     0
100
AcDbLine
 10
78.625
 20
305.005
 30
0.0
 11
106.0564028941495
 21
305.005
 31
0.0
  0
LINE
  5
1DB
330
1D7
100
AcDbEntity
  8
COTES
 62
     0
100
AcDbLine
 10
78.625
 20
320.0
 30
0.0
 11
106.0564028941495
 21
320.0
 31
0.0
  0
LINE
  5
1DC
330
1D7
100
AcDbEntity
  8
COTES
 62
     0
100
AcDbLine
 10
104.8064028941495
 20
307.505
 30
0.0
 11
104.8064028941495
 21
309.335
 31
0.0
  0
LINE
  5
1DD
330
1D7
100
AcDbEntity
  8
COTES
 62
     0
100
AcDbLine
 10
104.8064028941495
 20
317.5
 30
0.0
 11
104.8064028941495
 21
315.67
 31
0.0
  0
SOLID
  5
1DE
330
1D7
100
AcDbEntity
  8
COTES
 62
     0
100
AcDbTrace
 10
104.3897362274829
 20
307.505
 30
0.0
 11
105.2230695608162
 21
307.505
 31
0.0
 12
104.8064028941495
 22
305.005
 32
0.0
 13
104.8064028941495
 23
305.005
 33
0.0
  0
SOLID
  5
1DF
330
1D7
100
AcDbEntity
  8
COTES
 62
     0
100
AcDbTrace
 10
105.2230695608162
 20
317.5
 30
0.0
 11
104.3897362274829
 21
317.5
 31
0.0
 12
104.8064028941495
 22
320.0
 32
0.0
 13
104.8064028941495
 23
320.0
 33
0.0
  0
MTEXT
  5
1E0
330
1D7
100
AcDbEntity
  8
COTES
 62
     0
100
AcDbMText
 10
104.8064028941495
 20
312.5025
 30
0.0
 40
5.0
 41
0.0
 71
     5
 72
     1
  1
15
  0
POINT
  5
1E1
330
1D7
100
AcDbEntity
  8
DEFPOINTS
 62
     0
100
AcDbPoint
 10
78.0
 20
305.005
 30
0.0
  0
POINT
  5
1E2
330
1D7
100
AcDbEntity
  8
DEFPOINTS
 62
     0
100
AcDbPoint
 10
78.0
 20
320.0
 30
0.0
  0
POINT
  5
1E3
330
1D7
100
AcDbEntity
  8
DEFPOINTS
 62
     0
100
AcDbPoint
 10
104.8064028941495
 20
320.0
 30
0.0
  0
ENDBLK
  5
1D9
330
1D7
100
AcDbEntity
  8
0
100
AcDbBlockEnd
  0
BLOCK
  5
1F4
330
1F3
100
AcDbEntity
  8
0
100
AcDbBlockBegin
  2
*D11
 70
     1
 10
0.0
 20
0.0
 30
0.0
  3
*D11
  1
*D11
  0
LINE
  5
1F6
330
1F3
100
AcDbEntity
  8
COTES
 62
     0
100
AcDbLine
 10
265.0
 20
215.625
 30
0.0
 11
265.0
 21
248.9583833268996
 31
0.0
  0
LINE
  5
1F7
330
1F3
100
AcDbEntity
  8
COTES
 62
     0
100
AcDbLine
 10
370.0
 20
180.625
 30
0.0
 11
370.0
 21
248.9583833268996
 31
0.0
  0
LINE
  5
1F8
330
1F3
100
AcDbEntity
  8
COTES
 62
     0
100
AcDbLine
 10
267.5
 20
247.7083833268996
 30
0.0
 11
367.5
 21
247.7083833268996
 31
0.0
  0
SOLID
  5
1F9
330
1F3
100
AcDbEntity
  8
COTES
 62
     0
100
AcDbTrace
 10
267.5
 20
248.1250499935663
 30
0.0
 11
267.5
 21
247.2917166602329
 31
0.0
 12
265.0
 22
247.7083833268996
 32
0.0
 13
265.0
 23
247.7083833268996
 33
0.0
  0
SOLID
  5
1FA
330
1F3
100
AcDbEntity
  8
COTES
 62
     0
100
AcDbTrace
 10
367.5
 20
247.2917166602329
 30
0.0
 11
367.5
 21
248.1250499935663
 31
0.0
 12
370.0
 22
247.7083833268996
 32
0.0
 13
370.0
 23
247.7083833268996
 33
0.0
  0
MTEXT
  5
1FB
330
1F3
100
AcDbEntity
  8
COTES
 62
     0
100
AcDbMText
 10
317.5
 20
250.8758833268996
 30
0.0
 40
5.0
 41
0.0
 71
     5
 72
     1
  1
105
  0
POINT
  5
1FC
330
1F3
100
AcDbEntity
  8
DEFPOINTS
 62
     0
100
AcDbPoint
 10
265.0
 20
215.0
 30
0.0
  0
POINT
  5
1FD
330
1F3
100
AcDbEntity
  8
DEFPOINTS
 62
     0
100
AcDbPoint
 10
370.0
 20
180.0
 30
0.0
  0
POINT
  5
1FE
330
1F3
100
AcDbEntity
  8
DEFPOINTS
 62
     0
100
AcDbPoint
 10
370.0
 20
247.7083833268996
 30
0.0
  0
ENDBLK
  5
1F5
330
1F3
100
AcDbEntity
  8
0
100
AcDbBlockEnd
  0
BLOCK
  5
203
330
202
100
AcDbEntity
  8
0
100
AcDbBlockBegin
  2
*D12
 70
     1
 10
0.0
 20
0.0
 30
0.0
  3
*D12
  1
*D12
  0
LINE
  5
205
330
202
100
AcDbEntity
  8
COTES
 62
     0
100
AcDbLine
 10
264.375
 20
215.0
 30
0.0
 11
236.8560607946468
 21
215.0
 31
0.0
  0
LINE
  5
206
330
202
100
AcDbEntity
  8
COTES
 62
     0
100
AcDbLine
 10
264.375
 20
320.0
 30
0.0
 11
236.8560607946468
 21
320.0
 31
0.0
  0
LINE
  5
207
330
202
100
AcDbEntity
  8
COTES
 62
     0
100
AcDbLine
 10
238.1060607946468
 20
217.5
 30
0.0
 11
238.1060607946468
 21
264.3325
 31
0.0
  0
LINE
  5
208
330
202
100
AcDbEntity
  8
COTES
 62
     0
100
AcDbLine
 10
238.1060607946468
 20
317.5
 30
0.0
 11
238.1060607946468
 21
270.6675
 31
0.0
  0
SOLID
  5
209
330
202
100
AcDbEntity
  8
COTES
 62
     0
100
AcDbTrace
 10
237.6893941279801
 20
217.5
 30
0.0
 11
238.5227274613135
 21
217.5
 31
0.0
 12
238.1060607946468
 22
215.0
 32
0.0
 13
238.1060607946468
 23
215.0
 33
0.0
  0
SOLID
  5
20A
330
202
100
AcDbEntity
  8
COTES
 62
     0
100
AcDbTrace
 10
238.5227274613135
 20
317.5
 30
0.0
 11
237.6893941279801
 21
317.5
 31
0.0
 12
238.1060607946468
 22
320.0
 32
0.0
 13
238.1060607946468
 23
320.0
 33
0.0
  0
MTEXT
  5
20B
330
202
100
AcDbEntity
  8
COTES
 62
     0
100
AcDbMText
 10
238.1060607946468
 20
267.5
 30
0.0
 40
5.0
 41
0.0
 71
     5
 72
     1
  1
105
  0
POINT
  5
20C
330
202
100
AcDbEntity
  8
DEFPOINTS
 62
     0
100
AcDbPoint
 10
265.0
 20
215.0
 30
0.0
  0
POINT
  5
20D
330
202
100
AcDbEntity
  8
DEFPOINTS
 62
     0
100
AcDbPoint
 10
265.0
 20
320.0
 30
0.0
  0
POINT
  5
20E
330
202
100
AcDbEntity
  8
DEFPOINTS
 62
     0
100
AcDbPoint
 10
238.1060607946468
 20
320.0
 30
0.0
  0
ENDBLK
  5
204
330
202
100
AcDbEntity
  8
0
100
AcDbBlockEnd
  0
BLOCK
  5
26A
330
269
100
AcDbEntity
  8
0
100
AcDbBlockBegin
  2
*D13
 70
     1
 10
0.0
 20
0.0
 30
0.0
  3
*D13
  1
*D13
  0
LINE
  5
26C
330
269
100
AcDbEntity
  8
COTES
 62
     0
100
AcDbLine
 10
285.9960278907953
 20
50.62678430429411
 30
0.0
 11
285.9960278907953
 21
75.51895237207108
 31
0.0
  0
LINE
  5
26D
330
269
100
AcDbEntity
  8
COTES
 62
     0
100
AcDbLine
 10
370.0
 20
50.62678430429412
 30
0.0
 11
370.0
 21
75.51895237207108
 31
0.0
  0
LINE
  5
26E
330
269
100
AcDbEntity
  8
COTES
 62
     0
100
AcDbLine
 10
288.4960278907953
 20
74.26895237207108
 30
0.0
 11
367.5
 21
74.26895237207108
 31
0.0
  0
SOLID
  5
26F
330
269
100
AcDbEntity
  8
COTES
 62
     0
100
AcDbTrace
 10
288.4960278907953
 20
74.68561903873776
 30
0.0
 11
288.4960278907953
 21
73.85228570540441
 31
0.0
 12
285.9960278907953
 22
74.26895237207108
 32
0.0
 13
285.9960278907953
 23
74.26895237207108
 33
0.0
  0
SOLID
  5
270
330
269
100
AcDbEntity
  8
COTES
 62
     0
100
AcDbTrace
 10
367.5
 20
73.85228570540441
 30
0.0
 11
367.5
 21
74.68561903873776
 31
0.0
 12
370.0
 22
74.26895237207108
 32
0.0
 13
370.0
 23
74.26895237207108
 33
0.0
  0
MTEXT
  5
271
330
269
100
AcDbEntity
  8
COTES
 62
     0
100
AcDbMText
 10
327.9980139453976
 20
77.43645237207107
 30
0.0
 40
5.0
 41
0.0
 71
     5
 72
     1
  1
84
  0
POINT
  5
272
330
269
100
AcDbEntity
  8
DEFPOINTS
 62
     0
100
AcDbPoint
 10
285.9960278907953
 20
50.00178430429411
 30
0.0
  0
POINT
  5
273
330
269
100
AcDbEntity
  8
DEFPOINTS
 62
     0
100
AcDbPoint
 10
370.0
 20
50.00178430429412
 30
0.0
  0
POINT
  5
274
330
269
100
AcDbEntity
  8
DEFPOINTS
 62
     0
100
AcDbPoint
 10
370.0
 20
74.26895237207108
 30
0.0
  0
ENDBLK
  5
26B
330
269
100
AcDbEntity
  8
0
100
AcDbBlockEnd
  0
BLOCK
  5
279
330
278
100
AcDbEntity
  8
0
100
AcDbBlockBegin
  2
*D14
 70
     1
 10
0.0
 20
0.0
 30
0.0
  3
*D14
  1
*D14
  0
LINE
  5
27B
330
278
100
AcDbEntity
  8
COTES
 62
     0
100
AcDbLine
 10
285.3710278907953
 20
50.00178430429411
 30
0.0
 11
235.9621146102605
 21
50.00178430429411
 31
0.0
  0
LINE
  5
27C
330
278
100
AcDbEntity
  8
COTES
 62
     0
100
AcDbLine
 10
285.3710278907953
 20
0.0
 30
0.0
 11
235.9621146102605
 21
0.0000000000000031
 31
0.0
  0
LINE
  5
27D
330
278
100
AcDbEntity
  8
COTES
 62
     0
100
AcDbLine
 10
237.2121146102605
 20
47.50178430429411
 30
0.0
 11
237.2121146102605
 21
28.16839215214706
 31
0.0
  0
LINE
  5
27E
330
278
100
AcDbEntity
  8
COTES
 62
     0
100
AcDbLine
 10
237.2121146102605
 20
2.500000000000003
 30
0.0
 11
237.2121146102605
 21
21.83339215214705
 31
0.0
  0
SOLID
  5
27F
330
278
100
AcDbEntity
  8
COTES
 62
     0
100
AcDbTrace
 10
237.6287812769272
 20
47.50178430429411
 30
0.0
 11
236.7954479435939
 21
47.50178430429411
 31
0.0
 12
237.2121146102605
 22
50.00178430429411
 32
0.0
 13
237.2121146102605
 23
50.00178430429411
 33
0.0
  0
SOLID
  5
280
330
278
100
AcDbEntity
  8
COTES
 62
     0
100
AcDbTrace
 10
236.7954479435939
 20
2.500000000000003
 30
0.0
 11
237.6287812769272
 21
2.500000000000003
 31
0.0
 12
237.2121146102605
 22
0.000000000000003
 32
0.0
 13
237.2121146102605
 23
0.000000000000003
 33
0.0
  0
MTEXT
  5
281
330
278
100
AcDbEntity
  8
COTES
 62
     0
100
AcDbMText
 10
237.2121146102605
 20
25.00089215214705
 30
0.0
 40
5.0
 41
0.0
 71
     5
 72
     1
  1
50
  0
POINT
  5
282
330
278
100
AcDbEntity
  8
DEFPOINTS
 62
     0
100
AcDbPoint
 10
285.9960278907953
 20
50.00178430429411
 30
0.0
  0
POINT
  5
283
330
278
100
AcDbEntity
  8
DEFPOINTS
 62
     0
100
AcDbPoint
 10
285.9960278907953
 20
0.0
 30
0.0
  0
POINT
  5
284
330
278
100
AcDbEntity
  8
DEFPOINTS
 62
     0
100
AcDbPoint
 10
237.2121146102605
 20
0.000000000000003
 30
0.0
  0
ENDBLK
  5
27A
330
278
100
AcDbEntity
  8
0
100
AcDbBlockEnd
  0
BLOCK
  5
2D2
330
2D1
100
AcDbEntity
  8
0
100
AcDbBlockBegin
  2
*D15
 70
     1
 10
0.0
 20
0.0
 30
0.0
  3
*D15
  1
*D15
  0
LINE
  5
2D4
330
2D1
100
AcDbEntity
  8
COTES
 62
     0
100
AcDbLine
 10
125.6249999999999
 20
225.0
 30
0.0
 11
140.3800431795207
 21
225.0
 31
0.0
  0
LINE
  5
2D5
330
2D1
100
AcDbEntity
  8
COTES
 62
     0
100
AcDbLine
 10
1.875
 20
320.0
 30
0.0
 11
140.3800431795207
 21
320.0
 31
0.0
  0
LINE
  5
2D6
330
2D1
100
AcDbEntity
  8
COTES
 62
     0
100
AcDbLine
 10
139.1300431795207
 20
227.5
 30
0.0
 11
139.1300431795207
 21
294.66625
 31
0.0
  0
LINE
  5
2D7
330
2D1
100
AcDbEntity
  8
COTES
 62
     0
100
AcDbLine
 10
139.1300431795207
 20
317.5
 30
0.0
 11
139.1300431795207
 21
301.00125
 31
0.0
  0
SOLID
  5
2D8
330
2D1
100
AcDbEntity
  8
COTES
 62
     0
100
AcDbTrace
 10
138.7133765128541
 20
227.5
 30
0.0
 11
139.5467098461874
 21
227.5
 31
0.0
 12
139.1300431795207
 22
225.0
 32
0.0
 13
139.1300431795207
 23
225.0
 33
0.0
  0
SOLID
  5
2D9
330
2D1
100
AcDbEntity
  8
COTES
 62
     0
100
AcDbTrace
 10
139.5467098461874
 20
317.5
 30
0.0
 11
138.7133765128541
 21
317.5
 31
0.0
 12
139.1300431795207
 22
320.0
 32
0.0
 13
139.1300431795207
 23
320.0
 33
0.0
  0
MTEXT
  5
2DA
330
2D1
100
AcDbEntity
  8
COTES
 62
     0
100
AcDbMText
 10
139.1300431795207
 20
297.83375
 30
0.0
 40
5.0
 41
0.0
 71
     5
 72
     1
  1
95
  0
POINT
  5
2DB
330
2D1
100
AcDbEntity
  8
DEFPOINTS
 62
     0
100
AcDbPoint
 10
124.9999999999999
 20
225.0
 30
0.0
  0
POINT
  5
2DC
330
2D1
100
AcDbEntity
  8
DEFPOINTS
 62
     0
100
AcDbPoint
 10
1.25
 20
320.0
 30
0.0
  0
POINT
  5
2DD
330
2D1
100
AcDbEntity
  8
DEFPOINTS
 62
     0
100
AcDbPoint
 10
139.1300431795207
 20
320.0
 30
0.0
  0
ENDBLK
  5
2D3
330
2D1
100
AcDbEntity
  8
0
100
AcDbBlockEnd
  0
BLOCK
  5
2ED
330
2EC
100
AcDbEntity
  8
0
100
AcDbBlockBegin
  2
*D16
 70
     1
 10
0.0
 20
0.0
 30
0.0
  3
*D16
  1
*D16
  0
LINE
  5
2EF
330
2EC
100
AcDbEntity
  8
COTES
 62
     0
100
AcDbLine
 10
112.949294700593
 20
397.9975162020135
 30
0.0
 11
125.0400521976572
 21
397.9975162020135
 31
0.0
  0
LINE
  5
2F0
330
2EC
100
AcDbEntity
  8
COTES
 62
     0
100
AcDbLine
 10
83.0
 20
405.9999999999999
 30
0.0
 11
125.0400521976572
 21
405.9999999999999
 31
0.0
  0
LINE
  5
2F1
330
2EC
100
AcDbEntity
  8
COTES
 62
     0
100
AcDbLine
 10
123.7900521976572
 20
397.9975162020135
 30
0.0
 11
123.7900521976572
 21
398.8312581010067
 31
0.0
  0
LINE
  5
2F2
330
2EC
100
AcDbEntity
  8
COTES
 62
     0
100
AcDbLine
 10
123.7900521976572
 20
405.9999999999999
 30
0.0
 11
123.7900521976572
 21
405.1662581010067
 31
0.0
  0
LINE
  5
2F3
330
2EC
100
AcDbEntity
  8
COTES
 62
     0
100
AcDbLine
 10
123.7900521976572
 20
395.4975162020135
 30
0.0
 11
123.7900521976572
 21
392.9975162020135
 31
0.0
  0
LINE
  5
2F4
330
2EC
100
AcDbEntity
  8
COTES
 62
     0
100
AcDbLine
 10
123.7900521976572
 20
408.4999999999999
 30
0.0
 11
123.7900521976572
 21
410.9999999999999
 31
0.0
  0
SOLID
  5
2F5
330
2EC
100
AcDbEntity
  8
COTES
 62
     0
100
AcDbTrace
 10
124.2067188643239
 20
395.4975162020135
 30
0.0
 11
123.3733855309906
 21
395.4975162020135
 31
0.0
 12
123.7900521976572
 22
397.9975162020135
 32
0.0
 13
123.7900521976572
 23
397.9975162020135
 33
0.0
  0
SOLID
  5
2F6
330
2EC
100
AcDbEntity
  8
COTES
 62
     0
100
AcDbTrace
 10
123.3733855309906
 20
408.4999999999999
 30
0.0
 11
124.2067188643239
 21
408.4999999999999
 31
0.0
 12
123.7900521976572
 22
405.9999999999999
 32
0.0
 13
123.7900521976572
 23
405.9999999999999
 33
0.0
  0
MTEXT
  5
2F7
330
2EC
100
AcDbEntity
  8
COTES
 62
     0
100
AcDbMText
 10
123.7900521976572
 20
401.9987581010067
 30
0.0
 40
5.0
 41
0.0
 71
     5
 72
     1
  1
8
  0
POINT
  5
2F8
330
2EC
100
AcDbEntity
  8
DEFPOINTS
 62
     0
100
AcDbPoint
 10
112.324294700593
 20
397.9975162020135
 30
0.0
  0
POINT
  5
2F9
330
2EC
100
AcDbEntity
  8
DEFPOINTS
 62
     0
100
AcDbPoint
 10
82.375
 20
405.9999999999999
 30
0.0
  0
POINT
  5
2FA
330
2EC
100
AcDbEntity
  8
DEFPOINTS
 62
     0
100
AcDbPoint
 10
123.7900521976572
 20
405.9999999999999
 30
0.0
  0
ENDBLK
  5
2EE
330
2EC
100
AcDbEntity
  8
0
100
AcDbBlockEnd
  0
BLOCK
  5
2FF
330
2FE
100
AcDbEntity
  8
0
100
AcDbBlockBegin
  2
*D17
 70
     1
 10
0.0
 20
0.0
 30
0.0
  3
*D17
  1
*D17
  0
LINE
  5
301
330
2FE
100
AcDbEntity
  8
COTES
 62
     0
100
AcDbLine
 10
82.53634039915295
 20
406.6038164254151
 30
0.0
 11
86.8355757478791
 21
422.6937042273254
 31
0.0
  0
LINE
  5
302
330
2FE
100
AcDbEntity
  8
COTES
 62
     0
100
AcDbLine
 10
112.485635099746
 20
398.6013326274287
 30
0.0
 11
116.7848704484721
 21
414.6912204293391
 31
0.0
  0
LINE
  5
303
330
2FE
100
AcDbEntity
  8
COTES
 62
     0
100
AcDbLine
 10
88.92816065123394
 20
420.8407097798833
 30
0.0
 11
97.78004229986972
 21
418.4754774703058
 31
0.0
  0
LINE
  5
304
330
2FE
100
AcDbEntity
  8
COTES
 62
     0
100
AcDbLine
 10
114.0469239485055
 20
414.1289491751205
 30
0.0
 11
105.1950422998697
 21
416.494181484698
 31
0.0
  0
SOLID
  5
305
330
2FE
100
AcDbEntity
  8
COTES
 62
     0
100
AcDbTrace
 10
89.03572091733591
 20
421.2432540634934
 30
0.0
 11
88.82060038513197
 21
420.4381654962732
 31
0.0
 12
86.51289494957321
 22
421.4860713764951
 32
0.0
 13
86.51289494957321
 23
421.4860713764951
 33
0.0
  0
SOLID
  5
306
330
2FE
100
AcDbEntity
  8
COTES
 62
     0
100
AcDbTrace
 10
113.9393636824035
 20
413.7264048915104
 30
0.0
 11
114.1544842146075
 21
414.5314934587306
 31
0.0
 12
116.4621896501662
 22
413.4835875785087
 32
0.0
 13
116.4621896501662
 23
413.4835875785087
 33
0.0
  0
MTEXT
  5
307
330
2FE
100
AcDbEntity
  8
COTES
 62
     0
100
AcDbMText
 10
101.4875422998697
 20
417.4848294775019
 30
0.0
 40
5.0
 41
0.0
 71
     5
 72
     1
  1
31
  0
POINT
  5
308
330
2FE
100
AcDbEntity
  8
DEFPOINTS
 62
     0
100
AcDbPoint
 10
82.375
 20
405.9999999999999
 30
0.0
  0
POINT
  5
309
330
2FE
100
AcDbEntity
  8
DEFPOINTS
 62
     0
100
AcDbPoint
 10
112.324294700593
 20
397.9975162020135
 30
0.0
  0
POINT
  5
30A
330
2FE
100
AcDbEntity
  8
DEFPOINTS
 62
     0
100
AcDbPoint
 10
116.4621896501662
 20
413.4835875785087
 30
0.0
  0
ENDBLK
  5
300
330
2FE
100
AcDbEntity
  8
0
100
AcDbBlockEnd
  0
BLOCK
  5
30F
330
30E
100
AcDbEntity
  8
0
100
AcDbBlockBegin
  2
*D18
 70
     1
 10
0.0
 20
0.0
 30
0.0
  3
*D18
  1
*D18
  0
LINE
  5
311
330
30E
100
AcDbEntity
  8
COTES
 62
     0
100
AcDbLine
 10
81.77118357458482
 20
406.1613403991528
 30
0.0
 11
74.48915620948105
 21
408.107105953511
 31
0.0
  0
LINE
  5
312
330
30E
100
AcDbEntity
  8
COTES
 62
     0
100
AcDbLine
 10
73.7686997765986
 20
376.2120456985597
 30
0.0
 11
66.48667241149482
 21
378.1578112529178
 31
0.0
  0
LINE
  5
313
330
30E
100
AcDbEntity
  8
COTES
 62
     0
100
AcDbLine
 10
75.05142746369962
 20
405.3691594535444
 30
0.0
 11
72.54190657256747
 21
395.9772778049086
 31
0.0
  0
LINE
  5
314
330
30E
100
AcDbEntity
  8
COTES
 62
     0
100
AcDbLine
 10
68.33966685893698
 20
380.2503961562726
 30
0.0
 11
70.84918775006915
 21
389.6422778049085
 31
0.0
  0
SOLID
  5
315
330
30E
100
AcDbEntity
  8
COTES
 62
     0
100
AcDbTrace
 10
75.45397174730975
 20
405.2615991874424
 30
0.0
 11
74.6488831800895
 21
405.4767197196464
 31
0.0
 12
75.69678906031142
 22
407.7844251552051
 32
0.0
 13
75.69678906031142
 23
407.7844251552051
 33
0.0
  0
SOLID
  5
316
330
30E
100
AcDbEntity
  8
COTES
 62
     0
100
AcDbTrace
 10
67.93712257532685
 20
380.3579564223746
 30
0.0
 11
68.7422111425471
 21
380.1428358901707
 31
0.0
 12
67.69430526232519
 22
377.8351304546119
 32
0.0
 13
67.69430526232519
 23
377.8351304546119
 33
0.0
  0
MTEXT
  5
317
330
30E
100
AcDbEntity
  8
COTES
 62
     0
100
AcDbMText
 10
71.6955471613183
 20
392.8097778049085
 30
0.0
 40
5.0
 41
0.0
 71
     5
 72
     1
  1
31
  0
POINT
  5
318
330
30E
100
AcDbEntity
  8
DEFPOINTS
 62
     0
100
AcDbPoint
 10
82.375
 20
405.9999999999999
 30
0.0
  0
POINT
  5
319
330
30E
100
AcDbEntity
  8
DEFPOINTS
 62
     0
100
AcDbPoint
 10
74.37251620201377
 20
376.0507052994067
 30
0.0
  0
POINT
  5
31A
330
30E
100
AcDbEntity
  8
DEFPOINTS
 62
     0
100
AcDbPoint
 10
67.69430526232519
 20
377.8351304546119
 30
0.0
  0
ENDBLK
  5
310
330
30E
100
AcDbEntity
  8
0
100
AcDbBlockEnd
  0
BLOCK
  5
31F
330
31E
100
AcDbEntity
  8
0
100
AcDbBlockBegin
  2
*D19
 70
     1
 10
0.0
 20
0.0
 30
0.0
  3
*D19
  1
*D19
  0
LINE
  5
321
330
31E
100
AcDbEntity
  8
COTES
 62
     0
100
AcDbLine
 10
82.375
 20
405.3749999999999
 30
0.0
 11
82.375
 21
363.7024839860828
 31
0.0
  0
LINE
  5
322
330
31E
100
AcDbEntity
  8
COTES
 62
     0
100
AcDbLine
 10
85.375
 20
369.375
 30
0.0
 11
85.375
 21
363.7024839860828
 31
0.0
  0
LINE
  5
323
330
31E
100
AcDbEntity
  8
COTES
 62
     0
100
AcDbLine
 10
82.375
 20
364.9524839860828
 30
0.0
 11
85.375
 21
364.9524839860828
 31
0.0
  0
LINE
  5
324
330
31E
100
AcDbEntity
  8
COTES
 62
     0
100
AcDbLine
 10
79.875
 20
364.9524839860828
 30
0.0
 11
77.375
 21
364.9524839860828
 31
0.0
  0
LINE
  5
325
330
31E
100
AcDbEntity
  8
COTES
 62
     0
100
AcDbLine
 10
87.875
 20
364.9524839860828
 30
0.0
 11
90.375
 21
364.9524839860828
 31
0.0
  0
SOLID
  5
326
330
31E
100
AcDbEntity
  8
COTES
 62
     0
100
AcDbTrace
 10
79.875
 20
364.5358173194161
 30
0.0
 11
79.875
 21
365.3691506527495
 31
0.0
 12
82.375
 22
364.9524839860828
 32
0.0
 13
82.375
 23
364.9524839860828
 33
0.0
  0
SOLID
  5
327
330
31E
100
AcDbEntity
  8
COTES
 62
     0
100
AcDbTrace
 10
87.875
 20
365.3691506527495
 30
0.0
 11
87.875
 21
364.5358173194161
 31
0.0
 12
85.375
 22
364.9524839860828
 32
0.0
 13
85.375
 23
364.9524839860828
 33
0.0
  0
MTEXT
  5
328
330
31E
100
AcDbEntity
  8
COTES
 62
     0
100
AcDbMText
 10
83.875
 20
359.6114607002314
 30
0.0
 40
5.0
 41
0.0
 71
     5
 72
     1
  1
3
  0
POINT
  5
329
330
31E
100
AcDbEntity
  8
DEFPOINTS
 62
     0
100
AcDbPoint
 10
82.375
 20
405.9999999999999
 30
0.0
  0
POINT
  5
32A
330
31E
100
AcDbEntity
  8
DEFPOINTS
 62
     0
100
AcDbPoint
 10
85.375
 20
370.0
 30
0.0
  0
POINT
  5
32B
330
31E
100
AcDbEntity
  8
DEFPOINTS
 62
     0
100
AcDbPoint
 10
85.375
 20
364.9524839860828
 30
0.0
  0
ENDBLK
  5
320
330
31E
100
AcDbEntity
  8
0
100
AcDbBlockEnd
  0
BLOCK
  5
345
330
344
100
AcDbEntity
  8
0
100
AcDbBlockBegin
  2
*D20
 70
     1
 10
0.0
 20
0.0
 30
0.0
  3
*D20
  1
*D20
  0
LINE
  5
347
330
344
100
AcDbEntity
  8
COTES
 62
     0
100
AcDbLine
 10
-0.625
 20
369.375
 30
0.0
 11
-0.625
 21
337.2393711887293
 31
0.0
  0
LINE
  5
348
330
344
100
AcDbEntity
  8
COTES
 62
     0
100
AcDbLine
 10
171.375
 20
369.375
 30
0.0
 11
171.375
 21
337.2393711887293
 31
0.0
  0
LINE
  5
349
330
344
100
AcDbEntity
  8
COTES
 62
     0
100
AcDbLine
 10
1.875
 20
338.4893711887293
 30
0.0
 11
168.875
 21
338.4893711887293
 31
0.0
  0
SOLID
  5
34A
330
344
100
AcDbEntity
  8
COTES
 62
     0
100
AcDbTrace
 10
1.875
 20
338.9060378553959
 30
0.0
 11
1.875
 21
338.0727045220626
 31
0.0
 12
-0.625
 22
338.4893711887293
 32
0.0
 13
-0.625
 23
338.4893711887293
 33
0.0
  0
SOLID
  5
34B
330
344
100
AcDbEntity
  8
COTES
 62
     0
100
AcDbTrace
 10
168.875
 20
338.0727045220626
 30
0.0
 11
168.875
 21
338.9060378553959
 31
0.0
 12
171.375
 22
338.4893711887293
 32
0.0
 13
171.375
 23
338.4893711887293
 33
0.0
  0
MTEXT
  5
34C
330
344
100
AcDbEntity
  8
COTES
 62
     0
100
AcDbMText
 10
85.375
 20
341.6143711887293
 30
0.0
 40
5.0
 41
0.0
 71
     5
 72
     1
  1
172
  0
POINT
  5
34D
330
344
100
AcDbEntity
  8
DEFPOINTS
 62
     0
100
AcDbPoint
 10
-0.625
 20
370.0
 30
0.0
  0
POINT
  5
34E
330
344
100
AcDbEntity
  8
DEFPOINTS
 62
     0
100
AcDbPoint
 10
171.375
 20
370.0
 30
0.0
  0
POINT
  5
34F
330
344
100
AcDbEntity
  8
DEFPOINTS
 62
     0
100
AcDbPoint
 10
171.375
 20
338.4893711887293
 30
0.0
  0
ENDBLK
  5
346
330
344
100
AcDbEntity
  8
0
100
AcDbBlockEnd
  0
BLOCK
  5
354
330
353
100
AcDbEntity
  8
0
100
AcDbBlockBegin
  2
*D21
 70
     1
 10
0.0
 20
0.0
 30
0.0
  3
*D21
  1
*D21
  0
LINE
  5
356
330
353
100
AcDbEntity
  8
COTES
 62
     0
100
AcDbLine
 10
5.375
 20
369.590292605101
 30
0.0
 11
5.375
 21
347.0725334511878
 31
0.0
  0
LINE
  5
357
330
353
100
AcDbEntity
  8
COTES
 62
     0
100
AcDbLine
 10
165.375
 20
369.590292605101
 30
0.0
 11
165.375
 21
347.0725334511878
 31
0.0
  0
LINE
  5
358
330
353
100
AcDbEntity
  8
COTES
 62
     0
100
AcDbLine
 10
7.875
 20
348.3225334511878
 30
0.0
 11
162.875
 21
348.3225334511878
 31
0.0
  0
SOLID
  5
359
330
353
100
AcDbEntity
  8
COTES
 62
     0
100
AcDbTrace
 10
7.875
 20
348.7392001178545
 30
0.0
 11
7.875
 21
347.9058667845211
 31
0.0
 12
5.375
 22
348.3225334511878
 32
0.0
 13
5.375
 23
348.3225334511878
 33
0.0
  0
SOLID
  5
35A
330
353
100
AcDbEntity
  8
COTES
 62
     0
100
AcDbTrace
 10
162.875
 20
347.9058667845211
 30
0.0
 11
162.875
 21
348.7392001178545
 31
0.0
 12
165.375
 22
348.3225334511878
 32
0.0
 13
165.375
 23
348.3225334511878
 33
0.0
  0
MTEXT
  5
35B
330
353
100
AcDbEntity
  8
COTES
 62
     0
100
AcDbMText
 10
85.375
 20
351.4900334511878
 30
0.0
 40
5.0
 41
0.0
 71
     5
 72
     1
  1
160
  0
POINT
  5
35C
330
353
100
AcDbEntity
  8
DEFPOINTS
 62
     0
100
AcDbPoint
 10
5.375
 20
370.215292605101
 30
0.0
  0
POINT
  5
35D
330
353
100
AcDbEntity
  8
DEFPOINTS
 62
     0
100
AcDbPoint
 10
165.375
 20
370.215292605101
 30
0.0
  0
POINT
  5
35E
330
353
100
AcDbEntity
  8
DEFPOINTS
 62
     0
100
AcDbPoint
 10
165.375
 20
348.3225334511878
 30
0.0
  0
ENDBLK
  5
355
330
353
100
AcDbEntity
  8
0
100
AcDbBlockEnd
  0
BLOCK
  5
363
330
362
100
AcDbEntity
  8
0
100
AcDbBlockBegin
  2
*D22
 70
     1
 10
0.0
 20
0.0
 30
0.0
  3
*D22
  1
*D22
  0
LINE
  5
365
330
362
100
AcDbEntity
  8
COTES
 62
     0
100
AcDbLine
 10
172.0
 20
370.0
 30
0.0
 11
195.2944114664833
 21
370.0
 31
0.0
  0
LINE
  5
366
330
362
100
AcDbEntity
  8
COTES
 62
     0
100
AcDbLine
 10
172.0
 20
409.9999999999999
 30
0.0
 11
195.2944114664833
 21
409.9999999999999
 31
0.0
  0
LINE
  5
367
330
362
100
AcDbEntity
  8
COTES
 62
     0
100
AcDbLine
 10
194.0444114664833
 20
372.5
 30
0.0
 11
194.0444114664833
 21
386.8324999999999
 31
0.0
  0
LINE
  5
368
330
362
100
AcDbEntity
  8
COTES
 62
     0
100
AcDbLine
 10
194.0444114664833
 20
407.4999999999999
 30
0.0
 11
194.0444114664833
 21
393.1675
 31
0.0
  0
SOLID
  5
369
330
362
100
AcDbEntity
  8
COTES
 62
     0
100
AcDbTrace
 10
193.6277447998166
 20
372.5
 30
0.0
 11
194.46107813315
 21
372.5
 31
0.0
 12
194.0444114664833
 22
370.0
 32
0.0
 13
194.0444114664833
 23
370.0
 33
0.0
  0
SOLID
  5
36A
330
362
100
AcDbEntity
  8
COTES
 62
     0
100
AcDbTrace
 10
194.46107813315
 20
407.4999999999999
 30
0.0
 11
193.6277447998166
 21
407.4999999999999
 31
0.0
 12
194.0444114664833
 22
409.9999999999999
 32
0.0
 13
194.0444114664833
 23
409.9999999999999
 33
0.0
  0
MTEXT
  5
36B
330
362
100
AcDbEntity
  8
COTES
 62
     0
100
AcDbMText
 10
194.0444114664833
 20
389.9999999999999
 30
0.0
 40
5.0
 41
0.0
 71
     5
 72
     1
  1
40
  0
POINT
  5
36C
330
362
100
AcDbEntity
  8
DEFPOINTS
 62
     0
100
AcDbPoint
 10
171.375
 20
370.0
 30
0.0
  0
POINT
  5
36D
330
362
100
AcDbEntity
  8
DEFPOINTS
 62
     0
100
AcDbPoint
 10
171.375
 20
409.9999999999999
 30
0.0
  0
POINT
  5
36E
330
362
100
AcDbEntity
  8
DEFPOINTS
 62
     0
100
AcDbPoint
 10
194.0444114664833
 20
409.9999999999999
 30
0.0
  0
ENDBLK
  5
364
330
362
100
AcDbEntity
  8
0
100
AcDbBlockEnd
  0
BLOCK
  5
373
330
372
100
AcDbEntity
  8
0
100
AcDbBlockBegin
  2
*D23
 70
     1
 10
0.0
 20
0.0
 30
0.0
  3
*D23
  1
*D23
  0
LINE
  5
375
330
372
100
AcDbEntity
  8
COTES
 62
     0
100
AcDbLine
 10
166.0
 20
376.000292605101
 30
0.0
 11
183.1419900863613
 21
376.000292605101
 31
0.0
  0
LINE
  5
376
330
372
100
AcDbEntity
  8
COTES
 62
     0
100
AcDbLine
 10
166.0
 20
403.9999999999999
 30
0.0
 11
183.1419900863613
 21
403.9999999999999
 31
0.0
  0
LINE
  5
377
330
372
100
AcDbEntity
  8
COTES
 62
     0
100
AcDbLine
 10
181.8919900863613
 20
378.500292605101
 30
0.0
 11
181.8919900863613
 21
386.8326463025504
 31
0.0
  0
LINE
  5
378
330
372
100
AcDbEntity
  8
COTES
 62
     0
100
AcDbLine
 10
181.8919900863613
 20
401.4999999999999
 30
0.0
 11
181.8919900863613
 21
393.1676463025505
 31
0.0
  0
SOLID
  5
379
330
372
100
AcDbEntity
  8
COTES
 62
     0
100
AcDbTrace
 10
181.4753234196947
 20
378.500292605101
 30
0.0
 11
182.308656753028
 21
378.500292605101
 31
0.0
 12
181.8919900863613
 22
376.000292605101
 32
0.0
 13
181.8919900863613
 23
376.000292605101
 33
0.0
  0
SOLID
  5
37A
330
372
100
AcDbEntity
  8
COTES
 62
     0
100
AcDbTrace
 10
182.308656753028
 20
401.4999999999999
 30
0.0
 11
181.4753234196947
 21
401.4999999999999
 31
0.0
 12
181.8919900863613
 22
403.9999999999999
 32
0.0
 13
181.8919900863613
 23
403.9999999999999
 33
0.0
  0
MTEXT
  5
37B
330
372
100
AcDbEntity
  8
COTES
 62
     0
100
AcDbMText
 10
181.8919900863613
 20
390.0001463025504
 30
0.0
 40
5.0
 41
0.0
 71
     5
 72
     1
  1
28
  0
POINT
  5
37C
330
372
100
AcDbEntity
  8
DEFPOINTS
 62
     0
100
AcDbPoint
 10
165.375
 20
376.000292605101
 30
0.0
  0
POINT
  5
37D
330
372
100
AcDbEntity
  8
DEFPOINTS
 62
     0
100
AcDbPoint
 10
165.375
 20
403.9999999999999
 30
0.0
  0
POINT
  5
37E
330
372
100
AcDbEntity
  8
DEFPOINTS
 62
     0
100
AcDbPoint
 10
181.8919900863613
 20
403.9999999999999
 30
0.0
  0
ENDBLK
  5
374
330
372
100
AcDbEntity
  8
0
100
AcDbBlockEnd
  0
BLOCK
  5
38A
330
389
100
AcDbEntity
  8
0
100
AcDbBlockBegin
  2
*D24
 70
     1
 10
0.0
 20
0.0
 30
0.0
  3
*D24
  1
*D24
  0
LINE
  5
38C
330
389
100
AcDbEntity
  8
COTES
 62
     0
100
AcDbLine
 10
85.375
 20
370.625
 30
0.0
 11
85.375
 21
383.4880364487819
 31
0.0
  0
LINE
  5
38D
330
389
100
AcDbEntity
  8
COTES
 62
     0
100
AcDbLine
 10
117.375
 20
376.7201023269671
 30
0.0
 11
117.375
 21
383.4880364487819
 31
0.0
  0
LINE
  5
38E
330
389
100
AcDbEntity
  8
COTES
 62
     0
100
AcDbLine
 10
87.875
 20
382.2380364487819
 30
0.0
 11
114.875
 21
382.2380364487819
 31
0.0
  0
SOLID
  5
38F
330
389
100
AcDbEntity
  8
COTES
 62
     0
100
AcDbTrace
 10
87.875
 20
382.6547031154486
 30
0.0
 11
87.875
 21
381.8213697821153
 31
0.0
 12
85.375
 22
382.2380364487819
 32
0.0
 13
85.375
 23
382.2380364487819
 33
0.0
  0
SOLID
  5
390
330
389
100
AcDbEntity
  8
COTES
 62
     0
100
AcDbTrace
 10
114.875
 20
381.8213697821153
 30
0.0
 11
114.875
 21
382.6547031154486
 31
0.0
 12
117.375
 22
382.2380364487819
 32
0.0
 13
117.375
 23
382.2380364487819
 33
0.0
  0
MTEXT
  5
391
330
389
100
AcDbEntity
  8
COTES
 62
     0
100
AcDbMText
 10
101.375
 20
385.405536448782
 30
0.0
 40
5.0
 41
0.0
 71
     5
 72
     1
  1
32
  0
POINT
  5
392
330
389
100
AcDbEntity
  8
DEFPOINTS
 62
     0
100
AcDbPoint
 10
85.375
 20
370.0
 30
0.0
  0
POINT
  5
393
330
389
100
AcDbEntity
  8
DEFPOINTS
 62
     0
100
AcDbPoint
 10
117.375
 20
376.0951023269671
 30
0.0
  0
POINT
  5
394
330
389
100
AcDbEntity
  8
DEFPOINTS
 62
     0
100
AcDbPoint
 10
117.375
 20
382.2380364487819
 30
0.0
  0
ENDBLK
  5
38B
330
389
100
AcDbEntity
  8
0
100
AcDbBlockEnd
  0
BLOCK
  5
399
330
398
100
AcDbEntity
  8
0
100
AcDbBlockBegin
  2
*D25
 70
     1
 10
0.0
 20
0.0
 30
0.0
  3
*D25
  1
*D25
  0
LINE
  5
39B
330
398
100
AcDbEntity
  8
COTES
 62
     0
100
AcDbLine
 10
126.0
 20
370.0
 30
0.0
 11
133.4501466216718
 21
370.0
 31
0.0
  0
LINE
  5
39C
330
398
100
AcDbEntity
  8
COTES
 62
     0
100
AcDbLine
 10
118.0
 20
375.9951023269671
 30
0.0
 11
133.4501466216718
 21
375.9951023269671
 31
0.0
  0
LINE
  5
39D
330
398
100
AcDbEntity
  8
COTES
 62
     0
100
AcDbLine
 10
132.2001466216718
 20
370.0
 30
0.0
 11
132.2001466216718
 21
375.9951023269671
 31
0.0
  0
LINE
  5
39E
330
398
100
AcDbEntity
  8
COTES
 62
     0
100
AcDbLine
 10
132.2001466216718
 20
367.5
 30
0.0
 11
132.2001466216718
 21
365.0
 31
0.0
  0
LINE
  5
39F
330
398
100
AcDbEntity
  8
COTES
 62
     0
100
AcDbLine
 10
132.2001466216718
 20
378.4951023269671
 30
0.0
 11
132.2001466216718
 21
380.9951023269671
 31
0.0
  0
SOLID
  5
3A0
330
398
100
AcDbEntity
  8
COTES
 62
     0
100
AcDbTrace
 10
132.6168132883384
 20
367.5
 30
0.0
 11
131.7834799550051
 21
367.5
 31
0.0
 12
132.2001466216718
 22
370.0
 32
0.0
 13
132.2001466216718
 23
370.0
 33
0.0
  0
SOLID
  5
3A1
330
398
100
AcDbEntity
  8
COTES
 62
     0
100
AcDbTrace
 10
131.7834799550051
 20
378.4951023269671
 30
0.0
 11
132.6168132883384
 21
378.4951023269671
 31
0.0
 12
132.2001466216718
 22
375.9951023269671
 32
0.0
 13
132.2001466216718
 23
375.9951023269671
 33
0.0
  0
MTEXT
  5
3A2
330
398
100
AcDbEntity
  8
COTES
 62
     0
100
AcDbMText
 10
136.9318834081832
 20
372.9975511634835
 30
0.0
 40
5.0
 41
0.0
 71
     5
 72
     1
  1
6
  0
POINT
  5
3A3
330
398
100
AcDbEntity
  8
DEFPOINTS
 62
     0
100
AcDbPoint
 10
125.375
 20
370.0
 30
0.0
  0
POINT
  5
3A4
330
398
100
AcDbEntity
  8
DEFPOINTS
 62
     0
100
AcDbPoint
 10
117.375
 20
375.9951023269671
 30
0.0
  0
POINT
  5
3A5
330
398
100
AcDbEntity
  8
DEFPOINTS
 62
     0
100
AcDbPoint
 10
132.2001466216718
 20
375.9951023269671
 30
0.0
  0
ENDBLK
  5
39A
330
398
100
AcDbEntity
  8
0
100
AcDbBlockEnd
  0
BLOCK
  5
3AD
330
3AC
100
AcDbEntity
  8
0
100
AcDbBlockBegin
  2
*D26
 70
     1
 10
0.0
 20
0.0
 30
0.0
  3
*D26
  1
*D26
  0
LINE
  5
3AF
330
3AC
100
AcDbEntity
  8
COTES
 62
     0
100
AcDbLine
 10
120.6627317023289
 20
156.1186684592334
 30
0.0
 11
130.7830243968946
 21
141.8417753876888
 31
0.0
  0
MTEXT
  5
3B0
330
3AC
100
AcDbEntity
  8
COTES
 62
     0
100
AcDbMText
 10
137.735836480759
 20
133.002703879295
 30
0.0
 40
5.0
 41
0.0
 71
     5
 72
     1
  1
%%c20
  0
LINE
  5
3B1
330
3AC
100
AcDbEntity
  8
COTES
 62
     0
100
AcDbLine
 10
130.7830243968946
 20
141.8417753876888
 30
0.0
 11
119.2169756031052
 21
158.1582246123112
 31
0.0
  0
SOLID
  5
3B2
330
3AC
100
AcDbEntity
  8
COTES
 62
     0
100
AcDbTrace
 10
128.9973422721579
 20
143.6403721908959
 30
0.0
 11
129.6771943231839
 21
144.1222908906372
 31
0.0
 12
130.7830243968946
 22
141.8417753876888
 32
0.0
 13
130.7830243968946
 23
141.8417753876888
 33
0.0
  0
SOLID
  5
3B3
330
3AC
100
AcDbEntity
  8
COTES
 62
     0
100
AcDbTrace
 10
121.0026577278419
 20
156.3596278091041
 30
0.0
 11
120.3228056768159
 21
155.8777091093628
 31
0.0
 12
119.2169756031052
 22
158.1582246123112
 32
0.0
 13
119.2169756031052
 23
158.1582246123112
 33
0.0
  0
POINT
  5
3B4
330
3AC
100
AcDbEntity
  8
DEFPOINTS
 62
     0
100
AcDbPoint
 10
119.2169756031052
 20
158.1582246123112
 30
0.0
  0
POINT
  5
3B5
330
3AC
100
AcDbEntity
  8
DEFPOINTS
 62
     0
100
AcDbPoint
 10
130.7830243968946
 20
141.8417753876888
 30
0.0
  0
ENDBLK
  5
3AE
330
3AC
100
AcDbEntity
  8
0
100
AcDbBlockEnd
  0
BLOCK
  5
3BA
330
3B9
100
AcDbEntity
  8
0
100
AcDbBlockBegin
  2
*D27
 70
     1
 10
0.0
 20
0.0
 30
0.0
  3
*D27
  1
*D27
  0
LINE
  5
3BC
330
3B9
100
AcDbEntity
  8
COTES
 62
     0
100
AcDbLine
 10
289.7521498482702
 20
48.49109808916712
 30
0.0
 11
300.9154639320395
 21
67.22493551710178
 31
0.0
  0
LINE
  5
3BD
330
3B9
100
AcDbEntity
  8
COTES
 62
     0
100
AcDbLine
 10
282.8797778939632
 20
52.58627863728156
 30
0.0
 11
294.0430919777324
 21
71.32011606521623
 31
0.0
  0
LINE
  5
3BE
330
3B9
100
AcDbEntity
  8
COTES
 62
     0
100
AcDbLine
 10
300.2755919713966
 20
66.15112739924132
 30
0.0
 11
299.0994059942431
 21
66.85200534453143
 31
0.0
  0
LINE
  5
3BF
330
3B9
100
AcDbEntity
  8
COTES
 62
     0
100
AcDbLine
 10
293.4032200170896
 20
70.24630794735576
 30
0.0
 11
294.5794059942431
 21
69.54543000206566
 31
0.0
  0
LINE
  5
3C0
330
3B9
100
AcDbEntity
  8
COTES
 62
     0
100
AcDbLine
 10
302.4232082071175
 20
64.87138347795556
 30
0.0
 11
304.5708244428384
 21
63.5916395566698
 31
0.0
  0
LINE
  5
3C1
330
3B9
100
AcDbEntity
  8
COTES
 62
     0
100
AcDbLine
 10
291.2556037813686
 20
71.52605186864152
 30
0.0
 11
289.1079875456477
 21
72.80579578992727
 31
0.0
  0
SOLID
  5
3C2
330
3B9
100
AcDbEntity
  8
COTES
 62
     0
100
AcDbTrace
 10
302.6364988606651
 20
65.22931951724239
 30
0.0
 11
302.2099175535699
 21
64.51344743866873
 31
0.0
 12
300.2755919713966
 22
66.15112739924132
 32
0.0
 13
300.2755919713966
 23
66.15112739924132
 33
0.0
  0
SOLID
  5
3C3
330
3B9
100
AcDbEntity
  8
COTES
 62
     0
100
AcDbTrace
 10
291.042313127821
 20
71.16811582935469
 30
0.0
 11
291.4688944349163
 21
71.88398790792834
 31
0.0
 12
293.4032200170896
 22
70.24630794735576
 32
0.0
 13
293.4032200170896
 23
70.24630794735576
 33
0.0
  0
MTEXT
  5
3C4
330
3B9
100
AcDbEntity
  8
COTES
 62
     0
100
AcDbMText
 10
296.8394059942431
 20
68.19871767329855
 30
0.0
 40
5.0
 41
0.0
 71
     5
 72
     1
  1
8
  0
POINT
  5
3C5
330
3B9
100
AcDbEntity
  8
DEFPOINTS
 62
     0
100
AcDbPoint
 10
289.4322138679488
 20
47.95419403023689
 30
0.0
  0
POINT
  5
3C6
330
3B9
100
AcDbEntity
  8
DEFPOINTS
 62
     0
100
AcDbPoint
 10
282.5598419136418
 20
52.04937457835133
 30
0.0
  0
POINT
  5
3C7
330
3B9
100
AcDbEntity
  8
DEFPOINTS
 62
     0
100
AcDbPoint
 10
293.4032200170896
 20
70.24630794735576
 30
0.0
  0
ENDBLK
  5
3BB
330
3B9
100
AcDbEntity
  8
0
100
AcDbBlockEnd
  0
ENDSEC
  0
SECTION
  2
ENTITIES
  0
LWPOLYLINE
  5
B8
330
1F
100
AcDbEntity
  8
0
100
AcDbPolyline
 90
        4
 70
     1
 43
0.0
 10
0.0
 20
0.0
 10
0.0
 20
320.0
 10
370.0
 20
320.0
 10
370.0
 20
0.0
  0
LWPOLYLINE
  5
BB
330
1F
100
AcDbEntity
  8
0
100
AcDbPolyline
 90
        4
 70
     1
 43
0.0
 10
16.0
 20
249.5
 10
16.0
 20
125.5
 10
115.9999999999999
 20
125.5
 10
115.9999999999999
 20
249.5
  0
LWPOLYLINE
  5
BD
330
1F
100
AcDbEntity
  8
AXES
100
AcDbPolyline
 90
        4
 70
     1
 43
0.0
 10
20.0
 20
245.0
 10
20.0
 20
130.0
 10
111.9999999999999
 20
130.0
 10
111.9999999999999
 20
245.0
  0
DIMENSION
  5
C5
330
1F
100
AcDbEntity
  8
COTES
100
AcDbDimension
  2
*D1
 10
20.0
 20
115.1213833321535
 30
0.0
 11
10.0
 21
118.2988833321535
 31
0.0
 70
    32
  3
ISO-25
100
AcDbAlignedDimension
 13
0.0
 23
319.5
 33
0.0
 14
20.0
 24
130.0
 34
0.0
100
AcDbRotatedDimension
  0
DIMENSION
  5
D8
330
1F
100
AcDbEntity
  8
COTES
100
AcDbDimension
  2
*D2
 10
111.9999999999999
 20
115.1213833321535
 30
0.0
 11
65.99999999999994
 21
118.2988833321535
 31
0.0
 70
    32
  3
ISO-25
100
AcDbAlignedDimension
 13
20.0
 23
130.0
 33
0.0
 14
111.9999999999999
 24
130.0
 34
0.0
100
AcDbRotatedDimension
  0
DIMENSION
  5
E7
330
1F
100
AcDbEntity
  8
COTES
100
AcDbDimension
  2
*D3
 10
-14.57880612244897
 20
320.0
 30
0.0
 11
-14.57880612244897
 21
282.5
 31
0.0
 70
    32
  3
ISO-25
100
AcDbAlignedDimension
 13
20.0
 23
245.0
 33
0.0
 14
0.0
 24
320.0
 34
0.0
 50
90.0
100
AcDbRotatedDimension
1001
ACAD
1000
DSTYLE
1002
{
1070
   287
1070
     5
1070
   147
1040
0.615
1070
    73
1070
     1
1070
   279
1070
     2
1070
    74
1070
     1
1002
}
  0
DIMENSION
  5
F7
330
1F
100
AcDbEntity
  8
COTES
100
AcDbDimension
  2
*D4
 10
-14.57880612244897
 20
245.0
 30
0.0
 11
-14.57880612244897
 21
187.5
 31
0.0
 70
    32
  3
ISO-25
100
AcDbAlignedDimension
 13
20.0
 23
130.0
 33
0.0
 14
19.375
 24
245.0
 34
0.0
 50
90.0
100
AcDbRotatedDimension
1001
ACAD
1000
DSTYLE
1002
{
1070
   287
1070
     5
1070
   147
1040
0.615
1070
    73
1070
     1
1070
   279
1070
     2
1070
    74
1070
     1
1002
}
  0
LINE
  5
106
330
1F
100
AcDbEntity
  8
0
100
AcDbLine
 10
16.0
 20
249.5
 30
0.0
 11
31.0
 21
249.5
 31
0.0
  0
LINE
  5
108
330
1F
100
AcDbEntity
  8
0
100
AcDbLine
 10
16.0
 20
249.5
 30
0.0
 11
68.0
 21
249.5
 31
0.0
  0
LINE
  5
10A
330
1F
100
AcDbEntity
  8
0
100
AcDbLine
 10
0.0
 20
320.125
 30
0.0
 11
0.0
 21
305.125
 31
0.0
  0
LINE
  5
177
330
1F
100
AcDbEntity
  8
AXES
100
AcDbLine
 10
111.4190884675915
 20
150.0
 30
0.0
 11
134.5809115324083
 21
150.0
 31
0.0
  0
LINE
  5
17A
330
1F
100
AcDbEntity
  8
0
100
AcDbLine
 10
115.9999999999999
 20
190.0
 30
0.0
 11
115.9999999999999
 21
190.0
 31
0.0
  0
LINE
  5
17B
330
1F
100
AcDbEntity
  8
AXES
100
AcDbLine
 10
112.6216718333327
 20
190.0
 30
0.0
 11
133.378328166667
 21
190.0
 31
0.0
  0
LINE
  5
17E
330
1F
100
AcDbEntity
  8
AXES
100
AcDbLine
 10
124.9999999999999
 20
235.625
 30
0.0
 11
124.9999999999999
 21
142.0996125301113
 31
0.0
  0
CIRCLE
  5
17F
330
1F
100
AcDbEntity
  8
0
100
AcDbCircle
 10
124.9999999999999
 20
190.0
 30
0.0
 40
10.0
  0
CIRCLE
  5
180
102
{ACAD_REACTORS
102
}
330
1F
100
AcDbEntity
  8
0
100
AcDbCircle
 10
124.9999999999999
 20
150.0
 30
0.0
 40
10.0
  0
DIMENSION
  5
190
330
1F
100
AcDbEntity
  8
COTES
100
AcDbDimension
  2
*D7
 10
124.9999999999999
 20
274.5649512975484
 30
0.0
 11
62.49999999999994
 21
277.7324512975484
 31
0.0
 70
    32
  3
ISO-25
100
AcDbAlignedDimension
 13
0.0
 23
320.625
 33
0.0
 14
124.9999999999999
 24
235.0
 34
0.0
100
AcDbRotatedDimension
1001
ACAD
1000
DSTYLE
1002
{
1070
   287
1070
     5
1070
   147
1040
0.615
1070
    73
1070
     1
1070
   279
1070
     2
1070
    74
1070
     1
1002
}
  0
DIMENSION
  5
19F
330
1F
100
AcDbEntity
  8
COTES
100
AcDbDimension
  2
*D8
 10
149.8646820652951
 20
320.0
 30
0.0
 11
149.8646820652951
 21
289.08375
 31
0.0
 70
   160
  3
ISO-25
100
AcDbAlignedDimension
 13
124.9999999999999
 23
190.0
 33
0.0
 14
0.0
 24
320.0
 34
0.0
 50
90.0
100
AcDbRotatedDimension
1001
ACAD
1000
DSTYLE
1002
{
1070
   287
1070
     5
1070
   147
1040
0.615
1070
    73
1070
     1
1070
   279
1070
     2
1070
    74
1070
     1
1002
}
  0
DIMENSION
  5
1AE
330
1F
100
AcDbEntity
  8
COTES
100
AcDbDimension
  2
*D9
 10
159.0584270579593
 20
150.0
 30
0.0
 11
159.0584270579593
 21
278.500441844394
 31
0.0
 70
   160
  3
ISO-25
100
AcDbAlignedDimension
 13
0.625
 23
320.0
 33
0.0
 14
124.9999999999999
 24
150.0
 34
0.0
 50
90.0
100
AcDbRotatedDimension
1001
ACAD
1000
DSTYLE
1002
{
1070
   287
1070
     5
1070
   147
1040
0.615
1070
    73
1070
     1
1070
   279
1070
     2
1070
    74
1070
     1
1002
}
  0
CIRCLE
  5
1E7
330
1F
100
AcDbEntity
  8
AXES
100
AcDbCircle
 10
265.0
 20
215.0
 30
0.0
 40
100.0
  0
LINE
  5
1EA
330
1F
100
AcDbEntity
  8
0
100
AcDbLine
 10
283.0
 20
0.0
 30
0.0
 11
370.0
 21
146.0
 31
0.0
  0
LINE
  5
1EB
330
1F
100
AcDbEntity
  8
0
100
AcDbLine
 10
87.0
 20
0.0
 30
0.0
 11
0.0
 21
146.0
 31
0.0
  0
LINE
  5
1ED
330
1F
100
AcDbEntity
  8
AXES
100
AcDbLine
 10
255.0
 20
215.0
 30
0.0
 11
275.0
 21
215.0
 31
0.0
  0
LINE
  5
1EE
330
1F
100
AcDbEntity
  8
AXES
100
AcDbLine
 10
275.0
 20
215.0
 30
0.0
 11
255.0
 21
215.0
 31
0.0
  0
LINE
  5
1EF
330
1F
100
AcDbEntity
  8
AXES
100
AcDbLine
 10
265.0
 20
225.0
 30
0.0
 11
265.0
 21
205.0
 31
0.0
  0
DIMENSION
  5
1F0
330
1F
100
AcDbEntity
  8
COTES
100
AcDbDimension
  2
*D11
 10
370.0
 20
247.7083833268996
 30
0.0
 11
317.5
 21
250.8758833268996
 31
0.0
 70
    32
  3
ISO-25
100
AcDbAlignedDimension
 13
265.0
 23
215.0
 33
0.0
 14
370.0
 24
180.0
 34
0.0
100
AcDbRotatedDimension
1001
ACAD
1000
DSTYLE
1002
{
1070
   287
1070
     5
1070
   147
1040
0.615
1070
    73
1070
     1
1070
   279
1070
     2
1070
    74
1070
     1
1002
}
  0
DIMENSION
  5
1FF
330
1F
100
AcDbEntity
  8
COTES
100
AcDbDimension
  2
*D12
 10
238.1060607946468
 20
320.0
 30
0.0
 11
238.1060607946468
 21
267.5
 31
0.0
 70
    32
  3
ISO-25
100
AcDbAlignedDimension
 13
265.0
 23
215.0
 33
0.0
 14
265.0
 24
320.0
 34
0.0
 50
90.0
100
AcDbRotatedDimension
1001
ACAD
1000
DSTYLE
1002
{
1070
   287
1070
     5
1070
   147
1040
0.615
1070
    73
1070
     1
1070
   279
1070
     2
1070
    74
1070
     1
1002
}
  0
LINE
  5
258
330
1F
100
AcDbEntity
  8
COTES
100
AcDbLine
 10
267.5371631028093
 20
9.214156233257476
 30
0.0
 11
354.5371631028093
 21
155.2141562332575
 31
0.0
  0
LINE
  5
259
330
1F
100
AcDbEntity
  8
COTES
100
AcDbLine
 10
102.4628368971907
 20
9.214156233257476
 30
0.0
 11
10.46283689719071
 21
160.2141562332575
 31
0.0
  0
ARC
  5
25E
330
1F
100
AcDbEntity
  8
0
100
AcDbCircle
 10
283.4365400482238
 20
45.70655183285225
 30
0.0
 40
4.0
100
AcDbArc
 50
149.2096913119949
 51
329.2096913119948
  0
ARC
  5
260
330
1F
100
AcDbEntity
  8
0
100
AcDbCircle
 10
288.5555157333668
 20
54.29701677573597
 30
0.0
 40
4.0
100
AcDbArc
 50
329.2096913119948
 51
149.2096913119949
  0
LINE
  5
261
102
{ACAD_REACTORS
102
}
330
1F
100
AcDbEntity
  8
0
100
AcDbLine
 10
280.0003540710703
 20
47.75414210690947
 30
0.0
 11
285.1193297562133
 21
56.34460704979318
 31
0.0
  0
LINE
  5
262
102
{ACAD_REACTORS
102
}
330
1F
100
AcDbEntity
  8
0
100
AcDbLine
 10
286.8727260253773
 20
43.65896155879503
 30
0.0
 11
291.9917017105203
 21
52.24942650167876
 31
0.0
  0
LINE
  5
263
330
1F
100
AcDbEntity
  8
AXES
100
AcDbLine
 10
285.1193297562133
 20
56.34460704979318
 30
0.0
 11
291.9917017105203
 21
52.24942650167877
 31
0.0
  0
LINE
  5
264
330
1F
100
AcDbEntity
  8
AXES
100
AcDbLine
 10
280.0003540710703
 20
47.75414210690947
 30
0.0
 11
286.8727260253773
 21
43.65896155879503
 31
0.0
  0
LINE
  5
265
330
1F
100
AcDbEntity
  8
AXES
100
AcDbLine
 10
281.3889497741666
 20
42.27036585569875
 30
0.0
 11
290.603106007424
 21
57.73320275288947
 31
0.0
  0
DIMENSION
  5
266
330
1F
100
AcDbEntity
  8
COTES
100
AcDbDimension
  2
*D13
 10
370.0
 20
74.26895237207108
 30
0.0
 11
327.9980139453976
 21
77.43645237207107
 31
0.0
 70
    32
  3
ISO-25
100
AcDbAlignedDimension
 13
285.9960278907953
 23
50.00178430429411
 33
0.0
 14
370.0
 24
50.00178430429412
 34
0.0
100
AcDbRotatedDimension
1001
ACAD
1000
DSTYLE
1002
{
1070
   287
1070
     5
1070
   147
1040
0.615
1070
    73
1070
     1
1070
   279
1070
     2
1070
    74
1070
     1
1002
}
  0
DIMENSION
  5
275
330
1F
100
AcDbEntity
  8
COTES
100
AcDbDimension
  2
*D14
 10
237.2121146102605
 20
0.000000000000003
 30
0.0
 11
237.2121146102605
 21
25.00089215214705
 31
0.0
 70
    32
  3
ISO-25
100
AcDbAlignedDimension
 13
285.9960278907953
 23
50.00178430429411
 33
0.0
 14
285.9960278907953
 24
0.0
 34
0.0
 50
90.0
100
AcDbRotatedDimension
1001
ACAD
1000
DSTYLE
1002
{
1070
   287
1070
     5
1070
   147
1040
0.615
1070
    73
1070
     1
1070
   279
1070
     2
1070
    74
1070
     1
1002
}
  0
CIRCLE
  5
2CE
330
1F
100
AcDbEntity
  8
0
100
AcDbCircle
 10
124.9999999999999
 20
225.0
 30
0.0
 40
10.0
  0
LINE
  5
2CF
330
1F
100
AcDbEntity
  8
AXES
100
AcDbLine
 10
112.6216718333327
 20
225.0
 30
0.0
 11
133.378328166667
 21
225.0
 31
0.0
  0
DIMENSION
  5
2D0
330
1F
100
AcDbEntity
  8
COTES
100
AcDbDimension
  2
*D15
 10
139.1300431795207
 20
320.0
 30
0.0
 11
139.1300431795207
 21
297.83375
 31
0.0
 70
   160
  3
ISO-25
100
AcDbAlignedDimension
 13
124.9999999999999
 23
225.0
 33
0.0
 14
1.25
 24
320.0
 34
0.0
 50
90.0
100
AcDbRotatedDimension
1001
ACAD
1000
DSTYLE
1002
{
1070
   287
1070
     5
1070
   147
1040
0.615
1070
    73
1070
     1
1070
   279
1070
     2
1070
    74
1070
     1
1002
}
  0
LWPOLYLINE
  5
2E1
102
{ACAD_REACTORS
102
}
330
1F
100
AcDbEntity
  8
0
100
AcDbPolyline
 90
        6
 70
     0
 43
0.0
 10
109.375
 20
370.0
 10
-0.625
 20
370.0
 10
-0.625
 20
409.9999999999999
 10
171.375
 20
409.9999999999999
 10
171.375
 20
370.0
 10
125.375
 20
370.0
  0
LINE
  5
2E2
102
{ACAD_REACTORS
102
}
330
1F
100
AcDbEntity
  8
AXES
 48
0.5
100
AcDbLine
 10
85.375
 20
409.9999999999999
 30
0.0
 11
85.375
 21
370.0
 31
0.0
  0
LINE
  5
2E3
330
1F
100
AcDbEntity
  8
0
100
AcDbLine
 10
85.375
 20
409.9999999999999
 30
0.0
 11
82.375
 21
409.9999999999999
 31
0.0
  0
LINE
  5
2E4
330
1F
100
AcDbEntity
  8
0
100
AcDbLine
 10
82.375
 20
409.9999999999999
 30
0.0
 11
82.375
 21
405.9999999999999
 31
0.0
  0
LINE
  5
2E5
102
{ACAD_REACTORS
102
}
330
1F
100
AcDbEntity
  8
AXES
100
AcDbLine
 10
82.375
 20
405.9999999999999
 30
0.0
 11
112.324294700593
 21
397.9975162020135
 31
0.0
  0
LINE
  5
2E6
102
{ACAD_REACTORS
102
}
330
1F
100
AcDbEntity
  8
AXES
100
AcDbLine
 10
82.375
 20
405.9999999999999
 30
0.0
 11
74.37251620201377
 21
376.0507052994067
 31
0.0
  0
DIMENSION
  5
2E9
102
{ACAD_REACTORS
102
}
102
{ACAD_XDICTIONARY
360
2EA
102
}
330
1F
100
AcDbEntity
  8
COTES
100
AcDbDimension
  2
*D16
 10
123.7900521976572
 20
405.9999999999999
 30
0.0
 11
123.7900521976572
 21
401.9987581010067
 31
0.0
 70
    32
  3
ISO-25
100
AcDbAlignedDimension
 13
112.324294700593
 23
397.9975162020135
 33
0.0
 14
82.375
 24
405.9999999999999
 34
0.0
 50
90.0
100
AcDbRotatedDimension
1001
ACAD
1000
DSTYLE
1002
{
1070
   287
1070
     5
1070
   147
1040
0.615
1070
    73
1070
     1
1070
   279
1070
     2
1070
    74
1070
     1
1002
}
  0
DIMENSION
  5
2FB
102
{ACAD_REACTORS
102
}
102
{ACAD_XDICTIONARY
360
2FC
102
}
330
1F
100
AcDbEntity
  8
COTES
100
AcDbDimension
  2
*D17
 10
116.4621896501662
 20
413.4835875785087
 30
0.0
 11
101.4875422998697
 21
417.4848294775019
 31
0.0
 70
    33
  3
ISO-25
100
AcDbAlignedDimension
 13
82.375
 23
405.9999999999999
 33
0.0
 14
112.324294700593
 24
397.9975162020135
 34
0.0
1001
ACAD
1000
DSTYLE
1002
{
1070
   287
1070
     5
1070
   147
1040
0.615
1070
    73
1070
     1
1070
   279
1070
     2
1070
    74
1070
     1
1002
}
  0
DIMENSION
  5
30B
102
{ACAD_REACTORS
102
}
102
{ACAD_XDICTIONARY
360
30C
102
}
330
1F
100
AcDbEntity
  8
COTES
100
AcDbDimension
  2
*D18
 10
67.69430526232519
 20
377.8351304546119
 30
0.0
 11
71.6955471613183
 21
392.8097778049085
 31
0.0
 70
    33
  3
ISO-25
100
AcDbAlignedDimension
 13
82.375
 23
405.9999999999999
 33
0.0
 14
74.37251620201377
 24
376.0507052994067
 34
0.0
1001
ACAD
1000
DSTYLE
1002
{
1070
   287
1070
     5
1070
   147
1040
0.615
1070
    73
1070
     1
1070
   279
1070
     2
1070
    74
1070
     1
1002
}
  0
DIMENSION
  5
31B
102
{ACAD_REACTORS
102
}
102
{ACAD_XDICTIONARY
360
31C
102
}
330
1F
100
AcDbEntity
  8
COTES
100
AcDbDimension
  2
*D19
 10
85.375
 20
364.9524839860828
 30
0.0
 11
83.875
 21
359.6114607002314
 31
0.0
 70
   160
  3
ISO-25
100
AcDbAlignedDimension
 13
82.375
 23
405.9999999999999
 33
0.0
 14
85.375
 24
370.0
 34
0.0
100
AcDbRotatedDimension
1001
ACAD
1000
DSTYLE
1002
{
1070
   287
1070
     5
1070
   147
1040
0.615
1070
    73
1070
     1
1070
   279
1070
     2
1070
    74
1070
     1
1002
}
  0
LINE
  5
32C
330
1F
100
AcDbEntity
  8
0
100
AcDbLine
 10
171.375
 20
409.9999999999999
 30
0.0
 11
165.375
 21
409.9999999999999
 31
0.0
  0
LINE
  5
32D
330
1F
100
AcDbEntity
  8
0
100
AcDbLine
 10
171.375
 20
409.9999999999999
 30
0.0
 11
165.375
 21
409.9999999999999
 31
0.0
  0
LINE
  5
32E
102
{ACAD_REACTORS
102
}
330
1F
100
AcDbEntity
  8
AXES
 48
0.5
100
AcDbLine
 10
165.375
 20
409.9999999999999
 30
0.0
 11
165.375
 21
370.215292605101
 31
0.0
  0
LINE
  5
32F
330
1F
100
AcDbEntity
  8
AXES
100
AcDbLine
 10
165.375
 20
409.9999999999999
 30
0.0
 11
165.375
 21
403.9999999999999
 31
0.0
  0
LINE
  5
330
330
1F
100
AcDbEntity
  8
AXES
100
AcDbLine
 10
165.375
 20
403.9999999999999
 30
0.0
 11
165.375
 21
403.9999999999999
 31
0.0
  0
LINE
  5
331
330
1F
100
AcDbEntity
  8
AXES
100
AcDbLine
 10
160.8432475133901
 20
403.9999999999999
 30
0.0
 11
169.9067524866099
 21
403.9999999999999
 31
0.0
  0
LINE
  5
332
330
1F
100
AcDbEntity
  8
AXES
100
AcDbLine
 10
160.8432475133901
 20
376.000292605101
 30
0.0
 11
169.9067524866099
 21
376.000292605101
 31
0.0
  0
CIRCLE
  5
333
330
1F
100
AcDbEntity
  8
0
100
AcDbCircle
 10
112.324294700593
 20
397.9975162020135
 30
0.0
 40
1.5
  0
CIRCLE
  5
334
330
1F
100
AcDbEntity
  8
0
100
AcDbCircle
 10
82.375
 20
405.9999999999999
 30
0.0
 40
1.6
  0
CIRCLE
  5
335
330
1F
100
AcDbEntity
  8
0
100
AcDbCircle
 10
74.37251620201377
 20
376.0507052994067
 30
0.0
 40
1.6
  0
CIRCLE
  5
336
330
1F
100
AcDbEntity
  8
0
100
AcDbCircle
 10
165.375
 20
403.9999999999999
 30
0.0
 40
1.5
  0
CIRCLE
  5
337
330
1F
100
AcDbEntity
  8
0
100
AcDbCircle
 10
165.375
 20
376.000292605101
 30
0.0
 40
1.5
  0
LINE
  5
338
330
1F
100
AcDbEntity
  8
0
100
AcDbLine
 10
-0.625
 20
409.9999999999999
 30
0.0
 11
5.375
 21
409.9999999999999
 31
0.0
  0
LINE
  5
339
330
1F
100
AcDbEntity
  8
0
100
AcDbLine
 10
-0.625
 20
409.9999999999999
 30
0.0
 11
5.375
 21
409.9999999999999
 31
0.0
  0
LINE
  5
33A
102
{ACAD_REACTORS
102
}
330
1F
100
AcDbEntity
  8
AXES
 48
0.5
100
AcDbLine
 10
5.375
 20
409.9999999999999
 30
0.0
 11
5.375
 21
370.215292605101
 31
0.0
  0
LINE
  5
33B
330
1F
100
AcDbEntity
  8
AXES
100
AcDbLine
 10
5.375
 20
409.9999999999999
 30
0.0
 11
5.375
 21
403.9999999999999
 31
0.0
  0
LINE
  5
33C
330
1F
100
AcDbEntity
  8
AXES
100
AcDbLine
 10
5.375
 20
403.9999999999999
 30
0.0
 11
5.375
 21
403.9999999999999
 31
0.0
  0
LINE
  5
33D
330
1F
100
AcDbEntity
  8
AXES
100
AcDbLine
 10
9.906752486609946
 20
403.9999999999999
 30
0.0
 11
0.8432475133900539
 21
403.9999999999999
 31
0.0
  0
CIRCLE
  5
33F
330
1F
100
AcDbEntity
  8
0
100
AcDbCircle
 10
5.375
 20
403.9999999999999
 30
0.0
 40
1.5
  0
DIMENSION
  5
341
102
{ACAD_REACTORS
102
}
102
{ACAD_XDICTIONARY
360
342
102
}
330
1F
100
AcDbEntity
  8
COTES
100
AcDbDimension
  2
*D20
 10
171.375
 20
338.4893711887293
 30
0.0
 11
85.375
 21
341.6143711887293
 31
0.0
 70
    32
  3
ISO-25
100
AcDbAlignedDimension
 13
-0.625
 23
370.0
 33
0.0
 14
171.375
 24
370.0
 34
0.0
100
AcDbRotatedDimension
1001
ACAD
1000
DSTYLE
1002
{
1070
   287
1070
     5
1070
   147
1040
0.615
1070
    73
1070
     1
1070
   279
1070
     2
1070
    74
1070
     1
1002
}
  0
DIMENSION
  5
350
102
{ACAD_REACTORS
102
}
102
{ACAD_XDICTIONARY
360
351
102
}
330
1F
100
AcDbEntity
  8
COTES
100
AcDbDimension
  2
*D21
 10
165.375
 20
348.3225334511878
 30
0.0
 11
85.375
 21
351.4900334511878
 31
0.0
 70
    32
  3
ISO-25
100
AcDbAlignedDimension
 13
5.375
 23
370.215292605101
 33
0.0
 14
165.375
 24
370.215292605101
 34
0.0
100
AcDbRotatedDimension
1001
ACAD
1000
DSTYLE
1002
{
1070
   287
1070
     5
1070
   147
1040
0.615
1070
    73
1070
     1
1070
   279
1070
     2
1070
    74
1070
     1
1002
}
  0
DIMENSION
  5
35F
102
{ACAD_REACTORS
102
}
102
{ACAD_XDICTIONARY
360
360
102
}
330
1F
100
AcDbEntity
  8
COTES
100
AcDbDimension
  2
*D22
 10
194.0444114664833
 20
409.9999999999999
 30
0.0
 11
194.0444114664833
 21
389.9999999999999
 31
0.0
 70
    32
  3
ISO-25
100
AcDbAlignedDimension
 13
171.375
 23
370.0
 33
0.0
 14
171.375
 24
409.9999999999999
 34
0.0
 50
90.0
100
AcDbRotatedDimension
1001
ACAD
1000
DSTYLE
1002
{
1070
   287
1070
     5
1070
   147
1040
0.615
1070
    73
1070
     1
1070
   279
1070
     2
1070
    74
1070
     1
1002
}
  0
DIMENSION
  5
36F
102
{ACAD_XDICTIONARY
360
370
102
}
330
1F
100
AcDbEntity
  8
COTES
100
AcDbDimension
  2
*D23
 10
181.8919900863613
 20
403.9999999999999
 30
0.0
 11
181.8919900863613
 21
390.0001463025504
 31
0.0
 70
    32
  3
ISO-25
100
AcDbAlignedDimension
 13
165.375
 23
376.000292605101
 33
0.0
 14
165.375
 24
403.9999999999999
 34
0.0
 50
90.0
100
AcDbRotatedDimension
1001
ACAD
1000
DSTYLE
1002
{
1070
   287
1070
     5
1070
   147
1040
0.615
1070
    73
1070
     1
1070
   279
1070
     2
1070
    74
1070
     1
1002
}
  0
LINE
  5
37F
330
1F
100
AcDbEntity
  8
AXES
100
AcDbLine
 10
9.906752486609946
 20
376.000292605101
 30
0.0
 11
0.8432475133900539
 21
376.000292605101
 31
0.0
  0
CIRCLE
  5
380
330
1F
100
AcDbEntity
  8
0
100
AcDbCircle
 10
5.375
 20
376.000292605101
 30
0.0
 40
1.5
  0
ARC
  5
385
330
1F
100
AcDbEntity
  8
0
100
AcDbCircle
 10
117.375
 20
367.6598607864473
 30
0.0
 40
8.335241540519805
100
AcDbArc
 50
16.30511646287376
 51
163.6948835371263
  0
DIMENSION
  5
386
102
{ACAD_REACTORS
102
}
102
{ACAD_XDICTIONARY
360
387
102
}
330
1F
100
AcDbEntity
  8
COTES
100
AcDbDimension
  2
*D24
 10
117.375
 20
382.2380364487819
 30
0.0
 11
101.375
 21
385.405536448782
 31
0.0
 70
    32
  3
ISO-25
100
AcDbAlignedDimension
 13
85.375
 23
370.0
 33
0.0
 14
117.375
 24
376.0951023269671
 34
0.0
100
AcDbRotatedDimension
1001
ACAD
1000
DSTYLE
1002
{
1070
   287
1070
     5
1070
   147
1040
0.615
1070
    73
1070
     1
1070
   279
1070
     2
1070
    74
1070
     1
1002
}
  0
DIMENSION
  5
395
102
{ACAD_REACTORS
102
}
102
{ACAD_XDICTIONARY
360
396
102
}
330
1F
100
AcDbEntity
  8
COTES
100
AcDbDimension
  2
*D25
 10
132.2001466216718
 20
375.9951023269671
 30
0.0
 11
136.9318834081832
 21
372.9975511634835
 31
0.0
 70
   160
  3
ISO-25
100
AcDbAlignedDimension
 13
125.375
 23
370.0
 33
0.0
 14
117.375
 24
375.9951023269671
 34
0.0
 50
90.0
100
AcDbRotatedDimension
1001
ACAD
1000
DSTYLE
1002
{
1070
   287
1070
     5
1070
   147
1040
0.615
1070
    73
1070
     1
1070
   279
1070
     2
1070
    74
1070
     1
1002
}
  0
MTEXT
  5
3A6
330
1F
100
AcDbEntity
  8
0
100
AcDbMText
 10
1.272961019083226
 20
436.8829481644091
 30
0.0
 40
5.0
 41
73.67405461698914
 71
     1
 72
     5
  1
{Extruder support lath\Pthickness 5mm}
1001
ACAD
1000
ACAD_MTEXT_DEFINED_HEIGHT_BEGIN
1070
    46
1040
13.41833333333333
1000
ACAD_MTEXT_DEFINED_HEIGHT_END
  0
DIMENSION
  5
3A9
102
{ACAD_REACTORS
102
}
102
{ACAD_XDICTIONARY
360
3AA
102
}
330
1F
100
AcDbEntity
  8
COTES
100
AcDbDimension
  2
*D26
 10
130.7830243968946
 20
141.8417753876888
 30
0.0
 11
137.735836480759
 21
133.002703879295
 31
0.0
 70
   163
  1
<>
  3
ISO-25
100
AcDbDiametricDimension
 15
119.2169756031052
 25
158.1582246123112
 35
0.0
 40
0.0
1001
ACAD
1000
DSTYLE
1002
{
1070
   287
1070
     5
1070
   147
1040
0.615
1070
    73
1070
     1
1070
   279
1070
     2
1070
    74
1070
     1
1002
}
1001
ACAD_DSTYLE_DIMRADIAL_EXTE
1070
   387
1070
     1
1070
   388
1040
0.0
1070
   390
1040
6.283185307179586
  0
DIMENSION
  5
3B6
102
{ACAD_REACTORS
102
}
102
{ACAD_XDICTIONARY
360
3B7
102
}
330
1F
100
AcDbEntity
  8
COTES
100
AcDbDimension
  2
*D27
 10
293.4032200170896
 20
70.24630794735576
 30
0.0
 11
296.8394059942431
 21
68.19871767329855
 31
0.0
 70
    33
  3
ISO-25
100
AcDbAlignedDimension
 13
289.4322138679488
 23
47.95419403023689
 33
0.0
 14
282.5598419136418
 24
52.04937457835133
 34
0.0
1001
ACAD
1000
DSTYLE
1002
{
1070
   287
1070
     5
1070
   147
1040
0.615
1070
    73
1070
     1
1070
   279
1070
     2
1070
    74
1070
     1
1002
}
  0
MTEXT
  5
3F1
330
1F
100
AcDbEntity
  8
0
100
AcDbMText
 10
29.06265005436538
 20
305.9199854801947
 30
0.0
 40
5.0
 41
73.67405461698914
 71
     1
 72
     5
  1
{Top plate holes and positions}
1001
ACAD
1000
ACAD_MTEXT_DEFINED_HEIGHT_BEGIN
1070
    46
1040
13.41333333333333
1000
ACAD_MTEXT_DEFINED_HEIGHT_END
  0
ENDSEC
  0
SECTION
  2
OBJECTS
  0
DICTIONARY
  5
C
330
0
100
AcDbDictionary
  3
ACAD_DETAILVIEWSTYLE
350
B5
  3
ACAD_GROUP
350
D
  3
ACAD_IMAGE_VARS
350
6A
  3
ACAD_MLINESTYLE
350
17
  3
ACAD_SCALELIST
350
287
  3
ACAD_SECTIONVIEWSTYLE
350
B6
  3
ACDBVARIABLEDICTIONARY
350
3D
  3
APPDATA
350
71
  3
DWGPROPS
350
3F3
  0
DICTIONARY
  5
181
330
2
100
AcDbDictionary
280
     1
  3
ACAD_LAYERSTATES
360
182
  3
ACLYDICTIONARY
360
18E
  0
DICTIONARY
  5
2EA
330
2E9
100
AcDbDictionary
280
     1
  0
DICTIONARY
  5
2FC
330
2FB
100
AcDbDictionary
280
     1
  0
DICTIONARY
  5
30C
330
30B
100
AcDbDictionary
280
     1
  0
DICTIONARY
  5
31C
330
31B
100
AcDbDictionary
280
     1
  0
DICTIONARY
  5
342
330
341
100
AcDbDictionary
280
     1
  0
DICTIONARY
  5
351
330
350
100
AcDbDictionary
280
     1
  0
DICTIONARY
  5
360
330
35F
100
AcDbDictionary
280
     1
  0
DICTIONARY
  5
370
330
36F
100
AcDbDictionary
280
     1
  0
DICTIONARY
  5
387
330
386
100
AcDbDictionary
280
     1
  0
DICTIONARY
  5
396
330
395
100
AcDbDictionary
280
     1
  0
DICTIONARY
  5
3AA
330
3A9
100
AcDbDictionary
280
     1
  0
DICTIONARY
  5
3B7
330
3B6
100
AcDbDictionary
280
     1
  0
DICTIONARY
  5
B5
102
{ACAD_REACTORS
330
C
102
}
330
C
100
AcDbDictionary
  0
DICTIONARY
  5
D
102
{ACAD_REACTORS
330
C
102
}
330
C
100
AcDbDictionary
  0
RASTERVARIABLES
  5
6A
102
{ACAD_REACTORS
330
C
102
}
330
C
100
AcDbRasterVariables
 90
        0
 70
     1
 71
     1
 72
     1
  0
DICTIONARY
  5
17
102
{ACAD_REACTORS
330
C
102
}
330
C
100
AcDbDictionary
  3
STANDARD
350
18
  0
DICTIONARY
  5
287
102
{ACAD_REACTORS
330
C
102
}
330
C
100
AcDbDictionary
  0
DICTIONARY
  5
B6
102
{ACAD_REACTORS
330
C
102
}
330
C
100
AcDbDictionary
  0
DICTIONARY
  5
3D
102
{ACAD_REACTORS
330
C
102
}
330
C
100
AcDbDictionary
  3
HPTRANSPARENCY
350
D6
  0
DICTIONARY
  5
71
102
{ACAD_REACTORS
330
C
102
}
330
C
100
AcDbDictionary
  0
XRECORD
  5
3F3
102
{ACAD_REACTORS
330
C
102
}
330
C
100
AcDbXrecord
  1
DWGPROPS COOKIE
  2

  3

  4

  6

  7

  8
moimeme
  9

300
=
301
=
302
=
303
=
304
=
305
=
306
=
307
=
308
=
309
=
 40
0.0
 41
2455022.637359491
 42
2457404.923753622
  1

 90
        0
  0
DICTIONARY
  5
182
102
{ACAD_REACTORS
330
181
102
}
330
181
100
AcDbDictionary
  0
DICTIONARY
  5
18E
102
{ACAD_REACTORS
330
181
102
}
330
181
100
AcDbDictionary
1001
ACAD
1000
<All
  0
MLINESTYLE
  5
18
102
{ACAD_REACTORS
330
17
102
}
330
17
100
AcDbMlineStyle
  2
Standard
 70
     0
  3

 62
   256
 51
90.0
 52
90.0
 71
     2
 49
0.5
 62
   256
  6
BYLAYER
 49
-0.5
 62
   256
  6
BYLAYER
  0
DICTIONARYVAR
  5
D6
102
{ACAD_REACTORS
330
3D
102
}
330
3D
100
DictionaryVariables
280
     0
  1
ByLayer
  0
ENDSEC
  0
EOF
