  0
SECTION
  2
BLOCKS
  0
ENDSEC
  0
SECTION
  2
ENTITIES
  0
LINE
  8
0
 10
500
 20
93.774
 11
0
 21
93.774
  0
LINE
  8
0
 10
0
 20
93.774
 11
0
 21
-93.774
  0
LINE
  8
0
 10
0
 20
-93.774
 11
500
 21
-93.774
  0
LINE
  8
0
 10
500
 20
-93.774
 11
500
 21
93.774
  0
LINE
  8
0
 10
42.1808
 20
-24.3099
 11
34.662
 21
-22.0291
  0
LINE
  8
0
 10
34.662
 20
-22.0291
 11
27.7327
 21
-18.3253
  0
LINE
  8
0
 10
27.7327
 20
-18.3253
 11
21.6591
 21
-13.3408
  0
LINE
  8
0
 10
21.6591
 20
-13.3408
 11
16.6747
 21
-7.26724
  0
LINE
  8
0
 10
16.6747
 20
-7.26724
 11
12.9709
 21
-0.337952
  0
LINE
  8
0
 10
12.9709
 20
-0.337952
 11
10.6901
 21
7.18077
  0
LINE
  8
0
 10
10.6901
 20
7.18077
 11
9.92
 21
15
  0
LINE
  8
0
 10
9.92
 20
15
 11
10.6901
 21
22.8192
  0
LINE
  8
0
 10
10.6901
 20
22.8192
 11
12.9709
 21
30.338
  0
LINE
  8
0
 10
12.9709
 20
30.338
 11
16.6747
 21
37.2672
  0
LINE
  8
0
 10
16.6747
 20
37.2672
 11
21.6591
 21
43.3408
  0
LINE
  8
0
 10
21.6591
 20
43.3408
 11
27.7327
 21
48.3253
  0
LINE
  8
0
 10
27.7327
 20
48.3253
 11
34.662
 21
52.0291
  0
LINE
  8
0
 10
34.662
 20
52.0291
 11
42.1808
 21
54.3099
  0
LINE
  8
0
 10
42.1808
 20
54.3099
 11
50
 21
55.08
  0
LINE
  8
0
 10
50
 20
55.08
 11
57.8192
 21
54.3099
  0
LINE
  8
0
 10
57.8192
 20
54.3099
 11
65.338
 21
52.0291
  0
LINE
  8
0
 10
65.338
 20
52.0291
 11
72.2673
 21
48.3253
  0
LINE
  8
0
 10
72.2673
 20
48.3253
 11
78.3408
 21
43.3408
  0
LINE
  8
0
 10
78.3408
 20
43.3408
 11
83.3253
 21
37.2672
  0
LINE
  8
0
 10
83.3253
 20
37.2672
 11
87.0291
 21
30.338
  0
LINE
  8
0
 10
87.0291
 20
30.338
 11
89.3099
 21
22.8192
  0
LINE
  8
0
 10
89.3099
 20
22.8192
 11
90.08
 21
15
  0
LINE
  8
0
 10
90.08
 20
15
 11
89.3099
 21
7.18077
  0
LINE
  8
0
 10
89.3099
 20
7.18077
 11
87.0291
 21
-0.337952
  0
LINE
  8
0
 10
87.0291
 20
-0.337952
 11
83.3253
 21
-7.26724
  0
LINE
  8
0
 10
83.3253
 20
-7.26724
 11
78.3408
 21
-13.3408
  0
LINE
  8
0
 10
78.3408
 20
-13.3408
 11
72.2673
 21
-18.3253
  0
LINE
  8
0
 10
72.2673
 20
-18.3253
 11
65.338
 21
-22.0291
  0
LINE
  8
0
 10
65.338
 20
-22.0291
 11
57.8192
 21
-24.3099
  0
LINE
  8
0
 10
57.8192
 20
-24.3099
 11
50
 21
-25.08
  0
LINE
  8
0
 10
50
 20
-25.08
 11
42.1808
 21
-24.3099
  0
LINE
  8
0
 10
14.25
 20
48.67
 11
13.8442
 21
48.71
  0
LINE
  8
0
 10
13.8442
 20
48.71
 11
13.454
 21
48.8283
  0
LINE
  8
0
 10
13.454
 20
48.8283
 11
13.0944
 21
49.0205
  0
LINE
  8
0
 10
13.0944
 20
49.0205
 11
12.7792
 21
49.2792
  0
LINE
  8
0
 10
12.7792
 20
49.2792
 11
12.5205
 21
49.5944
  0
LINE
  8
0
 10
12.5205
 20
49.5944
 11
12.3283
 21
49.954
  0
LINE
  8
0
 10
12.3283
 20
49.954
 11
12.21
 21
50.3442
  0
LINE
  8
0
 10
12.21
 20
50.3442
 11
12.17
 21
50.75
  0
LINE
  8
0
 10
12.17
 20
50.75
 11
12.21
 21
51.1558
  0
LINE
  8
0
 10
12.21
 20
51.1558
 11
12.3283
 21
51.546
  0
LINE
  8
0
 10
12.3283
 20
51.546
 11
12.5205
 21
51.9056
  0
LINE
  8
0
 10
12.5205
 20
51.9056
 11
12.7792
 21
52.2208
  0
LINE
  8
0
 10
12.7792
 20
52.2208
 11
13.0944
 21
52.4794
  0
LINE
  8
0
 10
13.0944
 20
52.4794
 11
13.454
 21
52.6717
  0
LINE
  8
0
 10
13.454
 20
52.6717
 11
13.8442
 21
52.79
  0
LINE
  8
0
 10
13.8442
 20
52.79
 11
14.25
 21
52.83
  0
LINE
  8
0
 10
14.25
 20
52.83
 11
14.6558
 21
52.79
  0
LINE
  8
0
 10
14.6558
 20
52.79
 11
15.046
 21
52.6717
  0
LINE
  8
0
 10
15.046
 20
52.6717
 11
15.4056
 21
52.4794
  0
LINE
  8
0
 10
15.4056
 20
52.4794
 11
15.7208
 21
52.2208
  0
LINE
  8
0
 10
15.7208
 20
52.2208
 11
15.9794
 21
51.9056
  0
LINE
  8
0
 10
15.9794
 20
51.9056
 11
16.1717
 21
51.546
  0
LINE
  8
0
 10
16.1717
 20
51.546
 11
16.29
 21
51.1558
  0
LINE
  8
0
 10
16.29
 20
51.1558
 11
16.33
 21
50.75
  0
LINE
  8
0
 10
16.33
 20
50.75
 11
16.29
 21
50.3442
  0
LINE
  8
0
 10
16.29
 20
50.3442
 11
16.1717
 21
49.954
  0
LINE
  8
0
 10
16.1717
 20
49.954
 11
15.9794
 21
49.5944
  0
LINE
  8
0
 10
15.9794
 20
49.5944
 11
15.7208
 21
49.2792
  0
LINE
  8
0
 10
15.7208
 20
49.2792
 11
15.4056
 21
49.0205
  0
LINE
  8
0
 10
15.4056
 20
49.0205
 11
15.046
 21
48.8283
  0
LINE
  8
0
 10
15.046
 20
48.8283
 11
14.6558
 21
48.71
  0
LINE
  8
0
 10
14.6558
 20
48.71
 11
14.25
 21
48.67
  0
LINE
  8
0
 10
85.75
 20
48.67
 11
85.3442
 21
48.71
  0
LINE
  8
0
 10
85.3442
 20
48.71
 11
84.954
 21
48.8283
  0
LINE
  8
0
 10
84.954
 20
48.8283
 11
84.5944
 21
49.0205
  0
LINE
  8
0
 10
84.5944
 20
49.0205
 11
84.2792
 21
49.2792
  0
LINE
  8
0
 10
84.2792
 20
49.2792
 11
84.0205
 21
49.5944
  0
LINE
  8
0
 10
84.0205
 20
49.5944
 11
83.8283
 21
49.954
  0
LINE
  8
0
 10
83.8283
 20
49.954
 11
83.71
 21
50.3442
  0
LINE
  8
0
 10
83.71
 20
50.3442
 11
83.67
 21
50.75
  0
LINE
  8
0
 10
83.67
 20
50.75
 11
83.71
 21
51.1558
  0
LINE
  8
0
 10
83.71
 20
51.1558
 11
83.8283
 21
51.546
  0
LINE
  8
0
 10
83.8283
 20
51.546
 11
84.0205
 21
51.9056
  0
LINE
  8
0
 10
84.0205
 20
51.9056
 11
84.2792
 21
52.2208
  0
LINE
  8
0
 10
84.2792
 20
52.2208
 11
84.5944
 21
52.4794
  0
LINE
  8
0
 10
84.5944
 20
52.4794
 11
84.954
 21
52.6717
  0
LINE
  8
0
 10
84.954
 20
52.6717
 11
85.3442
 21
52.79
  0
LINE
  8
0
 10
85.3442
 20
52.79
 11
85.75
 21
52.83
  0
LINE
  8
0
 10
85.75
 20
52.83
 11
86.1558
 21
52.79
  0
LINE
  8
0
 10
86.1558
 20
52.79
 11
86.546
 21
52.6717
  0
LINE
  8
0
 10
86.546
 20
52.6717
 11
86.9056
 21
52.4794
  0
LINE
  8
0
 10
86.9056
 20
52.4794
 11
87.2208
 21
52.2208
  0
LINE
  8
0
 10
87.2208
 20
52.2208
 11
87.4794
 21
51.9056
  0
LINE
  8
0
 10
87.4794
 20
51.9056
 11
87.6717
 21
51.546
  0
LINE
  8
0
 10
87.6717
 20
51.546
 11
87.79
 21
51.1558
  0
LINE
  8
0
 10
87.79
 20
51.1558
 11
87.83
 21
50.75
  0
LINE
  8
0
 10
87.83
 20
50.75
 11
87.79
 21
50.3442
  0
LINE
  8
0
 10
87.79
 20
50.3442
 11
87.6717
 21
49.954
  0
LINE
  8
0
 10
87.6717
 20
49.954
 11
87.4794
 21
49.5944
  0
LINE
  8
0
 10
87.4794
 20
49.5944
 11
87.2208
 21
49.2792
  0
LINE
  8
0
 10
87.2208
 20
49.2792
 11
86.9056
 21
49.0205
  0
LINE
  8
0
 10
86.9056
 20
49.0205
 11
86.546
 21
48.8283
  0
LINE
  8
0
 10
86.546
 20
48.8283
 11
86.1558
 21
48.71
  0
LINE
  8
0
 10
86.1558
 20
48.71
 11
85.75
 21
48.67
  0
LINE
  8
0
 10
14.25
 20
-22.83
 11
13.8442
 21
-22.79
  0
LINE
  8
0
 10
13.8442
 20
-22.79
 11
13.454
 21
-22.6717
  0
LINE
  8
0
 10
13.454
 20
-22.6717
 11
13.0944
 21
-22.4794
  0
LINE
  8
0
 10
13.0944
 20
-22.4794
 11
12.7792
 21
-22.2208
  0
LINE
  8
0
 10
12.7792
 20
-22.2208
 11
12.5205
 21
-21.9056
  0
LINE
  8
0
 10
12.5205
 20
-21.9056
 11
12.3283
 21
-21.546
  0
LINE
  8
0
 10
12.3283
 20
-21.546
 11
12.21
 21
-21.1558
  0
LINE
  8
0
 10
12.21
 20
-21.1558
 11
12.17
 21
-20.75
  0
LINE
  8
0
 10
12.17
 20
-20.75
 11
12.21
 21
-20.3442
  0
LINE
  8
0
 10
12.21
 20
-20.3442
 11
12.3283
 21
-19.954
  0
LINE
  8
0
 10
12.3283
 20
-19.954
 11
12.5205
 21
-19.5944
  0
LINE
  8
0
 10
12.5205
 20
-19.5944
 11
12.7792
 21
-19.2792
  0
LINE
  8
0
 10
12.7792
 20
-19.2792
 11
13.0944
 21
-19.0205
  0
LINE
  8
0
 10
13.0944
 20
-19.0205
 11
13.454
 21
-18.8283
  0
LINE
  8
0
 10
13.454
 20
-18.8283
 11
13.8442
 21
-18.71
  0
LINE
  8
0
 10
13.8442
 20
-18.71
 11
14.25
 21
-18.67
  0
LINE
  8
0
 10
14.25
 20
-18.67
 11
14.6558
 21
-18.71
  0
LINE
  8
0
 10
14.6558
 20
-18.71
 11
15.046
 21
-18.8283
  0
LINE
  8
0
 10
15.046
 20
-18.8283
 11
15.4056
 21
-19.0205
  0
LINE
  8
0
 10
15.4056
 20
-19.0205
 11
15.7208
 21
-19.2792
  0
LINE
  8
0
 10
15.7208
 20
-19.2792
 11
15.9794
 21
-19.5944
  0
LINE
  8
0
 10
15.9794
 20
-19.5944
 11
16.1717
 21
-19.954
  0
LINE
  8
0
 10
16.1717
 20
-19.954
 11
16.29
 21
-20.3442
  0
LINE
  8
0
 10
16.29
 20
-20.3442
 11
16.33
 21
-20.75
  0
LINE
  8
0
 10
16.33
 20
-20.75
 11
16.29
 21
-21.1558
  0
LINE
  8
0
 10
16.29
 20
-21.1558
 11
16.1717
 21
-21.546
  0
LINE
  8
0
 10
16.1717
 20
-21.546
 11
15.9794
 21
-21.9056
  0
LINE
  8
0
 10
15.9794
 20
-21.9056
 11
15.7208
 21
-22.2208
  0
LINE
  8
0
 10
15.7208
 20
-22.2208
 11
15.4056
 21
-22.4794
  0
LINE
  8
0
 10
15.4056
 20
-22.4794
 11
15.046
 21
-22.6717
  0
LINE
  8
0
 10
15.046
 20
-22.6717
 11
14.6558
 21
-22.79
  0
LINE
  8
0
 10
14.6558
 20
-22.79
 11
14.25
 21
-22.83
  0
LINE
  8
0
 10
85.75
 20
-22.83
 11
85.3442
 21
-22.79
  0
LINE
  8
0
 10
85.3442
 20
-22.79
 11
84.954
 21
-22.6717
  0
LINE
  8
0
 10
84.954
 20
-22.6717
 11
84.5944
 21
-22.4794
  0
LINE
  8
0
 10
84.5944
 20
-22.4794
 11
84.2792
 21
-22.2208
  0
LINE
  8
0
 10
84.2792
 20
-22.2208
 11
84.0205
 21
-21.9056
  0
LINE
  8
0
 10
84.0205
 20
-21.9056
 11
83.8283
 21
-21.546
  0
LINE
  8
0
 10
83.8283
 20
-21.546
 11
83.71
 21
-21.1558
  0
LINE
  8
0
 10
83.71
 20
-21.1558
 11
83.67
 21
-20.75
  0
LINE
  8
0
 10
83.67
 20
-20.75
 11
83.71
 21
-20.3442
  0
LINE
  8
0
 10
83.71
 20
-20.3442
 11
83.8283
 21
-19.954
  0
LINE
  8
0
 10
83.8283
 20
-19.954
 11
84.0205
 21
-19.5944
  0
LINE
  8
0
 10
84.0205
 20
-19.5944
 11
84.2792
 21
-19.2792
  0
LINE
  8
0
 10
84.2792
 20
-19.2792
 11
84.5944
 21
-19.0205
  0
LINE
  8
0
 10
84.5944
 20
-19.0205
 11
84.954
 21
-18.8283
  0
LINE
  8
0
 10
84.954
 20
-18.8283
 11
85.3442
 21
-18.71
  0
LINE
  8
0
 10
85.3442
 20
-18.71
 11
85.75
 21
-18.67
  0
LINE
  8
0
 10
85.75
 20
-18.67
 11
86.1558
 21
-18.71
  0
LINE
  8
0
 10
86.1558
 20
-18.71
 11
86.546
 21
-18.8283
  0
LINE
  8
0
 10
86.546
 20
-18.8283
 11
86.9056
 21
-19.0205
  0
LINE
  8
0
 10
86.9056
 20
-19.0205
 11
87.2208
 21
-19.2792
  0
LINE
  8
0
 10
87.2208
 20
-19.2792
 11
87.4794
 21
-19.5944
  0
LINE
  8
0
 10
87.4794
 20
-19.5944
 11
87.6717
 21
-19.954
  0
LINE
  8
0
 10
87.6717
 20
-19.954
 11
87.79
 21
-20.3442
  0
LINE
  8
0
 10
87.79
 20
-20.3442
 11
87.83
 21
-20.75
  0
LINE
  8
0
 10
87.83
 20
-20.75
 11
87.79
 21
-21.1558
  0
LINE
  8
0
 10
87.79
 20
-21.1558
 11
87.6717
 21
-21.546
  0
LINE
  8
0
 10
87.6717
 20
-21.546
 11
87.4794
 21
-21.9056
  0
LINE
  8
0
 10
87.4794
 20
-21.9056
 11
87.2208
 21
-22.2208
  0
LINE
  8
0
 10
87.2208
 20
-22.2208
 11
86.9056
 21
-22.4794
  0
LINE
  8
0
 10
86.9056
 20
-22.4794
 11
86.546
 21
-22.6717
  0
LINE
  8
0
 10
86.546
 20
-22.6717
 11
86.1558
 21
-22.79
  0
LINE
  8
0
 10
86.1558
 20
-22.79
 11
85.75
 21
-22.83
  0
ENDSEC
  0
SECTION
  2
OBJECTS
  0
DICTIONARY
  0
ENDSEC
  0
EOF
