  0
SECTION
  2
BLOCKS
  0
ENDSEC
  0
SECTION
  2
ENTITIES
  0
LINE
  8
0
 10
500
 20
92.1169
 11
0
 21
92.1169
  0
LINE
  8
0
 10
0
 20
92.1169
 11
0
 21
-92.1169
  0
LINE
  8
0
 10
0
 20
-92.1169
 11
500
 21
-92.1169
  0
LINE
  8
0
 10
500
 20
-92.1169
 11
500
 21
92.1169
  0
LINE
  8
0
 10
438.351
 20
5.57483
 11
431.958
 21
7.51418
  0
LINE
  8
0
 10
431.958
 20
7.51418
 11
426.066
 21
10.6635
  0
LINE
  8
0
 10
426.066
 20
10.6635
 11
420.902
 21
14.9018
  0
LINE
  8
0
 10
420.902
 20
14.9018
 11
416.664
 21
20.0662
  0
LINE
  8
0
 10
416.664
 20
20.0662
 11
413.514
 21
25.9581
  0
LINE
  8
0
 10
413.514
 20
25.9581
 11
411.575
 21
32.3513
  0
LINE
  8
0
 10
411.575
 20
32.3513
 11
410.92
 21
39
  0
LINE
  8
0
 10
410.92
 20
39
 11
411.575
 21
45.6487
  0
LINE
  8
0
 10
411.575
 20
45.6487
 11
413.514
 21
52.0418
  0
LINE
  8
0
 10
413.514
 20
52.0418
 11
416.664
 21
57.9338
  0
LINE
  8
0
 10
416.664
 20
57.9338
 11
420.902
 21
63.0982
  0
LINE
  8
0
 10
420.902
 20
63.0982
 11
426.066
 21
67.3365
  0
LINE
  8
0
 10
426.066
 20
67.3365
 11
431.958
 21
70.4858
  0
LINE
  8
0
 10
431.958
 20
70.4858
 11
438.351
 21
72.4252
  0
LINE
  8
0
 10
438.351
 20
72.4252
 11
445
 21
73.08
  0
LINE
  8
0
 10
445
 20
73.08
 11
451.649
 21
72.4252
  0
LINE
  8
0
 10
451.649
 20
72.4252
 11
458.042
 21
70.4858
  0
LINE
  8
0
 10
458.042
 20
70.4858
 11
463.934
 21
67.3365
  0
LINE
  8
0
 10
463.934
 20
67.3365
 11
469.098
 21
63.0982
  0
LINE
  8
0
 10
469.098
 20
63.0982
 11
473.336
 21
57.9338
  0
LINE
  8
0
 10
473.336
 20
57.9338
 11
476.486
 21
52.0418
  0
LINE
  8
0
 10
476.486
 20
52.0418
 11
478.425
 21
45.6487
  0
LINE
  8
0
 10
478.425
 20
45.6487
 11
479.08
 21
39
  0
LINE
  8
0
 10
479.08
 20
39
 11
478.425
 21
32.3513
  0
LINE
  8
0
 10
478.425
 20
32.3513
 11
476.486
 21
25.9581
  0
LINE
  8
0
 10
476.486
 20
25.9581
 11
473.336
 21
20.0662
  0
LINE
  8
0
 10
473.336
 20
20.0662
 11
469.098
 21
14.9018
  0
LINE
  8
0
 10
469.098
 20
14.9018
 11
463.934
 21
10.6635
  0
LINE
  8
0
 10
463.934
 20
10.6635
 11
458.042
 21
7.51418
  0
LINE
  8
0
 10
458.042
 20
7.51418
 11
451.649
 21
5.57483
  0
LINE
  8
0
 10
451.649
 20
5.57483
 11
445
 21
4.92
  0
LINE
  8
0
 10
445
 20
4.92
 11
438.351
 21
5.57483
  0
LINE
  8
0
 10
282.351
 20
5.57483
 11
275.958
 21
7.51418
  0
LINE
  8
0
 10
275.958
 20
7.51418
 11
270.066
 21
10.6635
  0
LINE
  8
0
 10
270.066
 20
10.6635
 11
264.902
 21
14.9018
  0
LINE
  8
0
 10
264.902
 20
14.9018
 11
260.664
 21
20.0662
  0
LINE
  8
0
 10
260.664
 20
20.0662
 11
257.514
 21
25.9581
  0
LINE
  8
0
 10
257.514
 20
25.9581
 11
255.575
 21
32.3513
  0
LINE
  8
0
 10
255.575
 20
32.3513
 11
254.92
 21
39
  0
LINE
  8
0
 10
254.92
 20
39
 11
255.575
 21
45.6487
  0
LINE
  8
0
 10
255.575
 20
45.6487
 11
257.514
 21
52.0418
  0
LINE
  8
0
 10
257.514
 20
52.0418
 11
260.664
 21
57.9338
  0
LINE
  8
0
 10
260.664
 20
57.9338
 11
264.902
 21
63.0982
  0
LINE
  8
0
 10
264.902
 20
63.0982
 11
270.066
 21
67.3365
  0
LINE
  8
0
 10
270.066
 20
67.3365
 11
275.958
 21
70.4858
  0
LINE
  8
0
 10
275.958
 20
70.4858
 11
282.351
 21
72.4252
  0
LINE
  8
0
 10
282.351
 20
72.4252
 11
289
 21
73.08
  0
LINE
  8
0
 10
289
 20
73.08
 11
295.649
 21
72.4252
  0
LINE
  8
0
 10
295.649
 20
72.4252
 11
302.042
 21
70.4858
  0
LINE
  8
0
 10
302.042
 20
70.4858
 11
307.934
 21
67.3365
  0
LINE
  8
0
 10
307.934
 20
67.3365
 11
313.098
 21
63.0982
  0
LINE
  8
0
 10
313.098
 20
63.0982
 11
317.336
 21
57.9338
  0
LINE
  8
0
 10
317.336
 20
57.9338
 11
320.486
 21
52.0418
  0
LINE
  8
0
 10
320.486
 20
52.0418
 11
322.425
 21
45.6487
  0
LINE
  8
0
 10
322.425
 20
45.6487
 11
323.08
 21
39
  0
LINE
  8
0
 10
323.08
 20
39
 11
322.425
 21
32.3513
  0
LINE
  8
0
 10
322.425
 20
32.3513
 11
320.486
 21
25.9581
  0
LINE
  8
0
 10
320.486
 20
25.9581
 11
317.336
 21
20.0662
  0
LINE
  8
0
 10
317.336
 20
20.0662
 11
313.098
 21
14.9018
  0
LINE
  8
0
 10
313.098
 20
14.9018
 11
307.934
 21
10.6635
  0
LINE
  8
0
 10
307.934
 20
10.6635
 11
302.042
 21
7.51418
  0
LINE
  8
0
 10
302.042
 20
7.51418
 11
295.649
 21
5.57483
  0
LINE
  8
0
 10
295.649
 20
5.57483
 11
289
 21
4.92
  0
LINE
  8
0
 10
289
 20
4.92
 11
282.351
 21
5.57483
  0
LINE
  8
0
 10
360.351
 20
5.57483
 11
353.958
 21
7.51418
  0
LINE
  8
0
 10
353.958
 20
7.51418
 11
348.066
 21
10.6635
  0
LINE
  8
0
 10
348.066
 20
10.6635
 11
342.902
 21
14.9018
  0
LINE
  8
0
 10
342.902
 20
14.9018
 11
338.664
 21
20.0662
  0
LINE
  8
0
 10
338.664
 20
20.0662
 11
335.514
 21
25.9581
  0
LINE
  8
0
 10
335.514
 20
25.9581
 11
333.575
 21
32.3513
  0
LINE
  8
0
 10
333.575
 20
32.3513
 11
332.92
 21
39
  0
LINE
  8
0
 10
332.92
 20
39
 11
333.575
 21
45.6487
  0
LINE
  8
0
 10
333.575
 20
45.6487
 11
335.514
 21
52.0418
  0
LINE
  8
0
 10
335.514
 20
52.0418
 11
338.664
 21
57.9338
  0
LINE
  8
0
 10
338.664
 20
57.9338
 11
342.902
 21
63.0982
  0
LINE
  8
0
 10
342.902
 20
63.0982
 11
348.066
 21
67.3365
  0
LINE
  8
0
 10
348.066
 20
67.3365
 11
353.958
 21
70.4858
  0
LINE
  8
0
 10
353.958
 20
70.4858
 11
360.351
 21
72.4252
  0
LINE
  8
0
 10
360.351
 20
72.4252
 11
367
 21
73.08
  0
LINE
  8
0
 10
367
 20
73.08
 11
373.649
 21
72.4252
  0
LINE
  8
0
 10
373.649
 20
72.4252
 11
380.042
 21
70.4858
  0
LINE
  8
0
 10
380.042
 20
70.4858
 11
385.934
 21
67.3365
  0
LINE
  8
0
 10
385.934
 20
67.3365
 11
391.098
 21
63.0982
  0
LINE
  8
0
 10
391.098
 20
63.0982
 11
395.336
 21
57.9338
  0
LINE
  8
0
 10
395.336
 20
57.9338
 11
398.486
 21
52.0418
  0
LINE
  8
0
 10
398.486
 20
52.0418
 11
400.425
 21
45.6487
  0
LINE
  8
0
 10
400.425
 20
45.6487
 11
401.08
 21
39
  0
LINE
  8
0
 10
401.08
 20
39
 11
400.425
 21
32.3513
  0
LINE
  8
0
 10
400.425
 20
32.3513
 11
398.486
 21
25.9581
  0
LINE
  8
0
 10
398.486
 20
25.9581
 11
395.336
 21
20.0662
  0
LINE
  8
0
 10
395.336
 20
20.0662
 11
391.098
 21
14.9018
  0
LINE
  8
0
 10
391.098
 20
14.9018
 11
385.934
 21
10.6635
  0
LINE
  8
0
 10
385.934
 20
10.6635
 11
380.042
 21
7.51418
  0
LINE
  8
0
 10
380.042
 20
7.51418
 11
373.649
 21
5.57483
  0
LINE
  8
0
 10
373.649
 20
5.57483
 11
367
 21
4.92
  0
LINE
  8
0
 10
367
 20
4.92
 11
360.351
 21
5.57483
  0
LINE
  8
0
 10
180.181
 20
-14.3099
 11
172.662
 21
-12.0291
  0
LINE
  8
0
 10
172.662
 20
-12.0291
 11
165.733
 21
-8.32529
  0
LINE
  8
0
 10
165.733
 20
-8.32529
 11
159.659
 21
-3.34084
  0
LINE
  8
0
 10
159.659
 20
-3.34084
 11
154.675
 21
2.73274
  0
LINE
  8
0
 10
154.675
 20
2.73274
 11
150.971
 21
9.66205
  0
LINE
  8
0
 10
150.971
 20
9.66205
 11
148.69
 21
17.1808
  0
LINE
  8
0
 10
148.69
 20
17.1808
 11
147.92
 21
25
  0
LINE
  8
0
 10
147.92
 20
25
 11
148.69
 21
32.8192
  0
LINE
  8
0
 10
148.69
 20
32.8192
 11
150.971
 21
40.338
  0
LINE
  8
0
 10
150.971
 20
40.338
 11
154.675
 21
47.2672
  0
LINE
  8
0
 10
154.675
 20
47.2672
 11
159.659
 21
53.3408
  0
LINE
  8
0
 10
159.659
 20
53.3408
 11
165.733
 21
58.3253
  0
LINE
  8
0
 10
165.733
 20
58.3253
 11
172.662
 21
62.0291
  0
LINE
  8
0
 10
172.662
 20
62.0291
 11
180.181
 21
64.3099
  0
LINE
  8
0
 10
180.181
 20
64.3099
 11
188
 21
65.08
  0
LINE
  8
0
 10
188
 20
65.08
 11
195.819
 21
64.3099
  0
LINE
  8
0
 10
195.819
 20
64.3099
 11
203.338
 21
62.0291
  0
LINE
  8
0
 10
203.338
 20
62.0291
 11
210.267
 21
58.3253
  0
LINE
  8
0
 10
210.267
 20
58.3253
 11
216.341
 21
53.3408
  0
LINE
  8
0
 10
216.341
 20
53.3408
 11
221.325
 21
47.2672
  0
LINE
  8
0
 10
221.325
 20
47.2672
 11
225.029
 21
40.338
  0
LINE
  8
0
 10
225.029
 20
40.338
 11
227.31
 21
32.8192
  0
LINE
  8
0
 10
227.31
 20
32.8192
 11
228.08
 21
25
  0
LINE
  8
0
 10
228.08
 20
25
 11
227.31
 21
17.1808
  0
LINE
  8
0
 10
227.31
 20
17.1808
 11
225.029
 21
9.66205
  0
LINE
  8
0
 10
225.029
 20
9.66205
 11
221.325
 21
2.73274
  0
LINE
  8
0
 10
221.325
 20
2.73274
 11
216.341
 21
-3.34084
  0
LINE
  8
0
 10
216.341
 20
-3.34084
 11
210.267
 21
-8.32529
  0
LINE
  8
0
 10
210.267
 20
-8.32529
 11
203.338
 21
-12.0291
  0
LINE
  8
0
 10
203.338
 20
-12.0291
 11
195.819
 21
-14.3099
  0
LINE
  8
0
 10
195.819
 20
-14.3099
 11
188
 21
-15.08
  0
LINE
  8
0
 10
188
 20
-15.08
 11
180.181
 21
-14.3099
  0
LINE
  8
0
 10
152.25
 20
58.67
 11
151.844
 21
58.71
  0
LINE
  8
0
 10
151.844
 20
58.71
 11
151.454
 21
58.8283
  0
LINE
  8
0
 10
151.454
 20
58.8283
 11
151.094
 21
59.0205
  0
LINE
  8
0
 10
151.094
 20
59.0205
 11
150.779
 21
59.2792
  0
LINE
  8
0
 10
150.779
 20
59.2792
 11
150.521
 21
59.5944
  0
LINE
  8
0
 10
150.521
 20
59.5944
 11
150.328
 21
59.954
  0
LINE
  8
0
 10
150.328
 20
59.954
 11
150.21
 21
60.3442
  0
LINE
  8
0
 10
150.21
 20
60.3442
 11
150.17
 21
60.75
  0
LINE
  8
0
 10
150.17
 20
60.75
 11
150.21
 21
61.1558
  0
LINE
  8
0
 10
150.21
 20
61.1558
 11
150.328
 21
61.546
  0
LINE
  8
0
 10
150.328
 20
61.546
 11
150.521
 21
61.9056
  0
LINE
  8
0
 10
150.521
 20
61.9056
 11
150.779
 21
62.2208
  0
LINE
  8
0
 10
150.779
 20
62.2208
 11
151.094
 21
62.4794
  0
LINE
  8
0
 10
151.094
 20
62.4794
 11
151.454
 21
62.6717
  0
LINE
  8
0
 10
151.454
 20
62.6717
 11
151.844
 21
62.79
  0
LINE
  8
0
 10
151.844
 20
62.79
 11
152.25
 21
62.83
  0
LINE
  8
0
 10
152.25
 20
62.83
 11
152.656
 21
62.79
  0
LINE
  8
0
 10
152.656
 20
62.79
 11
153.046
 21
62.6717
  0
LINE
  8
0
 10
153.046
 20
62.6717
 11
153.406
 21
62.4794
  0
LINE
  8
0
 10
153.406
 20
62.4794
 11
153.721
 21
62.2208
  0
LINE
  8
0
 10
153.721
 20
62.2208
 11
153.979
 21
61.9056
  0
LINE
  8
0
 10
153.979
 20
61.9056
 11
154.172
 21
61.546
  0
LINE
  8
0
 10
154.172
 20
61.546
 11
154.29
 21
61.1558
  0
LINE
  8
0
 10
154.29
 20
61.1558
 11
154.33
 21
60.75
  0
LINE
  8
0
 10
154.33
 20
60.75
 11
154.29
 21
60.3442
  0
LINE
  8
0
 10
154.29
 20
60.3442
 11
154.172
 21
59.954
  0
LINE
  8
0
 10
154.172
 20
59.954
 11
153.979
 21
59.5944
  0
LINE
  8
0
 10
153.979
 20
59.5944
 11
153.721
 21
59.2792
  0
LINE
  8
0
 10
153.721
 20
59.2792
 11
153.406
 21
59.0205
  0
LINE
  8
0
 10
153.406
 20
59.0205
 11
153.046
 21
58.8283
  0
LINE
  8
0
 10
153.046
 20
58.8283
 11
152.656
 21
58.71
  0
LINE
  8
0
 10
152.656
 20
58.71
 11
152.25
 21
58.67
  0
LINE
  8
0
 10
223.75
 20
58.67
 11
223.344
 21
58.71
  0
LINE
  8
0
 10
223.344
 20
58.71
 11
222.954
 21
58.8283
  0
LINE
  8
0
 10
222.954
 20
58.8283
 11
222.594
 21
59.0205
  0
LINE
  8
0
 10
222.594
 20
59.0205
 11
222.279
 21
59.2792
  0
LINE
  8
0
 10
222.279
 20
59.2792
 11
222.021
 21
59.5944
  0
LINE
  8
0
 10
222.021
 20
59.5944
 11
221.828
 21
59.954
  0
LINE
  8
0
 10
221.828
 20
59.954
 11
221.71
 21
60.3442
  0
LINE
  8
0
 10
221.71
 20
60.3442
 11
221.67
 21
60.75
  0
LINE
  8
0
 10
221.67
 20
60.75
 11
221.71
 21
61.1558
  0
LINE
  8
0
 10
221.71
 20
61.1558
 11
221.828
 21
61.546
  0
LINE
  8
0
 10
221.828
 20
61.546
 11
222.021
 21
61.9056
  0
LINE
  8
0
 10
222.021
 20
61.9056
 11
222.279
 21
62.2208
  0
LINE
  8
0
 10
222.279
 20
62.2208
 11
222.594
 21
62.4794
  0
LINE
  8
0
 10
222.594
 20
62.4794
 11
222.954
 21
62.6717
  0
LINE
  8
0
 10
222.954
 20
62.6717
 11
223.344
 21
62.79
  0
LINE
  8
0
 10
223.344
 20
62.79
 11
223.75
 21
62.83
  0
LINE
  8
0
 10
223.75
 20
62.83
 11
224.156
 21
62.79
  0
LINE
  8
0
 10
224.156
 20
62.79
 11
224.546
 21
62.6717
  0
LINE
  8
0
 10
224.546
 20
62.6717
 11
224.906
 21
62.4794
  0
LINE
  8
0
 10
224.906
 20
62.4794
 11
225.221
 21
62.2208
  0
LINE
  8
0
 10
225.221
 20
62.2208
 11
225.479
 21
61.9056
  0
LINE
  8
0
 10
225.479
 20
61.9056
 11
225.672
 21
61.546
  0
LINE
  8
0
 10
225.672
 20
61.546
 11
225.79
 21
61.1558
  0
LINE
  8
0
 10
225.79
 20
61.1558
 11
225.83
 21
60.75
  0
LINE
  8
0
 10
225.83
 20
60.75
 11
225.79
 21
60.3442
  0
LINE
  8
0
 10
225.79
 20
60.3442
 11
225.672
 21
59.954
  0
LINE
  8
0
 10
225.672
 20
59.954
 11
225.479
 21
59.5944
  0
LINE
  8
0
 10
225.479
 20
59.5944
 11
225.221
 21
59.2792
  0
LINE
  8
0
 10
225.221
 20
59.2792
 11
224.906
 21
59.0205
  0
LINE
  8
0
 10
224.906
 20
59.0205
 11
224.546
 21
58.8283
  0
LINE
  8
0
 10
224.546
 20
58.8283
 11
224.156
 21
58.71
  0
LINE
  8
0
 10
224.156
 20
58.71
 11
223.75
 21
58.67
  0
LINE
  8
0
 10
327.594
 20
-2.04002
 11
327.204
 21
-1.92166
  0
LINE
  8
0
 10
327.204
 20
-1.92166
 11
326.844
 21
-1.72945
  0
LINE
  8
0
 10
326.844
 20
-1.72945
 11
326.529
 21
-1.47078
  0
LINE
  8
0
 10
326.529
 20
-1.47078
 11
326.271
 21
-1.15558
  0
LINE
  8
0
 10
326.271
 20
-1.15558
 11
326.078
 21
-0.795975
  0
LINE
  8
0
 10
326.078
 20
-0.795975
 11
325.96
 21
-0.405777
  0
LINE
  8
0
 10
325.96
 20
-0.405777
 11
325.92
 21
0
  0
LINE
  8
0
 10
325.92
 20
0
 11
325.96
 21
0.405777
  0
LINE
  8
0
 10
325.96
 20
0.405777
 11
326.078
 21
0.795975
  0
LINE
  8
0
 10
326.078
 20
0.795975
 11
326.271
 21
1.15558
  0
LINE
  8
0
 10
326.271
 20
1.15558
 11
326.529
 21
1.47078
  0
LINE
  8
0
 10
326.529
 20
1.47078
 11
326.844
 21
1.72945
  0
LINE
  8
0
 10
326.844
 20
1.72945
 11
327.204
 21
1.92166
  0
LINE
  8
0
 10
327.204
 20
1.92166
 11
327.594
 21
2.04002
  0
LINE
  8
0
 10
327.594
 20
2.04002
 11
328
 21
2.07999
  0
LINE
  8
0
 10
328
 20
2.07999
 11
328.406
 21
2.04002
  0
LINE
  8
0
 10
328.406
 20
2.04002
 11
328.796
 21
1.92166
  0
LINE
  8
0
 10
328.796
 20
1.92166
 11
329.156
 21
1.72945
  0
LINE
  8
0
 10
329.156
 20
1.72945
 11
329.471
 21
1.47078
  0
LINE
  8
0
 10
329.471
 20
1.47078
 11
329.729
 21
1.15558
  0
LINE
  8
0
 10
329.729
 20
1.15558
 11
329.922
 21
0.795975
  0
LINE
  8
0
 10
329.922
 20
0.795975
 11
330.04
 21
0.405777
  0
LINE
  8
0
 10
330.04
 20
0.405777
 11
330.08
 21
0
  0
LINE
  8
0
 10
330.08
 20
0
 11
330.04
 21
-0.405777
  0
LINE
  8
0
 10
330.04
 20
-0.405777
 11
329.922
 21
-0.795975
  0
LINE
  8
0
 10
329.922
 20
-0.795975
 11
329.729
 21
-1.15558
  0
LINE
  8
0
 10
329.729
 20
-1.15558
 11
329.471
 21
-1.47078
  0
LINE
  8
0
 10
329.471
 20
-1.47078
 11
329.156
 21
-1.72945
  0
LINE
  8
0
 10
329.156
 20
-1.72945
 11
328.796
 21
-1.92166
  0
LINE
  8
0
 10
328.796
 20
-1.92166
 11
328.406
 21
-2.04002
  0
LINE
  8
0
 10
328.406
 20
-2.04002
 11
328
 21
-2.07999
  0
LINE
  8
0
 10
328
 20
-2.07999
 11
327.594
 21
-2.04002
  0
LINE
  8
0
 10
406
 20
-2.07999
 11
405.594
 21
-2.04002
  0
LINE
  8
0
 10
405.594
 20
-2.04002
 11
405.204
 21
-1.92166
  0
LINE
  8
0
 10
405.204
 20
-1.92166
 11
404.844
 21
-1.72945
  0
LINE
  8
0
 10
404.844
 20
-1.72945
 11
404.529
 21
-1.47078
  0
LINE
  8
0
 10
404.529
 20
-1.47078
 11
404.271
 21
-1.15558
  0
LINE
  8
0
 10
404.271
 20
-1.15558
 11
404.078
 21
-0.795975
  0
LINE
  8
0
 10
404.078
 20
-0.795975
 11
403.96
 21
-0.405777
  0
LINE
  8
0
 10
403.96
 20
-0.405777
 11
403.92
 21
0
  0
LINE
  8
0
 10
403.92
 20
0
 11
403.96
 21
0.405777
  0
LINE
  8
0
 10
403.96
 20
0.405777
 11
404.078
 21
0.795975
  0
LINE
  8
0
 10
404.078
 20
0.795975
 11
404.271
 21
1.15558
  0
LINE
  8
0
 10
404.271
 20
1.15558
 11
404.529
 21
1.47078
  0
LINE
  8
0
 10
404.529
 20
1.47078
 11
404.844
 21
1.72945
  0
LINE
  8
0
 10
404.844
 20
1.72945
 11
405.204
 21
1.92166
  0
LINE
  8
0
 10
405.204
 20
1.92166
 11
405.594
 21
2.04002
  0
LINE
  8
0
 10
405.594
 20
2.04002
 11
406
 21
2.07999
  0
LINE
  8
0
 10
406
 20
2.07999
 11
406.406
 21
2.04002
  0
LINE
  8
0
 10
406.406
 20
2.04002
 11
406.796
 21
1.92166
  0
LINE
  8
0
 10
406.796
 20
1.92166
 11
407.156
 21
1.72945
  0
LINE
  8
0
 10
407.156
 20
1.72945
 11
407.471
 21
1.47078
  0
LINE
  8
0
 10
407.471
 20
1.47078
 11
407.729
 21
1.15558
  0
LINE
  8
0
 10
407.729
 20
1.15558
 11
407.922
 21
0.795975
  0
LINE
  8
0
 10
407.922
 20
0.795975
 11
408.04
 21
0.405777
  0
LINE
  8
0
 10
408.04
 20
0.405777
 11
408.08
 21
0
  0
LINE
  8
0
 10
408.08
 20
0
 11
408.04
 21
-0.405777
  0
LINE
  8
0
 10
408.04
 20
-0.405777
 11
407.922
 21
-0.795975
  0
LINE
  8
0
 10
407.922
 20
-0.795975
 11
407.729
 21
-1.15558
  0
LINE
  8
0
 10
407.729
 20
-1.15558
 11
407.471
 21
-1.47078
  0
LINE
  8
0
 10
407.471
 20
-1.47078
 11
407.156
 21
-1.72945
  0
LINE
  8
0
 10
407.156
 20
-1.72945
 11
406.796
 21
-1.92166
  0
LINE
  8
0
 10
406.796
 20
-1.92166
 11
406.406
 21
-2.04002
  0
LINE
  8
0
 10
406.406
 20
-2.04002
 11
406
 21
-2.07999
  0
LINE
  8
0
 10
438.351
 20
-72.4252
 11
431.958
 21
-70.4858
  0
LINE
  8
0
 10
431.958
 20
-70.4858
 11
426.066
 21
-67.3365
  0
LINE
  8
0
 10
426.066
 20
-67.3365
 11
420.902
 21
-63.0982
  0
LINE
  8
0
 10
420.902
 20
-63.0982
 11
416.664
 21
-57.9338
  0
LINE
  8
0
 10
416.664
 20
-57.9338
 11
413.514
 21
-52.0418
  0
LINE
  8
0
 10
413.514
 20
-52.0418
 11
411.575
 21
-45.6487
  0
LINE
  8
0
 10
411.575
 20
-45.6487
 11
410.92
 21
-39
  0
LINE
  8
0
 10
410.92
 20
-39
 11
411.575
 21
-32.3513
  0
LINE
  8
0
 10
411.575
 20
-32.3513
 11
413.514
 21
-25.9581
  0
LINE
  8
0
 10
413.514
 20
-25.9581
 11
416.664
 21
-20.0662
  0
LINE
  8
0
 10
416.664
 20
-20.0662
 11
420.902
 21
-14.9018
  0
LINE
  8
0
 10
420.902
 20
-14.9018
 11
426.066
 21
-10.6635
  0
LINE
  8
0
 10
426.066
 20
-10.6635
 11
431.958
 21
-7.51418
  0
LINE
  8
0
 10
431.958
 20
-7.51418
 11
438.351
 21
-5.57483
  0
LINE
  8
0
 10
438.351
 20
-5.57483
 11
445
 21
-4.92
  0
LINE
  8
0
 10
445
 20
-4.92
 11
451.649
 21
-5.57483
  0
LINE
  8
0
 10
451.649
 20
-5.57483
 11
458.042
 21
-7.51418
  0
LINE
  8
0
 10
458.042
 20
-7.51418
 11
463.934
 21
-10.6635
  0
LINE
  8
0
 10
463.934
 20
-10.6635
 11
469.098
 21
-14.9018
  0
LINE
  8
0
 10
469.098
 20
-14.9018
 11
473.336
 21
-20.0662
  0
LINE
  8
0
 10
473.336
 20
-20.0662
 11
476.486
 21
-25.9581
  0
LINE
  8
0
 10
476.486
 20
-25.9581
 11
478.425
 21
-32.3513
  0
LINE
  8
0
 10
478.425
 20
-32.3513
 11
479.08
 21
-39
  0
LINE
  8
0
 10
479.08
 20
-39
 11
478.425
 21
-45.6487
  0
LINE
  8
0
 10
478.425
 20
-45.6487
 11
476.486
 21
-52.0418
  0
LINE
  8
0
 10
476.486
 20
-52.0418
 11
473.336
 21
-57.9338
  0
LINE
  8
0
 10
473.336
 20
-57.9338
 11
469.098
 21
-63.0982
  0
LINE
  8
0
 10
469.098
 20
-63.0982
 11
463.934
 21
-67.3365
  0
LINE
  8
0
 10
463.934
 20
-67.3365
 11
458.042
 21
-70.4858
  0
LINE
  8
0
 10
458.042
 20
-70.4858
 11
451.649
 21
-72.4252
  0
LINE
  8
0
 10
451.649
 20
-72.4252
 11
445
 21
-73.08
  0
LINE
  8
0
 10
445
 20
-73.08
 11
438.351
 21
-72.4252
  0
LINE
  8
0
 10
360.351
 20
-72.4252
 11
353.958
 21
-70.4858
  0
LINE
  8
0
 10
353.958
 20
-70.4858
 11
348.066
 21
-67.3365
  0
LINE
  8
0
 10
348.066
 20
-67.3365
 11
342.902
 21
-63.0982
  0
LINE
  8
0
 10
342.902
 20
-63.0982
 11
338.664
 21
-57.9338
  0
LINE
  8
0
 10
338.664
 20
-57.9338
 11
335.514
 21
-52.0418
  0
LINE
  8
0
 10
335.514
 20
-52.0418
 11
333.575
 21
-45.6487
  0
LINE
  8
0
 10
333.575
 20
-45.6487
 11
332.92
 21
-39
  0
LINE
  8
0
 10
332.92
 20
-39
 11
333.575
 21
-32.3513
  0
LINE
  8
0
 10
333.575
 20
-32.3513
 11
335.514
 21
-25.9581
  0
LINE
  8
0
 10
335.514
 20
-25.9581
 11
338.664
 21
-20.0662
  0
LINE
  8
0
 10
338.664
 20
-20.0662
 11
342.902
 21
-14.9018
  0
LINE
  8
0
 10
342.902
 20
-14.9018
 11
348.066
 21
-10.6635
  0
LINE
  8
0
 10
348.066
 20
-10.6635
 11
353.958
 21
-7.51418
  0
LINE
  8
0
 10
353.958
 20
-7.51418
 11
360.351
 21
-5.57483
  0
LINE
  8
0
 10
360.351
 20
-5.57483
 11
367
 21
-4.92
  0
LINE
  8
0
 10
367
 20
-4.92
 11
373.649
 21
-5.57483
  0
LINE
  8
0
 10
373.649
 20
-5.57483
 11
380.042
 21
-7.51418
  0
LINE
  8
0
 10
380.042
 20
-7.51418
 11
385.934
 21
-10.6635
  0
LINE
  8
0
 10
385.934
 20
-10.6635
 11
391.098
 21
-14.9018
  0
LINE
  8
0
 10
391.098
 20
-14.9018
 11
395.336
 21
-20.0662
  0
LINE
  8
0
 10
395.336
 20
-20.0662
 11
398.486
 21
-25.9581
  0
LINE
  8
0
 10
398.486
 20
-25.9581
 11
400.425
 21
-32.3513
  0
LINE
  8
0
 10
400.425
 20
-32.3513
 11
401.08
 21
-39
  0
LINE
  8
0
 10
401.08
 20
-39
 11
400.425
 21
-45.6487
  0
LINE
  8
0
 10
400.425
 20
-45.6487
 11
398.486
 21
-52.0418
  0
LINE
  8
0
 10
398.486
 20
-52.0418
 11
395.336
 21
-57.9338
  0
LINE
  8
0
 10
395.336
 20
-57.9338
 11
391.098
 21
-63.0982
  0
LINE
  8
0
 10
391.098
 20
-63.0982
 11
385.934
 21
-67.3365
  0
LINE
  8
0
 10
385.934
 20
-67.3365
 11
380.042
 21
-70.4858
  0
LINE
  8
0
 10
380.042
 20
-70.4858
 11
373.649
 21
-72.4252
  0
LINE
  8
0
 10
373.649
 20
-72.4252
 11
367
 21
-73.08
  0
LINE
  8
0
 10
367
 20
-73.08
 11
360.351
 21
-72.4252
  0
LINE
  8
0
 10
282.351
 20
-72.4252
 11
275.958
 21
-70.4858
  0
LINE
  8
0
 10
275.958
 20
-70.4858
 11
270.066
 21
-67.3365
  0
LINE
  8
0
 10
270.066
 20
-67.3365
 11
264.902
 21
-63.0982
  0
LINE
  8
0
 10
264.902
 20
-63.0982
 11
260.664
 21
-57.9338
  0
LINE
  8
0
 10
260.664
 20
-57.9338
 11
257.514
 21
-52.0418
  0
LINE
  8
0
 10
257.514
 20
-52.0418
 11
255.575
 21
-45.6487
  0
LINE
  8
0
 10
255.575
 20
-45.6487
 11
254.92
 21
-39
  0
LINE
  8
0
 10
254.92
 20
-39
 11
255.575
 21
-32.3513
  0
LINE
  8
0
 10
255.575
 20
-32.3513
 11
257.514
 21
-25.9581
  0
LINE
  8
0
 10
257.514
 20
-25.9581
 11
260.664
 21
-20.0662
  0
LINE
  8
0
 10
260.664
 20
-20.0662
 11
264.902
 21
-14.9018
  0
LINE
  8
0
 10
264.902
 20
-14.9018
 11
270.066
 21
-10.6635
  0
LINE
  8
0
 10
270.066
 20
-10.6635
 11
275.958
 21
-7.51418
  0
LINE
  8
0
 10
275.958
 20
-7.51418
 11
282.351
 21
-5.57483
  0
LINE
  8
0
 10
282.351
 20
-5.57483
 11
289
 21
-4.92
  0
LINE
  8
0
 10
289
 20
-4.92
 11
295.649
 21
-5.57483
  0
LINE
  8
0
 10
295.649
 20
-5.57483
 11
302.042
 21
-7.51418
  0
LINE
  8
0
 10
302.042
 20
-7.51418
 11
307.934
 21
-10.6635
  0
LINE
  8
0
 10
307.934
 20
-10.6635
 11
313.098
 21
-14.9018
  0
LINE
  8
0
 10
313.098
 20
-14.9018
 11
317.336
 21
-20.0662
  0
LINE
  8
0
 10
317.336
 20
-20.0662
 11
320.486
 21
-25.9581
  0
LINE
  8
0
 10
320.486
 20
-25.9581
 11
322.425
 21
-32.3513
  0
LINE
  8
0
 10
322.425
 20
-32.3513
 11
323.08
 21
-39
  0
LINE
  8
0
 10
323.08
 20
-39
 11
322.425
 21
-45.6487
  0
LINE
  8
0
 10
322.425
 20
-45.6487
 11
320.486
 21
-52.0418
  0
LINE
  8
0
 10
320.486
 20
-52.0418
 11
317.336
 21
-57.9338
  0
LINE
  8
0
 10
317.336
 20
-57.9338
 11
313.098
 21
-63.0982
  0
LINE
  8
0
 10
313.098
 20
-63.0982
 11
307.934
 21
-67.3365
  0
LINE
  8
0
 10
307.934
 20
-67.3365
 11
302.042
 21
-70.4858
  0
LINE
  8
0
 10
302.042
 20
-70.4858
 11
295.649
 21
-72.4252
  0
LINE
  8
0
 10
295.649
 20
-72.4252
 11
289
 21
-73.08
  0
LINE
  8
0
 10
289
 20
-73.08
 11
282.351
 21
-72.4252
  0
LINE
  8
0
 10
223.75
 20
-12.83
 11
223.344
 21
-12.79
  0
LINE
  8
0
 10
223.344
 20
-12.79
 11
222.954
 21
-12.6717
  0
LINE
  8
0
 10
222.954
 20
-12.6717
 11
222.594
 21
-12.4794
  0
LINE
  8
0
 10
222.594
 20
-12.4794
 11
222.279
 21
-12.2208
  0
LINE
  8
0
 10
222.279
 20
-12.2208
 11
222.021
 21
-11.9056
  0
LINE
  8
0
 10
222.021
 20
-11.9056
 11
221.828
 21
-11.546
  0
LINE
  8
0
 10
221.828
 20
-11.546
 11
221.71
 21
-11.1558
  0
LINE
  8
0
 10
221.71
 20
-11.1558
 11
221.67
 21
-10.75
  0
LINE
  8
0
 10
221.67
 20
-10.75
 11
221.71
 21
-10.3442
  0
LINE
  8
0
 10
221.71
 20
-10.3442
 11
221.828
 21
-9.95401
  0
LINE
  8
0
 10
221.828
 20
-9.95401
 11
222.021
 21
-9.59441
  0
LINE
  8
0
 10
222.021
 20
-9.59441
 11
222.279
 21
-9.27921
  0
LINE
  8
0
 10
222.279
 20
-9.27921
 11
222.594
 21
-9.02054
  0
LINE
  8
0
 10
222.594
 20
-9.02054
 11
222.954
 21
-8.82832
  0
LINE
  8
0
 10
222.954
 20
-8.82832
 11
223.344
 21
-8.70996
  0
LINE
  8
0
 10
223.344
 20
-8.70996
 11
223.75
 21
-8.67
  0
LINE
  8
0
 10
223.75
 20
-8.67
 11
224.156
 21
-8.70996
  0
LINE
  8
0
 10
224.156
 20
-8.70996
 11
224.546
 21
-8.82832
  0
LINE
  8
0
 10
224.546
 20
-8.82832
 11
224.906
 21
-9.02054
  0
LINE
  8
0
 10
224.906
 20
-9.02054
 11
225.221
 21
-9.27921
  0
LINE
  8
0
 10
225.221
 20
-9.27921
 11
225.479
 21
-9.59441
  0
LINE
  8
0
 10
225.479
 20
-9.59441
 11
225.672
 21
-9.95401
  0
LINE
  8
0
 10
225.672
 20
-9.95401
 11
225.79
 21
-10.3442
  0
LINE
  8
0
 10
225.79
 20
-10.3442
 11
225.83
 21
-10.75
  0
LINE
  8
0
 10
225.83
 20
-10.75
 11
225.79
 21
-11.1558
  0
LINE
  8
0
 10
225.79
 20
-11.1558
 11
225.672
 21
-11.546
  0
LINE
  8
0
 10
225.672
 20
-11.546
 11
225.479
 21
-11.9056
  0
LINE
  8
0
 10
225.479
 20
-11.9056
 11
225.221
 21
-12.2208
  0
LINE
  8
0
 10
225.221
 20
-12.2208
 11
224.906
 21
-12.4794
  0
LINE
  8
0
 10
224.906
 20
-12.4794
 11
224.546
 21
-12.6717
  0
LINE
  8
0
 10
224.546
 20
-12.6717
 11
224.156
 21
-12.79
  0
LINE
  8
0
 10
224.156
 20
-12.79
 11
223.75
 21
-12.83
  0
LINE
  8
0
 10
152.25
 20
-12.83
 11
151.844
 21
-12.79
  0
LINE
  8
0
 10
151.844
 20
-12.79
 11
151.454
 21
-12.6717
  0
LINE
  8
0
 10
151.454
 20
-12.6717
 11
151.094
 21
-12.4794
  0
LINE
  8
0
 10
151.094
 20
-12.4794
 11
150.779
 21
-12.2208
  0
LINE
  8
0
 10
150.779
 20
-12.2208
 11
150.521
 21
-11.9056
  0
LINE
  8
0
 10
150.521
 20
-11.9056
 11
150.328
 21
-11.546
  0
LINE
  8
0
 10
150.328
 20
-11.546
 11
150.21
 21
-11.1558
  0
LINE
  8
0
 10
150.21
 20
-11.1558
 11
150.17
 21
-10.75
  0
LINE
  8
0
 10
150.17
 20
-10.75
 11
150.21
 21
-10.3442
  0
LINE
  8
0
 10
150.21
 20
-10.3442
 11
150.328
 21
-9.95401
  0
LINE
  8
0
 10
150.328
 20
-9.95401
 11
150.521
 21
-9.59441
  0
LINE
  8
0
 10
150.521
 20
-9.59441
 11
150.779
 21
-9.27921
  0
LINE
  8
0
 10
150.779
 20
-9.27921
 11
151.094
 21
-9.02054
  0
LINE
  8
0
 10
151.094
 20
-9.02054
 11
151.454
 21
-8.82832
  0
LINE
  8
0
 10
151.454
 20
-8.82832
 11
151.844
 21
-8.70996
  0
LINE
  8
0
 10
151.844
 20
-8.70996
 11
152.25
 21
-8.67
  0
LINE
  8
0
 10
152.25
 20
-8.67
 11
152.656
 21
-8.70996
  0
LINE
  8
0
 10
152.656
 20
-8.70996
 11
153.046
 21
-8.82832
  0
LINE
  8
0
 10
153.046
 20
-8.82832
 11
153.406
 21
-9.02054
  0
LINE
  8
0
 10
153.406
 20
-9.02054
 11
153.721
 21
-9.27921
  0
LINE
  8
0
 10
153.721
 20
-9.27921
 11
153.979
 21
-9.59441
  0
LINE
  8
0
 10
153.979
 20
-9.59441
 11
154.172
 21
-9.95401
  0
LINE
  8
0
 10
154.172
 20
-9.95401
 11
154.29
 21
-10.3442
  0
LINE
  8
0
 10
154.29
 20
-10.3442
 11
154.33
 21
-10.75
  0
LINE
  8
0
 10
154.33
 20
-10.75
 11
154.29
 21
-11.1558
  0
LINE
  8
0
 10
154.29
 20
-11.1558
 11
154.172
 21
-11.546
  0
LINE
  8
0
 10
154.172
 20
-11.546
 11
153.979
 21
-11.9056
  0
LINE
  8
0
 10
153.979
 20
-11.9056
 11
153.721
 21
-12.2208
  0
LINE
  8
0
 10
153.721
 20
-12.2208
 11
153.406
 21
-12.4794
  0
LINE
  8
0
 10
153.406
 20
-12.4794
 11
153.046
 21
-12.6717
  0
LINE
  8
0
 10
153.046
 20
-12.6717
 11
152.656
 21
-12.79
  0
LINE
  8
0
 10
152.656
 20
-12.79
 11
152.25
 21
-12.83
  0
ENDSEC
  0
SECTION
  2
OBJECTS
  0
DICTIONARY
  0
ENDSEC
  0
EOF
