  0
SECTION
  2
BLOCKS
  0
ENDSEC
  0
SECTION
  2
ENTITIES
  0
LINE
  8
0
 10
190
 20
-12.9103
 11
190
 21
176
  0
LINE
  8
0
 10
190
 20
176
 11
-190
 21
176
  0
LINE
  8
0
 10
-190
 20
176
 11
-190
 21
-12.9103
  0
LINE
  8
0
 10
-190
 20
-12.9103
 11
-102.768
 21
-164
  0
LINE
  8
0
 10
-102.768
 20
-164
 11
102.768
 21
-164
  0
LINE
  8
0
 10
102.768
 20
-164
 11
190
 21
-12.9103
  0
LINE
  8
0
 10
-30.4058
 20
159.96
 11
-30.796
 21
160.078
  0
LINE
  8
0
 10
-30.796
 20
160.078
 11
-31.1556
 21
160.271
  0
LINE
  8
0
 10
-31.1556
 20
160.271
 11
-31.4708
 21
160.529
  0
LINE
  8
0
 10
-31.4708
 20
160.529
 11
-31.7294
 21
160.844
  0
LINE
  8
0
 10
-31.7294
 20
160.844
 11
-31.9217
 21
161.204
  0
LINE
  8
0
 10
-31.9217
 20
161.204
 11
-32.04
 21
161.594
  0
LINE
  8
0
 10
-32.04
 20
161.594
 11
-32.08
 21
162
  0
LINE
  8
0
 10
-32.08
 20
162
 11
-32.04
 21
162.406
  0
LINE
  8
0
 10
-32.04
 20
162.406
 11
-31.9217
 21
162.796
  0
LINE
  8
0
 10
-31.9217
 20
162.796
 11
-31.7294
 21
163.156
  0
LINE
  8
0
 10
-31.7294
 20
163.156
 11
-31.4708
 21
163.471
  0
LINE
  8
0
 10
-31.4708
 20
163.471
 11
-31.1556
 21
163.729
  0
LINE
  8
0
 10
-31.1556
 20
163.729
 11
-30.796
 21
163.922
  0
LINE
  8
0
 10
-30.796
 20
163.922
 11
-30.4058
 21
164.04
  0
LINE
  8
0
 10
-30.4058
 20
164.04
 11
-30
 21
164.08
  0
LINE
  8
0
 10
-30
 20
164.08
 11
-29.5942
 21
164.04
  0
LINE
  8
0
 10
-29.5942
 20
164.04
 11
-29.204
 21
163.922
  0
LINE
  8
0
 10
-29.204
 20
163.922
 11
-28.8444
 21
163.729
  0
LINE
  8
0
 10
-28.8444
 20
163.729
 11
-28.5292
 21
163.471
  0
LINE
  8
0
 10
-28.5292
 20
163.471
 11
-28.2705
 21
163.156
  0
LINE
  8
0
 10
-28.2705
 20
163.156
 11
-28.0783
 21
162.796
  0
LINE
  8
0
 10
-28.0783
 20
162.796
 11
-27.96
 21
162.406
  0
LINE
  8
0
 10
-27.96
 20
162.406
 11
-27.92
 21
162
  0
LINE
  8
0
 10
-27.92
 20
162
 11
-27.96
 21
161.594
  0
LINE
  8
0
 10
-27.96
 20
161.594
 11
-28.0783
 21
161.204
  0
LINE
  8
0
 10
-28.0783
 20
161.204
 11
-28.2705
 21
160.844
  0
LINE
  8
0
 10
-28.2705
 20
160.844
 11
-28.5292
 21
160.529
  0
LINE
  8
0
 10
-28.5292
 20
160.529
 11
-28.8444
 21
160.271
  0
LINE
  8
0
 10
-28.8444
 20
160.271
 11
-29.204
 21
160.078
  0
LINE
  8
0
 10
-29.204
 20
160.078
 11
-29.5942
 21
159.96
  0
LINE
  8
0
 10
-29.5942
 20
159.96
 11
-30
 21
159.92
  0
LINE
  8
0
 10
-30
 20
159.92
 11
-30.4058
 21
159.96
  0
LINE
  8
0
 10
56.5942
 20
159.96
 11
56.204
 21
160.078
  0
LINE
  8
0
 10
56.204
 20
160.078
 11
55.8444
 21
160.271
  0
LINE
  8
0
 10
55.8444
 20
160.271
 11
55.5292
 21
160.529
  0
LINE
  8
0
 10
55.5292
 20
160.529
 11
55.2705
 21
160.844
  0
LINE
  8
0
 10
55.2705
 20
160.844
 11
55.0783
 21
161.204
  0
LINE
  8
0
 10
55.0783
 20
161.204
 11
54.96
 21
161.594
  0
LINE
  8
0
 10
54.96
 20
161.594
 11
54.92
 21
162
  0
LINE
  8
0
 10
54.92
 20
162
 11
54.96
 21
162.406
  0
LINE
  8
0
 10
54.96
 20
162.406
 11
55.0783
 21
162.796
  0
LINE
  8
0
 10
55.0783
 20
162.796
 11
55.2705
 21
163.156
  0
LINE
  8
0
 10
55.2705
 20
163.156
 11
55.5292
 21
163.471
  0
LINE
  8
0
 10
55.5292
 20
163.471
 11
55.8444
 21
163.729
  0
LINE
  8
0
 10
55.8444
 20
163.729
 11
56.204
 21
163.922
  0
LINE
  8
0
 10
56.204
 20
163.922
 11
56.5942
 21
164.04
  0
LINE
  8
0
 10
56.5942
 20
164.04
 11
57
 21
164.08
  0
LINE
  8
0
 10
57
 20
164.08
 11
57.4058
 21
164.04
  0
LINE
  8
0
 10
57.4058
 20
164.04
 11
57.796
 21
163.922
  0
LINE
  8
0
 10
57.796
 20
163.922
 11
58.1556
 21
163.729
  0
LINE
  8
0
 10
58.1556
 20
163.729
 11
58.4708
 21
163.471
  0
LINE
  8
0
 10
58.4708
 20
163.471
 11
58.7294
 21
163.156
  0
LINE
  8
0
 10
58.7294
 20
163.156
 11
58.9217
 21
162.796
  0
LINE
  8
0
 10
58.9217
 20
162.796
 11
59.04
 21
162.406
  0
LINE
  8
0
 10
59.04
 20
162.406
 11
59.08
 21
162
  0
LINE
  8
0
 10
59.08
 20
162
 11
59.04
 21
161.594
  0
LINE
  8
0
 10
59.04
 20
161.594
 11
58.9217
 21
161.204
  0
LINE
  8
0
 10
58.9217
 20
161.204
 11
58.7294
 21
160.844
  0
LINE
  8
0
 10
58.7294
 20
160.844
 11
58.4708
 21
160.529
  0
LINE
  8
0
 10
58.4708
 20
160.529
 11
58.1556
 21
160.271
  0
LINE
  8
0
 10
58.1556
 20
160.271
 11
57.796
 21
160.078
  0
LINE
  8
0
 10
57.796
 20
160.078
 11
57.4058
 21
159.96
  0
LINE
  8
0
 10
57.4058
 20
159.96
 11
57
 21
159.92
  0
LINE
  8
0
 10
57
 20
159.92
 11
56.5942
 21
159.96
  0
LINE
  8
0
 10
-57.4058
 20
159.96
 11
-57.796
 21
160.078
  0
LINE
  8
0
 10
-57.796
 20
160.078
 11
-58.1556
 21
160.271
  0
LINE
  8
0
 10
-58.1556
 20
160.271
 11
-58.4708
 21
160.529
  0
LINE
  8
0
 10
-58.4708
 20
160.529
 11
-58.7294
 21
160.844
  0
LINE
  8
0
 10
-58.7294
 20
160.844
 11
-58.9217
 21
161.204
  0
LINE
  8
0
 10
-58.9217
 20
161.204
 11
-59.04
 21
161.594
  0
LINE
  8
0
 10
-59.04
 20
161.594
 11
-59.08
 21
162
  0
LINE
  8
0
 10
-59.08
 20
162
 11
-59.04
 21
162.406
  0
LINE
  8
0
 10
-59.04
 20
162.406
 11
-58.9217
 21
162.796
  0
LINE
  8
0
 10
-58.9217
 20
162.796
 11
-58.7294
 21
163.156
  0
LINE
  8
0
 10
-58.7294
 20
163.156
 11
-58.4708
 21
163.471
  0
LINE
  8
0
 10
-58.4708
 20
163.471
 11
-58.1556
 21
163.729
  0
LINE
  8
0
 10
-58.1556
 20
163.729
 11
-57.796
 21
163.922
  0
LINE
  8
0
 10
-57.796
 20
163.922
 11
-57.4058
 21
164.04
  0
LINE
  8
0
 10
-57.4058
 20
164.04
 11
-57
 21
164.08
  0
LINE
  8
0
 10
-57
 20
164.08
 11
-56.5942
 21
164.04
  0
LINE
  8
0
 10
-56.5942
 20
164.04
 11
-56.204
 21
163.922
  0
LINE
  8
0
 10
-56.204
 20
163.922
 11
-55.8444
 21
163.729
  0
LINE
  8
0
 10
-55.8444
 20
163.729
 11
-55.5292
 21
163.471
  0
LINE
  8
0
 10
-55.5292
 20
163.471
 11
-55.2705
 21
163.156
  0
LINE
  8
0
 10
-55.2705
 20
163.156
 11
-55.0783
 21
162.796
  0
LINE
  8
0
 10
-55.0783
 20
162.796
 11
-54.96
 21
162.406
  0
LINE
  8
0
 10
-54.96
 20
162.406
 11
-54.92
 21
162
  0
LINE
  8
0
 10
-54.92
 20
162
 11
-54.96
 21
161.594
  0
LINE
  8
0
 10
-54.96
 20
161.594
 11
-55.0783
 21
161.204
  0
LINE
  8
0
 10
-55.0783
 20
161.204
 11
-55.2705
 21
160.844
  0
LINE
  8
0
 10
-55.2705
 20
160.844
 11
-55.5292
 21
160.529
  0
LINE
  8
0
 10
-55.5292
 20
160.529
 11
-55.8444
 21
160.271
  0
LINE
  8
0
 10
-55.8444
 20
160.271
 11
-56.204
 21
160.078
  0
LINE
  8
0
 10
-56.204
 20
160.078
 11
-56.5942
 21
159.96
  0
LINE
  8
0
 10
-56.5942
 20
159.96
 11
-57
 21
159.92
  0
LINE
  8
0
 10
-57
 20
159.92
 11
-57.4058
 21
159.96
  0
LINE
  8
0
 10
149.594
 20
159.96
 11
149.204
 21
160.078
  0
LINE
  8
0
 10
149.204
 20
160.078
 11
148.844
 21
160.271
  0
LINE
  8
0
 10
148.844
 20
160.271
 11
148.529
 21
160.529
  0
LINE
  8
0
 10
148.529
 20
160.529
 11
148.271
 21
160.844
  0
LINE
  8
0
 10
148.271
 20
160.844
 11
148.078
 21
161.204
  0
LINE
  8
0
 10
148.078
 20
161.204
 11
147.96
 21
161.594
  0
LINE
  8
0
 10
147.96
 20
161.594
 11
147.92
 21
162
  0
LINE
  8
0
 10
147.92
 20
162
 11
147.96
 21
162.406
  0
LINE
  8
0
 10
147.96
 20
162.406
 11
148.078
 21
162.796
  0
LINE
  8
0
 10
148.078
 20
162.796
 11
148.271
 21
163.156
  0
LINE
  8
0
 10
148.271
 20
163.156
 11
148.529
 21
163.471
  0
LINE
  8
0
 10
148.529
 20
163.471
 11
148.844
 21
163.729
  0
LINE
  8
0
 10
148.844
 20
163.729
 11
149.204
 21
163.922
  0
LINE
  8
0
 10
149.204
 20
163.922
 11
149.594
 21
164.04
  0
LINE
  8
0
 10
149.594
 20
164.04
 11
150
 21
164.08
  0
LINE
  8
0
 10
150
 20
164.08
 11
150.406
 21
164.04
  0
LINE
  8
0
 10
150.406
 20
164.04
 11
150.796
 21
163.922
  0
LINE
  8
0
 10
150.796
 20
163.922
 11
151.156
 21
163.729
  0
LINE
  8
0
 10
151.156
 20
163.729
 11
151.471
 21
163.471
  0
LINE
  8
0
 10
151.471
 20
163.471
 11
151.729
 21
163.156
  0
LINE
  8
0
 10
151.729
 20
163.156
 11
151.922
 21
162.796
  0
LINE
  8
0
 10
151.922
 20
162.796
 11
152.04
 21
162.406
  0
LINE
  8
0
 10
152.04
 20
162.406
 11
152.08
 21
162
  0
LINE
  8
0
 10
152.08
 20
162
 11
152.04
 21
161.594
  0
LINE
  8
0
 10
152.04
 20
161.594
 11
151.922
 21
161.204
  0
LINE
  8
0
 10
151.922
 20
161.204
 11
151.729
 21
160.844
  0
LINE
  8
0
 10
151.729
 20
160.844
 11
151.471
 21
160.529
  0
LINE
  8
0
 10
151.471
 20
160.529
 11
151.156
 21
160.271
  0
LINE
  8
0
 10
151.156
 20
160.271
 11
150.796
 21
160.078
  0
LINE
  8
0
 10
150.796
 20
160.078
 11
150.406
 21
159.96
  0
LINE
  8
0
 10
150.406
 20
159.96
 11
150
 21
159.92
  0
LINE
  8
0
 10
150
 20
159.92
 11
149.594
 21
159.96
  0
LINE
  8
0
 10
-150.406
 20
159.96
 11
-150.796
 21
160.078
  0
LINE
  8
0
 10
-150.796
 20
160.078
 11
-151.156
 21
160.271
  0
LINE
  8
0
 10
-151.156
 20
160.271
 11
-151.471
 21
160.529
  0
LINE
  8
0
 10
-151.471
 20
160.529
 11
-151.729
 21
160.844
  0
LINE
  8
0
 10
-151.729
 20
160.844
 11
-151.922
 21
161.204
  0
LINE
  8
0
 10
-151.922
 20
161.204
 11
-152.04
 21
161.594
  0
LINE
  8
0
 10
-152.04
 20
161.594
 11
-152.08
 21
162
  0
LINE
  8
0
 10
-152.08
 20
162
 11
-152.04
 21
162.406
  0
LINE
  8
0
 10
-152.04
 20
162.406
 11
-151.922
 21
162.796
  0
LINE
  8
0
 10
-151.922
 20
162.796
 11
-151.729
 21
163.156
  0
LINE
  8
0
 10
-151.729
 20
163.156
 11
-151.471
 21
163.471
  0
LINE
  8
0
 10
-151.471
 20
163.471
 11
-151.156
 21
163.729
  0
LINE
  8
0
 10
-151.156
 20
163.729
 11
-150.796
 21
163.922
  0
LINE
  8
0
 10
-150.796
 20
163.922
 11
-150.406
 21
164.04
  0
LINE
  8
0
 10
-150.406
 20
164.04
 11
-150
 21
164.08
  0
LINE
  8
0
 10
-150
 20
164.08
 11
-149.594
 21
164.04
  0
LINE
  8
0
 10
-149.594
 20
164.04
 11
-149.204
 21
163.922
  0
LINE
  8
0
 10
-149.204
 20
163.922
 11
-148.844
 21
163.729
  0
LINE
  8
0
 10
-148.844
 20
163.729
 11
-148.529
 21
163.471
  0
LINE
  8
0
 10
-148.529
 20
163.471
 11
-148.271
 21
163.156
  0
LINE
  8
0
 10
-148.271
 20
163.156
 11
-148.078
 21
162.796
  0
LINE
  8
0
 10
-148.078
 20
162.796
 11
-147.96
 21
162.406
  0
LINE
  8
0
 10
-147.96
 20
162.406
 11
-147.92
 21
162
  0
LINE
  8
0
 10
-147.92
 20
162
 11
-147.96
 21
161.594
  0
LINE
  8
0
 10
-147.96
 20
161.594
 11
-148.078
 21
161.204
  0
LINE
  8
0
 10
-148.078
 20
161.204
 11
-148.271
 21
160.844
  0
LINE
  8
0
 10
-148.271
 20
160.844
 11
-148.529
 21
160.529
  0
LINE
  8
0
 10
-148.529
 20
160.529
 11
-148.844
 21
160.271
  0
LINE
  8
0
 10
-148.844
 20
160.271
 11
-149.204
 21
160.078
  0
LINE
  8
0
 10
-149.204
 20
160.078
 11
-149.594
 21
159.96
  0
LINE
  8
0
 10
-149.594
 20
159.96
 11
-150
 21
159.92
  0
LINE
  8
0
 10
-150
 20
159.92
 11
-150.406
 21
159.96
  0
LINE
  8
0
 10
-1.96651
 20
130.114
 11
-3.85744
 21
130.687
  0
LINE
  8
0
 10
-3.85744
 20
130.687
 11
-5.60014
 21
131.619
  0
LINE
  8
0
 10
-5.60014
 20
131.619
 11
-7.12762
 21
132.872
  0
LINE
  8
0
 10
-7.12762
 20
132.872
 11
-8.38121
 21
134.4
  0
LINE
  8
0
 10
-8.38121
 20
134.4
 11
-9.3127
 21
136.143
  0
LINE
  8
0
 10
-9.3127
 20
136.143
 11
-9.88631
 21
138.033
  0
LINE
  8
0
 10
-9.88631
 20
138.033
 11
-10.08
 21
140
  0
LINE
  8
0
 10
-10.08
 20
140
 11
-9.88631
 21
141.967
  0
LINE
  8
0
 10
-9.88631
 20
141.967
 11
-9.3127
 21
143.857
  0
LINE
  8
0
 10
-9.3127
 20
143.857
 11
-8.38121
 21
145.6
  0
LINE
  8
0
 10
-8.38121
 20
145.6
 11
-7.12762
 21
147.128
  0
LINE
  8
0
 10
-7.12762
 20
147.128
 11
-5.60014
 21
148.381
  0
LINE
  8
0
 10
-5.60014
 20
148.381
 11
-3.85744
 21
149.313
  0
LINE
  8
0
 10
-3.85744
 20
149.313
 11
-1.96651
 21
149.886
  0
LINE
  8
0
 10
-1.96651
 20
149.886
 11
0
 21
150.08
  0
LINE
  8
0
 10
0
 20
150.08
 11
1.96651
 21
149.886
  0
LINE
  8
0
 10
1.96651
 20
149.886
 11
3.85744
 21
149.313
  0
LINE
  8
0
 10
3.85744
 20
149.313
 11
5.60014
 21
148.381
  0
LINE
  8
0
 10
5.60014
 20
148.381
 11
7.12762
 21
147.128
  0
LINE
  8
0
 10
7.12762
 20
147.128
 11
8.38121
 21
145.6
  0
LINE
  8
0
 10
8.38121
 20
145.6
 11
9.3127
 21
143.857
  0
LINE
  8
0
 10
9.3127
 20
143.857
 11
9.88631
 21
141.967
  0
LINE
  8
0
 10
9.88631
 20
141.967
 11
10.08
 21
140
  0
LINE
  8
0
 10
10.08
 20
140
 11
9.88631
 21
138.033
  0
LINE
  8
0
 10
9.88631
 20
138.033
 11
9.3127
 21
136.143
  0
LINE
  8
0
 10
9.3127
 20
136.143
 11
8.38121
 21
134.4
  0
LINE
  8
0
 10
8.38121
 20
134.4
 11
7.12762
 21
132.872
  0
LINE
  8
0
 10
7.12762
 20
132.872
 11
5.60014
 21
131.619
  0
LINE
  8
0
 10
5.60014
 20
131.619
 11
3.85744
 21
130.687
  0
LINE
  8
0
 10
3.85744
 20
130.687
 11
1.96651
 21
130.114
  0
LINE
  8
0
 10
1.96651
 20
130.114
 11
0
 21
129.92
  0
LINE
  8
0
 10
0
 20
129.92
 11
-1.96651
 21
130.114
  0
LINE
  8
0
 10
-22.4058
 20
144.46
 11
-22.796
 21
144.578
  0
LINE
  8
0
 10
-22.796
 20
144.578
 11
-23.1556
 21
144.771
  0
LINE
  8
0
 10
-23.1556
 20
144.771
 11
-23.4708
 21
145.029
  0
LINE
  8
0
 10
-23.4708
 20
145.029
 11
-23.7294
 21
145.344
  0
LINE
  8
0
 10
-23.7294
 20
145.344
 11
-23.9217
 21
145.704
  0
LINE
  8
0
 10
-23.9217
 20
145.704
 11
-24.04
 21
146.094
  0
LINE
  8
0
 10
-24.04
 20
146.094
 11
-24.08
 21
146.5
  0
LINE
  8
0
 10
-24.08
 20
146.5
 11
-24.04
 21
146.906
  0
LINE
  8
0
 10
-24.04
 20
146.906
 11
-23.9217
 21
147.296
  0
LINE
  8
0
 10
-23.9217
 20
147.296
 11
-23.7294
 21
147.656
  0
LINE
  8
0
 10
-23.7294
 20
147.656
 11
-23.4708
 21
147.971
  0
LINE
  8
0
 10
-23.4708
 20
147.971
 11
-23.1556
 21
148.229
  0
LINE
  8
0
 10
-23.1556
 20
148.229
 11
-22.796
 21
148.422
  0
LINE
  8
0
 10
-22.796
 20
148.422
 11
-22.4058
 21
148.54
  0
LINE
  8
0
 10
-22.4058
 20
148.54
 11
-22
 21
148.58
  0
LINE
  8
0
 10
-22
 20
148.58
 11
-21.5942
 21
148.54
  0
LINE
  8
0
 10
-21.5942
 20
148.54
 11
-21.204
 21
148.422
  0
LINE
  8
0
 10
-21.204
 20
148.422
 11
-20.8444
 21
148.229
  0
LINE
  8
0
 10
-20.8444
 20
148.229
 11
-20.5292
 21
147.971
  0
LINE
  8
0
 10
-20.5292
 20
147.971
 11
-20.2705
 21
147.656
  0
LINE
  8
0
 10
-20.2705
 20
147.656
 11
-20.0783
 21
147.296
  0
LINE
  8
0
 10
-20.0783
 20
147.296
 11
-19.96
 21
146.906
  0
LINE
  8
0
 10
-19.96
 20
146.906
 11
-19.92
 21
146.5
  0
LINE
  8
0
 10
-19.92
 20
146.5
 11
-19.96
 21
146.094
  0
LINE
  8
0
 10
-19.96
 20
146.094
 11
-20.0783
 21
145.704
  0
LINE
  8
0
 10
-20.0783
 20
145.704
 11
-20.2705
 21
145.344
  0
LINE
  8
0
 10
-20.2705
 20
145.344
 11
-20.5292
 21
145.029
  0
LINE
  8
0
 10
-20.5292
 20
145.029
 11
-20.8444
 21
144.771
  0
LINE
  8
0
 10
-20.8444
 20
144.771
 11
-21.204
 21
144.578
  0
LINE
  8
0
 10
-21.204
 20
144.578
 11
-21.5942
 21
144.46
  0
LINE
  8
0
 10
-21.5942
 20
144.46
 11
-22
 21
144.42
  0
LINE
  8
0
 10
-22
 20
144.42
 11
-22.4058
 21
144.46
  0
LINE
  8
0
 10
21.5942
 20
144.46
 11
21.204
 21
144.578
  0
LINE
  8
0
 10
21.204
 20
144.578
 11
20.8444
 21
144.771
  0
LINE
  8
0
 10
20.8444
 20
144.771
 11
20.5292
 21
145.029
  0
LINE
  8
0
 10
20.5292
 20
145.029
 11
20.2705
 21
145.344
  0
LINE
  8
0
 10
20.2705
 20
145.344
 11
20.0783
 21
145.704
  0
LINE
  8
0
 10
20.0783
 20
145.704
 11
19.96
 21
146.094
  0
LINE
  8
0
 10
19.96
 20
146.094
 11
19.92
 21
146.5
  0
LINE
  8
0
 10
19.92
 20
146.5
 11
19.96
 21
146.906
  0
LINE
  8
0
 10
19.96
 20
146.906
 11
20.0783
 21
147.296
  0
LINE
  8
0
 10
20.0783
 20
147.296
 11
20.2705
 21
147.656
  0
LINE
  8
0
 10
20.2705
 20
147.656
 11
20.5292
 21
147.971
  0
LINE
  8
0
 10
20.5292
 20
147.971
 11
20.8444
 21
148.229
  0
LINE
  8
0
 10
20.8444
 20
148.229
 11
21.204
 21
148.422
  0
LINE
  8
0
 10
21.204
 20
148.422
 11
21.5942
 21
148.54
  0
LINE
  8
0
 10
21.5942
 20
148.54
 11
22
 21
148.58
  0
LINE
  8
0
 10
22
 20
148.58
 11
22.4058
 21
148.54
  0
LINE
  8
0
 10
22.4058
 20
148.54
 11
22.796
 21
148.422
  0
LINE
  8
0
 10
22.796
 20
148.422
 11
23.1556
 21
148.229
  0
LINE
  8
0
 10
23.1556
 20
148.229
 11
23.4708
 21
147.971
  0
LINE
  8
0
 10
23.4708
 20
147.971
 11
23.7294
 21
147.656
  0
LINE
  8
0
 10
23.7294
 20
147.656
 11
23.9217
 21
147.296
  0
LINE
  8
0
 10
23.9217
 20
147.296
 11
24.04
 21
146.906
  0
LINE
  8
0
 10
24.04
 20
146.906
 11
24.08
 21
146.5
  0
LINE
  8
0
 10
24.08
 20
146.5
 11
24.04
 21
146.094
  0
LINE
  8
0
 10
24.04
 20
146.094
 11
23.9217
 21
145.704
  0
LINE
  8
0
 10
23.9217
 20
145.704
 11
23.7294
 21
145.344
  0
LINE
  8
0
 10
23.7294
 20
145.344
 11
23.4708
 21
145.029
  0
LINE
  8
0
 10
23.4708
 20
145.029
 11
23.1556
 21
144.771
  0
LINE
  8
0
 10
23.1556
 20
144.771
 11
22.796
 21
144.578
  0
LINE
  8
0
 10
22.796
 20
144.578
 11
22.4058
 21
144.46
  0
LINE
  8
0
 10
22.4058
 20
144.46
 11
22
 21
144.42
  0
LINE
  8
0
 10
22
 20
144.42
 11
21.5942
 21
144.46
  0
LINE
  8
0
 10
-170.124
 20
38.6125
 11
-172.525
 21
39.1725
  0
LINE
  8
0
 10
-172.525
 20
39.1725
 11
-174.772
 21
40.1903
  0
LINE
  8
0
 10
-174.772
 20
40.1903
 11
-176.776
 21
41.6268
  0
LINE
  8
0
 10
-176.776
 20
41.6268
 11
-178.462
 21
43.4267
  0
LINE
  8
0
 10
-178.462
 20
43.4267
 11
-179.764
 21
45.5209
  0
LINE
  8
0
 10
-179.764
 20
45.5209
 11
-180.633
 21
47.829
  0
LINE
  8
0
 10
-180.633
 20
47.829
 11
-181.035
 21
50.2622
  0
LINE
  8
0
 10
-181.035
 20
50.2622
 11
-180.954
 21
52.7269
  0
LINE
  8
0
 10
-180.954
 20
52.7269
 11
-180.394
 21
55.1286
  0
LINE
  8
0
 10
-180.394
 20
55.1286
 11
-179.376
 21
57.3749
  0
LINE
  8
0
 10
-179.376
 20
57.3749
 11
-154.376
 21
100.676
  0
LINE
  8
0
 10
-154.376
 20
100.676
 11
-152.94
 21
102.681
  0
LINE
  8
0
 10
-152.94
 20
102.681
 11
-151.14
 21
104.367
  0
LINE
  8
0
 10
-151.14
 20
104.367
 11
-149.046
 21
105.669
  0
LINE
  8
0
 10
-149.046
 20
105.669
 11
-146.738
 21
106.538
  0
LINE
  8
0
 10
-146.738
 20
106.538
 11
-144.304
 21
106.939
  0
LINE
  8
0
 10
-144.304
 20
106.939
 11
-141.84
 21
106.859
  0
LINE
  8
0
 10
-141.84
 20
106.859
 11
-139.438
 21
106.299
  0
LINE
  8
0
 10
-139.438
 20
106.299
 11
-137.192
 21
105.281
  0
LINE
  8
0
 10
-137.192
 20
105.281
 11
-135.187
 21
103.844
  0
LINE
  8
0
 10
-135.187
 20
103.844
 11
-133.501
 21
102.044
  0
LINE
  8
0
 10
-133.501
 20
102.044
 11
-132.199
 21
99.9502
  0
LINE
  8
0
 10
-132.199
 20
99.9502
 11
-131.33
 21
97.6422
  0
LINE
  8
0
 10
-131.33
 20
97.6422
 11
-130.929
 21
95.209
  0
LINE
  8
0
 10
-130.929
 20
95.209
 11
-131.009
 21
92.7442
  0
LINE
  8
0
 10
-131.009
 20
92.7442
 11
-131.569
 21
90.3425
  0
LINE
  8
0
 10
-131.569
 20
90.3425
 11
-132.587
 21
88.0962
  0
LINE
  8
0
 10
-132.587
 20
88.0962
 11
-157.587
 21
44.7949
  0
LINE
  8
0
 10
-157.587
 20
44.7949
 11
-159.024
 21
42.7904
  0
LINE
  8
0
 10
-159.024
 20
42.7904
 11
-160.823
 21
41.1046
  0
LINE
  8
0
 10
-160.823
 20
41.1046
 11
-162.918
 21
39.8023
  0
LINE
  8
0
 10
-162.918
 20
39.8023
 11
-165.226
 21
38.9336
  0
LINE
  8
0
 10
-165.226
 20
38.9336
 11
-167.659
 21
38.5319
  0
LINE
  8
0
 10
-167.659
 20
38.5319
 11
-170.124
 21
38.6125
  0
LINE
  8
0
 10
-0.308228
 20
-1.54964
 11
-0.60463
 21
-1.45972
  0
LINE
  8
0
 10
-0.60463
 20
-1.45972
 11
-0.877792
 21
-1.31372
  0
LINE
  8
0
 10
-0.877792
 20
-1.31372
 11
-1.11722
 21
-1.11722
  0
LINE
  8
0
 10
-1.11722
 20
-1.11722
 11
-1.31372
 21
-0.877792
  0
LINE
  8
0
 10
-1.31372
 20
-0.877792
 11
-1.45972
 21
-0.60463
  0
LINE
  8
0
 10
-1.45972
 20
-0.60463
 11
-1.54964
 21
-0.308228
  0
LINE
  8
0
 10
-1.54964
 20
-0.308228
 11
-1.57999
 21
0
  0
LINE
  8
0
 10
-1.57999
 20
0
 11
-1.54964
 21
0.308228
  0
LINE
  8
0
 10
-1.54964
 20
0.308228
 11
-1.45972
 21
0.60463
  0
LINE
  8
0
 10
-1.45972
 20
0.60463
 11
-1.31372
 21
0.877792
  0
LINE
  8
0
 10
-1.31372
 20
0.877792
 11
-1.11722
 21
1.11722
  0
LINE
  8
0
 10
-1.11722
 20
1.11722
 11
-0.877792
 21
1.31372
  0
LINE
  8
0
 10
-0.877792
 20
1.31372
 11
-0.60463
 21
1.45972
  0
LINE
  8
0
 10
-0.60463
 20
1.45972
 11
-0.308228
 21
1.54964
  0
LINE
  8
0
 10
-0.308228
 20
1.54964
 11
0
 21
1.57999
  0
LINE
  8
0
 10
0
 20
1.57999
 11
0.308228
 21
1.54964
  0
LINE
  8
0
 10
0.308228
 20
1.54964
 11
0.60463
 21
1.45972
  0
LINE
  8
0
 10
0.60463
 20
1.45972
 11
0.877792
 21
1.31372
  0
LINE
  8
0
 10
0.877792
 20
1.31372
 11
1.11722
 21
1.11722
  0
LINE
  8
0
 10
1.11722
 20
1.11722
 11
1.31372
 21
0.877792
  0
LINE
  8
0
 10
1.31372
 20
0.877792
 11
1.45972
 21
0.60463
  0
LINE
  8
0
 10
1.45972
 20
0.60463
 11
1.54964
 21
0.308228
  0
LINE
  8
0
 10
1.54964
 20
0.308228
 11
1.57999
 21
0
  0
LINE
  8
0
 10
1.57999
 20
0
 11
1.54964
 21
-0.308228
  0
LINE
  8
0
 10
1.54964
 20
-0.308228
 11
1.45972
 21
-0.60463
  0
LINE
  8
0
 10
1.45972
 20
-0.60463
 11
1.31372
 21
-0.877792
  0
LINE
  8
0
 10
1.31372
 20
-0.877792
 11
1.11722
 21
-1.11722
  0
LINE
  8
0
 10
1.11722
 20
-1.11722
 11
0.877792
 21
-1.31372
  0
LINE
  8
0
 10
0.877792
 20
-1.31372
 11
0.60463
 21
-1.45972
  0
LINE
  8
0
 10
0.60463
 20
-1.45972
 11
0.308228
 21
-1.54964
  0
LINE
  8
0
 10
0.308228
 20
-1.54964
 11
0
 21
-1.57999
  0
LINE
  8
0
 10
0
 20
-1.57999
 11
-0.308228
 21
-1.54964
  0
LINE
  8
0
 10
-169.334
 20
-33.6457
 11
-169.716
 21
-33.502
  0
LINE
  8
0
 10
-169.716
 20
-33.502
 11
-170.062
 21
-33.2867
  0
LINE
  8
0
 10
-170.062
 20
-33.2867
 11
-170.36
 21
-33.008
  0
LINE
  8
0
 10
-170.36
 20
-33.008
 11
-170.597
 21
-32.6765
  0
LINE
  8
0
 10
-170.597
 20
-32.6765
 11
-170.766
 21
-32.3051
  0
LINE
  8
0
 10
-170.766
 20
-32.3051
 11
-170.858
 21
-31.908
  0
LINE
  8
0
 10
-170.858
 20
-31.908
 11
-170.872
 21
-31.5005
  0
LINE
  8
0
 10
-170.872
 20
-31.5005
 11
-170.805
 21
-31.0982
  0
LINE
  8
0
 10
-170.805
 20
-31.0982
 11
-170.662
 21
-30.7166
  0
LINE
  8
0
 10
-170.662
 20
-30.7166
 11
-170.446
 21
-30.3703
  0
LINE
  8
0
 10
-170.446
 20
-30.3703
 11
-170.168
 21
-30.0727
  0
LINE
  8
0
 10
-170.168
 20
-30.0727
 11
-169.836
 21
-29.8352
  0
LINE
  8
0
 10
-169.836
 20
-29.8352
 11
-169.465
 21
-29.6669
  0
LINE
  8
0
 10
-169.465
 20
-29.6669
 11
-169.068
 21
-29.5743
  0
LINE
  8
0
 10
-169.068
 20
-29.5743
 11
-168.66
 21
-29.561
  0
LINE
  8
0
 10
-168.66
 20
-29.561
 11
-168.258
 21
-29.6274
  0
LINE
  8
0
 10
-168.258
 20
-29.6274
 11
-167.876
 21
-29.7711
  0
LINE
  8
0
 10
-167.876
 20
-29.7711
 11
-167.53
 21
-29.9864
  0
LINE
  8
0
 10
-167.53
 20
-29.9864
 11
-167.232
 21
-30.2651
  0
LINE
  8
0
 10
-167.232
 20
-30.2651
 11
-166.995
 21
-30.5965
  0
LINE
  8
0
 10
-166.995
 20
-30.5965
 11
-166.826
 21
-30.968
  0
LINE
  8
0
 10
-166.826
 20
-30.968
 11
-166.734
 21
-31.3651
  0
LINE
  8
0
 10
-166.734
 20
-31.3651
 11
-166.721
 21
-31.7726
  0
LINE
  8
0
 10
-166.721
 20
-31.7726
 11
-166.787
 21
-32.1749
  0
LINE
  8
0
 10
-166.787
 20
-32.1749
 11
-166.931
 21
-32.5565
  0
LINE
  8
0
 10
-166.931
 20
-32.5565
 11
-167.146
 21
-32.9028
  0
LINE
  8
0
 10
-167.146
 20
-32.9028
 11
-167.425
 21
-33.2004
  0
LINE
  8
0
 10
-167.425
 20
-33.2004
 11
-167.756
 21
-33.4379
  0
LINE
  8
0
 10
-167.756
 20
-33.4379
 11
-168.128
 21
-33.6062
  0
LINE
  8
0
 10
-168.128
 20
-33.6062
 11
-168.525
 21
-33.6987
  0
LINE
  8
0
 10
-168.525
 20
-33.6987
 11
-168.932
 21
-33.7121
  0
LINE
  8
0
 10
-168.932
 20
-33.7121
 11
-169.334
 21
-33.6457
  0
LINE
  8
0
 10
168.525
 20
-33.6987
 11
168.128
 21
-33.6062
  0
LINE
  8
0
 10
168.128
 20
-33.6062
 11
167.756
 21
-33.4379
  0
LINE
  8
0
 10
167.756
 20
-33.4379
 11
167.425
 21
-33.2004
  0
LINE
  8
0
 10
167.425
 20
-33.2004
 11
167.146
 21
-32.9028
  0
LINE
  8
0
 10
167.146
 20
-32.9028
 11
166.931
 21
-32.5565
  0
LINE
  8
0
 10
166.931
 20
-32.5565
 11
166.787
 21
-32.1749
  0
LINE
  8
0
 10
166.787
 20
-32.1749
 11
166.721
 21
-31.7726
  0
LINE
  8
0
 10
166.721
 20
-31.7726
 11
166.734
 21
-31.3651
  0
LINE
  8
0
 10
166.734
 20
-31.3651
 11
166.826
 21
-30.968
  0
LINE
  8
0
 10
166.826
 20
-30.968
 11
166.995
 21
-30.5965
  0
LINE
  8
0
 10
166.995
 20
-30.5965
 11
167.232
 21
-30.2651
  0
LINE
  8
0
 10
167.232
 20
-30.2651
 11
167.53
 21
-29.9864
  0
LINE
  8
0
 10
167.53
 20
-29.9864
 11
167.876
 21
-29.7711
  0
LINE
  8
0
 10
167.876
 20
-29.7711
 11
168.258
 21
-29.6274
  0
LINE
  8
0
 10
168.258
 20
-29.6274
 11
168.66
 21
-29.561
  0
LINE
  8
0
 10
168.66
 20
-29.561
 11
169.068
 21
-29.5743
  0
LINE
  8
0
 10
169.068
 20
-29.5743
 11
169.465
 21
-29.6669
  0
LINE
  8
0
 10
169.465
 20
-29.6669
 11
169.836
 21
-29.8352
  0
LINE
  8
0
 10
169.836
 20
-29.8352
 11
170.168
 21
-30.0727
  0
LINE
  8
0
 10
170.168
 20
-30.0727
 11
170.446
 21
-30.3703
  0
LINE
  8
0
 10
170.446
 20
-30.3703
 11
170.662
 21
-30.7166
  0
LINE
  8
0
 10
170.662
 20
-30.7166
 11
170.805
 21
-31.0982
  0
LINE
  8
0
 10
170.805
 20
-31.0982
 11
170.872
 21
-31.5005
  0
LINE
  8
0
 10
170.872
 20
-31.5005
 11
170.858
 21
-31.908
  0
LINE
  8
0
 10
170.858
 20
-31.908
 11
170.766
 21
-32.3051
  0
LINE
  8
0
 10
170.766
 20
-32.3051
 11
170.597
 21
-32.6765
  0
LINE
  8
0
 10
170.597
 20
-32.6765
 11
170.36
 21
-33.008
  0
LINE
  8
0
 10
170.36
 20
-33.008
 11
170.062
 21
-33.2867
  0
LINE
  8
0
 10
170.062
 20
-33.2867
 11
169.716
 21
-33.502
  0
LINE
  8
0
 10
169.716
 20
-33.502
 11
169.334
 21
-33.6457
  0
LINE
  8
0
 10
169.334
 20
-33.6457
 11
168.932
 21
-33.7121
  0
LINE
  8
0
 10
168.932
 20
-33.7121
 11
168.525
 21
-33.6987
  0
LINE
  8
0
 10
137.601
 20
-56.2596
 11
137.204
 21
-56.1671
  0
LINE
  8
0
 10
137.204
 20
-56.1671
 11
136.833
 21
-55.9988
  0
LINE
  8
0
 10
136.833
 20
-55.9988
 11
136.501
 21
-55.7613
  0
LINE
  8
0
 10
136.501
 20
-55.7613
 11
136.223
 21
-55.4637
  0
LINE
  8
0
 10
136.223
 20
-55.4637
 11
136.007
 21
-55.1174
  0
LINE
  8
0
 10
136.007
 20
-55.1174
 11
135.864
 21
-54.7358
  0
LINE
  8
0
 10
135.864
 20
-54.7358
 11
135.797
 21
-54.3335
  0
LINE
  8
0
 10
135.797
 20
-54.3335
 11
135.811
 21
-53.9259
  0
LINE
  8
0
 10
135.811
 20
-53.9259
 11
135.903
 21
-53.5288
  0
LINE
  8
0
 10
135.903
 20
-53.5288
 11
136.071
 21
-53.1574
  0
LINE
  8
0
 10
136.071
 20
-53.1574
 11
136.309
 21
-52.826
  0
LINE
  8
0
 10
136.309
 20
-52.826
 11
136.606
 21
-52.5473
  0
LINE
  8
0
 10
136.606
 20
-52.5473
 11
136.953
 21
-52.3319
  0
LINE
  8
0
 10
136.953
 20
-52.3319
 11
137.334
 21
-52.1883
  0
LINE
  8
0
 10
137.334
 20
-52.1883
 11
137.737
 21
-52.1219
  0
LINE
  8
0
 10
137.737
 20
-52.1219
 11
138.144
 21
-52.1352
  0
LINE
  8
0
 10
138.144
 20
-52.1352
 11
138.541
 21
-52.2278
  0
LINE
  8
0
 10
138.541
 20
-52.2278
 11
138.913
 21
-52.3961
  0
LINE
  8
0
 10
138.913
 20
-52.3961
 11
139.244
 21
-52.6336
  0
LINE
  8
0
 10
139.244
 20
-52.6336
 11
139.523
 21
-52.9312
  0
LINE
  8
0
 10
139.523
 20
-52.9312
 11
139.738
 21
-53.2775
  0
LINE
  8
0
 10
139.738
 20
-53.2775
 11
139.882
 21
-53.6591
  0
LINE
  8
0
 10
139.882
 20
-53.6591
 11
139.948
 21
-54.0614
  0
LINE
  8
0
 10
139.948
 20
-54.0614
 11
139.935
 21
-54.4689
  0
LINE
  8
0
 10
139.935
 20
-54.4689
 11
139.842
 21
-54.866
  0
LINE
  8
0
 10
139.842
 20
-54.866
 11
139.674
 21
-55.2374
  0
LINE
  8
0
 10
139.674
 20
-55.2374
 11
139.437
 21
-55.5689
  0
LINE
  8
0
 10
139.437
 20
-55.5689
 11
139.139
 21
-55.8476
  0
LINE
  8
0
 10
139.139
 20
-55.8476
 11
138.793
 21
-56.0629
  0
LINE
  8
0
 10
138.793
 20
-56.0629
 11
138.411
 21
-56.2066
  0
LINE
  8
0
 10
138.411
 20
-56.2066
 11
138.009
 21
-56.273
  0
LINE
  8
0
 10
138.009
 20
-56.273
 11
137.601
 21
-56.2596
  0
LINE
  8
0
 10
-138.411
 20
-56.2066
 11
-138.793
 21
-56.0629
  0
LINE
  8
0
 10
-138.793
 20
-56.0629
 11
-139.139
 21
-55.8476
  0
LINE
  8
0
 10
-139.139
 20
-55.8476
 11
-139.437
 21
-55.5689
  0
LINE
  8
0
 10
-139.437
 20
-55.5689
 11
-139.674
 21
-55.2374
  0
LINE
  8
0
 10
-139.674
 20
-55.2374
 11
-139.842
 21
-54.866
  0
LINE
  8
0
 10
-139.842
 20
-54.866
 11
-139.935
 21
-54.4689
  0
LINE
  8
0
 10
-139.935
 20
-54.4689
 11
-139.948
 21
-54.0614
  0
LINE
  8
0
 10
-139.948
 20
-54.0614
 11
-139.882
 21
-53.6591
  0
LINE
  8
0
 10
-139.882
 20
-53.6591
 11
-139.738
 21
-53.2775
  0
LINE
  8
0
 10
-139.738
 20
-53.2775
 11
-139.523
 21
-52.9312
  0
LINE
  8
0
 10
-139.523
 20
-52.9312
 11
-139.244
 21
-52.6336
  0
LINE
  8
0
 10
-139.244
 20
-52.6336
 11
-138.913
 21
-52.3961
  0
LINE
  8
0
 10
-138.913
 20
-52.3961
 11
-138.541
 21
-52.2278
  0
LINE
  8
0
 10
-138.541
 20
-52.2278
 11
-138.144
 21
-52.1352
  0
LINE
  8
0
 10
-138.144
 20
-52.1352
 11
-137.737
 21
-52.1219
  0
LINE
  8
0
 10
-137.737
 20
-52.1219
 11
-137.334
 21
-52.1883
  0
LINE
  8
0
 10
-137.334
 20
-52.1883
 11
-136.953
 21
-52.3319
  0
LINE
  8
0
 10
-136.953
 20
-52.3319
 11
-136.606
 21
-52.5473
  0
LINE
  8
0
 10
-136.606
 20
-52.5473
 11
-136.309
 21
-52.826
  0
LINE
  8
0
 10
-136.309
 20
-52.826
 11
-136.071
 21
-53.1574
  0
LINE
  8
0
 10
-136.071
 20
-53.1574
 11
-135.903
 21
-53.5288
  0
LINE
  8
0
 10
-135.903
 20
-53.5288
 11
-135.811
 21
-53.9259
  0
LINE
  8
0
 10
-135.811
 20
-53.9259
 11
-135.797
 21
-54.3335
  0
LINE
  8
0
 10
-135.797
 20
-54.3335
 11
-135.864
 21
-54.7358
  0
LINE
  8
0
 10
-135.864
 20
-54.7358
 11
-136.007
 21
-55.1174
  0
LINE
  8
0
 10
-136.007
 20
-55.1174
 11
-136.223
 21
-55.4637
  0
LINE
  8
0
 10
-136.223
 20
-55.4637
 11
-136.501
 21
-55.7613
  0
LINE
  8
0
 10
-136.501
 20
-55.7613
 11
-136.833
 21
-55.9988
  0
LINE
  8
0
 10
-136.833
 20
-55.9988
 11
-137.204
 21
-56.1671
  0
LINE
  8
0
 10
-137.204
 20
-56.1671
 11
-137.601
 21
-56.2596
  0
LINE
  8
0
 10
-137.601
 20
-56.2596
 11
-138.009
 21
-56.273
  0
LINE
  8
0
 10
-138.009
 20
-56.273
 11
-138.411
 21
-56.2066
  0
LINE
  8
0
 10
155.025
 20
-57.0814
 11
154.628
 21
-56.9888
  0
LINE
  8
0
 10
154.628
 20
-56.9888
 11
154.256
 21
-56.8206
  0
LINE
  8
0
 10
154.256
 20
-56.8206
 11
153.925
 21
-56.5831
  0
LINE
  8
0
 10
153.925
 20
-56.5831
 11
153.646
 21
-56.2855
  0
LINE
  8
0
 10
153.646
 20
-56.2855
 11
153.431
 21
-55.9392
  0
LINE
  8
0
 10
153.431
 20
-55.9392
 11
153.287
 21
-55.5576
  0
LINE
  8
0
 10
153.287
 20
-55.5576
 11
153.221
 21
-55.1553
  0
LINE
  8
0
 10
153.221
 20
-55.1553
 11
153.234
 21
-54.7477
  0
LINE
  8
0
 10
153.234
 20
-54.7477
 11
153.326
 21
-54.3506
  0
LINE
  8
0
 10
153.326
 20
-54.3506
 11
153.495
 21
-53.9792
  0
LINE
  8
0
 10
153.495
 20
-53.9792
 11
153.732
 21
-53.6478
  0
LINE
  8
0
 10
153.732
 20
-53.6478
 11
154.03
 21
-53.3691
  0
LINE
  8
0
 10
154.03
 20
-53.3691
 11
154.376
 21
-53.1537
  0
LINE
  8
0
 10
154.376
 20
-53.1537
 11
154.758
 21
-53.0101
  0
LINE
  8
0
 10
154.758
 20
-53.0101
 11
155.16
 21
-52.9437
  0
LINE
  8
0
 10
155.16
 20
-52.9437
 11
155.568
 21
-52.957
  0
LINE
  8
0
 10
155.568
 20
-52.957
 11
155.965
 21
-53.0496
  0
LINE
  8
0
 10
155.965
 20
-53.0496
 11
156.336
 21
-53.2179
  0
LINE
  8
0
 10
156.336
 20
-53.2179
 11
156.668
 21
-53.4554
  0
LINE
  8
0
 10
156.668
 20
-53.4554
 11
156.946
 21
-53.753
  0
LINE
  8
0
 10
156.946
 20
-53.753
 11
157.162
 21
-54.0993
  0
LINE
  8
0
 10
157.162
 20
-54.0993
 11
157.305
 21
-54.4809
  0
LINE
  8
0
 10
157.305
 20
-54.4809
 11
157.372
 21
-54.8832
  0
LINE
  8
0
 10
157.372
 20
-54.8832
 11
157.358
 21
-55.2907
  0
LINE
  8
0
 10
157.358
 20
-55.2907
 11
157.266
 21
-55.6878
  0
LINE
  8
0
 10
157.266
 20
-55.6878
 11
157.097
 21
-56.0592
  0
LINE
  8
0
 10
157.097
 20
-56.0592
 11
156.86
 21
-56.3907
  0
LINE
  8
0
 10
156.86
 20
-56.3907
 11
156.562
 21
-56.6694
  0
LINE
  8
0
 10
156.562
 20
-56.6694
 11
156.216
 21
-56.8847
  0
LINE
  8
0
 10
156.216
 20
-56.8847
 11
155.834
 21
-57.0284
  0
LINE
  8
0
 10
155.834
 20
-57.0284
 11
155.432
 21
-57.0948
  0
LINE
  8
0
 10
155.432
 20
-57.0948
 11
155.025
 21
-57.0814
  0
LINE
  8
0
 10
119.928
 20
-79.9938
 11
118.003
 21
-79.545
  0
LINE
  8
0
 10
118.003
 20
-79.545
 11
116.204
 21
-78.7295
  0
LINE
  8
0
 10
116.204
 20
-78.7295
 11
114.597
 21
-77.5785
  0
LINE
  8
0
 10
114.597
 20
-77.5785
 11
113.247
 21
-76.1363
  0
LINE
  8
0
 10
113.247
 20
-76.1363
 11
112.203
 21
-74.4583
  0
LINE
  8
0
 10
112.203
 20
-74.4583
 11
111.507
 21
-72.6089
  0
LINE
  8
0
 10
111.507
 20
-72.6089
 11
111.185
 21
-70.6593
  0
LINE
  8
0
 10
111.185
 20
-70.6593
 11
111.25
 21
-68.6843
  0
LINE
  8
0
 10
111.25
 20
-68.6843
 11
111.699
 21
-66.7599
  0
LINE
  8
0
 10
111.699
 20
-66.7599
 11
112.514
 21
-64.96
  0
LINE
  8
0
 10
112.514
 20
-64.96
 11
113.665
 21
-63.3538
  0
LINE
  8
0
 10
113.665
 20
-63.3538
 11
115.107
 21
-62.003
  0
LINE
  8
0
 10
115.107
 20
-62.003
 11
116.785
 21
-60.9595
  0
LINE
  8
0
 10
116.785
 20
-60.9595
 11
118.635
 21
-60.2635
  0
LINE
  8
0
 10
118.635
 20
-60.2635
 11
120.584
 21
-59.9416
  0
LINE
  8
0
 10
120.584
 20
-59.9416
 11
122.559
 21
-60.0062
  0
LINE
  8
0
 10
122.559
 20
-60.0062
 11
124.484
 21
-60.4549
  0
LINE
  8
0
 10
124.484
 20
-60.4549
 11
126.284
 21
-61.2705
  0
LINE
  8
0
 10
126.284
 20
-61.2705
 11
127.89
 21
-62.4214
  0
LINE
  8
0
 10
127.89
 20
-62.4214
 11
129.241
 21
-63.8637
  0
LINE
  8
0
 10
129.241
 20
-63.8637
 11
130.284
 21
-65.5417
  0
LINE
  8
0
 10
130.284
 20
-65.5417
 11
130.98
 21
-67.3911
  0
LINE
  8
0
 10
130.98
 20
-67.3911
 11
131.302
 21
-69.3407
  0
LINE
  8
0
 10
131.302
 20
-69.3407
 11
131.237
 21
-71.3157
  0
LINE
  8
0
 10
131.237
 20
-71.3157
 11
130.789
 21
-73.2401
  0
LINE
  8
0
 10
130.789
 20
-73.2401
 11
129.973
 21
-75.04
  0
LINE
  8
0
 10
129.973
 20
-75.04
 11
128.822
 21
-76.6462
  0
LINE
  8
0
 10
128.822
 20
-76.6462
 11
127.38
 21
-77.997
  0
LINE
  8
0
 10
127.38
 20
-77.997
 11
125.702
 21
-79.0405
  0
LINE
  8
0
 10
125.702
 20
-79.0405
 11
123.852
 21
-79.7365
  0
LINE
  8
0
 10
123.852
 20
-79.7365
 11
121.903
 21
-80.0584
  0
LINE
  8
0
 10
121.903
 20
-80.0584
 11
119.928
 21
-79.9938
  0
LINE
  8
0
 10
-123.852
 20
-79.7365
 11
-125.702
 21
-79.0405
  0
LINE
  8
0
 10
-125.702
 20
-79.0405
 11
-127.38
 21
-77.997
  0
LINE
  8
0
 10
-127.38
 20
-77.997
 11
-128.822
 21
-76.6462
  0
LINE
  8
0
 10
-128.822
 20
-76.6462
 11
-129.973
 21
-75.04
  0
LINE
  8
0
 10
-129.973
 20
-75.04
 11
-130.789
 21
-73.2401
  0
LINE
  8
0
 10
-130.789
 20
-73.2401
 11
-131.237
 21
-71.3157
  0
LINE
  8
0
 10
-131.237
 20
-71.3157
 11
-131.302
 21
-69.3407
  0
LINE
  8
0
 10
-131.302
 20
-69.3407
 11
-130.98
 21
-67.3911
  0
LINE
  8
0
 10
-130.98
 20
-67.3911
 11
-130.284
 21
-65.5417
  0
LINE
  8
0
 10
-130.284
 20
-65.5417
 11
-129.241
 21
-63.8637
  0
LINE
  8
0
 10
-129.241
 20
-63.8637
 11
-127.89
 21
-62.4214
  0
LINE
  8
0
 10
-127.89
 20
-62.4214
 11
-126.284
 21
-61.2705
  0
LINE
  8
0
 10
-126.284
 20
-61.2705
 11
-124.484
 21
-60.4549
  0
LINE
  8
0
 10
-124.484
 20
-60.4549
 11
-122.559
 21
-60.0062
  0
LINE
  8
0
 10
-122.559
 20
-60.0062
 11
-120.584
 21
-59.9416
  0
LINE
  8
0
 10
-120.584
 20
-59.9416
 11
-118.635
 21
-60.2635
  0
LINE
  8
0
 10
-118.635
 20
-60.2635
 11
-116.785
 21
-60.9595
  0
LINE
  8
0
 10
-116.785
 20
-60.9595
 11
-115.107
 21
-62.003
  0
LINE
  8
0
 10
-115.107
 20
-62.003
 11
-113.665
 21
-63.3538
  0
LINE
  8
0
 10
-113.665
 20
-63.3538
 11
-112.514
 21
-64.96
  0
LINE
  8
0
 10
-112.514
 20
-64.96
 11
-111.699
 21
-66.7599
  0
LINE
  8
0
 10
-111.699
 20
-66.7599
 11
-111.25
 21
-68.6843
  0
LINE
  8
0
 10
-111.25
 20
-68.6843
 11
-111.185
 21
-70.6593
  0
LINE
  8
0
 10
-111.185
 20
-70.6593
 11
-111.507
 21
-72.6089
  0
LINE
  8
0
 10
-111.507
 20
-72.6089
 11
-112.203
 21
-74.4583
  0
LINE
  8
0
 10
-112.203
 20
-74.4583
 11
-113.247
 21
-76.1363
  0
LINE
  8
0
 10
-113.247
 20
-76.1363
 11
-114.597
 21
-77.5785
  0
LINE
  8
0
 10
-114.597
 20
-77.5785
 11
-116.204
 21
-78.7295
  0
LINE
  8
0
 10
-116.204
 20
-78.7295
 11
-118.003
 21
-79.545
  0
LINE
  8
0
 10
-118.003
 20
-79.545
 11
-119.928
 21
-79.9938
  0
LINE
  8
0
 10
-119.928
 20
-79.9938
 11
-121.903
 21
-80.0584
  0
LINE
  8
0
 10
-121.903
 20
-80.0584
 11
-123.852
 21
-79.7365
  0
LINE
  8
0
 10
115.601
 20
-94.3648
 11
115.204
 21
-94.2722
  0
LINE
  8
0
 10
115.204
 20
-94.2722
 11
114.833
 21
-94.1039
  0
LINE
  8
0
 10
114.833
 20
-94.1039
 11
114.501
 21
-93.8664
  0
LINE
  8
0
 10
114.501
 20
-93.8664
 11
114.223
 21
-93.5688
  0
LINE
  8
0
 10
114.223
 20
-93.5688
 11
114.007
 21
-93.2225
  0
LINE
  8
0
 10
114.007
 20
-93.2225
 11
113.864
 21
-92.8409
  0
LINE
  8
0
 10
113.864
 20
-92.8409
 11
113.797
 21
-92.4386
  0
LINE
  8
0
 10
113.797
 20
-92.4386
 11
113.811
 21
-92.0311
  0
LINE
  8
0
 10
113.811
 20
-92.0311
 11
113.903
 21
-91.634
  0
LINE
  8
0
 10
113.903
 20
-91.634
 11
114.071
 21
-91.2626
  0
LINE
  8
0
 10
114.071
 20
-91.2626
 11
114.309
 21
-90.9311
  0
LINE
  8
0
 10
114.309
 20
-90.9311
 11
114.606
 21
-90.6524
  0
LINE
  8
0
 10
114.606
 20
-90.6524
 11
114.953
 21
-90.4371
  0
LINE
  8
0
 10
114.953
 20
-90.4371
 11
115.334
 21
-90.2934
  0
LINE
  8
0
 10
115.334
 20
-90.2934
 11
115.737
 21
-90.227
  0
LINE
  8
0
 10
115.737
 20
-90.227
 11
116.144
 21
-90.2404
  0
LINE
  8
0
 10
116.144
 20
-90.2404
 11
116.541
 21
-90.3329
  0
LINE
  8
0
 10
116.541
 20
-90.3329
 11
116.913
 21
-90.5012
  0
LINE
  8
0
 10
116.913
 20
-90.5012
 11
117.244
 21
-90.7387
  0
LINE
  8
0
 10
117.244
 20
-90.7387
 11
117.523
 21
-91.0363
  0
LINE
  8
0
 10
117.523
 20
-91.0363
 11
117.738
 21
-91.3826
  0
LINE
  8
0
 10
117.738
 20
-91.3826
 11
117.882
 21
-91.7642
  0
LINE
  8
0
 10
117.882
 20
-91.7642
 11
117.948
 21
-92.1665
  0
LINE
  8
0
 10
117.948
 20
-92.1665
 11
117.935
 21
-92.5741
  0
LINE
  8
0
 10
117.935
 20
-92.5741
 11
117.842
 21
-92.9711
  0
LINE
  8
0
 10
117.842
 20
-92.9711
 11
117.674
 21
-93.3426
  0
LINE
  8
0
 10
117.674
 20
-93.3426
 11
117.437
 21
-93.674
  0
LINE
  8
0
 10
117.437
 20
-93.674
 11
117.139
 21
-93.9527
  0
LINE
  8
0
 10
117.139
 20
-93.9527
 11
116.793
 21
-94.168
  0
LINE
  8
0
 10
116.793
 20
-94.168
 11
116.411
 21
-94.3117
  0
LINE
  8
0
 10
116.411
 20
-94.3117
 11
116.009
 21
-94.3781
  0
LINE
  8
0
 10
116.009
 20
-94.3781
 11
115.601
 21
-94.3648
  0
LINE
  8
0
 10
-116.411
 20
-94.3117
 11
-116.793
 21
-94.168
  0
LINE
  8
0
 10
-116.793
 20
-94.168
 11
-117.139
 21
-93.9527
  0
LINE
  8
0
 10
-117.139
 20
-93.9527
 11
-117.437
 21
-93.674
  0
LINE
  8
0
 10
-117.437
 20
-93.674
 11
-117.674
 21
-93.3426
  0
LINE
  8
0
 10
-117.674
 20
-93.3426
 11
-117.842
 21
-92.9711
  0
LINE
  8
0
 10
-117.842
 20
-92.9711
 11
-117.935
 21
-92.5741
  0
LINE
  8
0
 10
-117.935
 20
-92.5741
 11
-117.948
 21
-92.1665
  0
LINE
  8
0
 10
-117.948
 20
-92.1665
 11
-117.882
 21
-91.7642
  0
LINE
  8
0
 10
-117.882
 20
-91.7642
 11
-117.738
 21
-91.3826
  0
LINE
  8
0
 10
-117.738
 20
-91.3826
 11
-117.523
 21
-91.0363
  0
LINE
  8
0
 10
-117.523
 20
-91.0363
 11
-117.244
 21
-90.7387
  0
LINE
  8
0
 10
-117.244
 20
-90.7387
 11
-116.913
 21
-90.5012
  0
LINE
  8
0
 10
-116.913
 20
-90.5012
 11
-116.541
 21
-90.3329
  0
LINE
  8
0
 10
-116.541
 20
-90.3329
 11
-116.144
 21
-90.2404
  0
LINE
  8
0
 10
-116.144
 20
-90.2404
 11
-115.737
 21
-90.227
  0
LINE
  8
0
 10
-115.737
 20
-90.227
 11
-115.334
 21
-90.2934
  0
LINE
  8
0
 10
-115.334
 20
-90.2934
 11
-114.953
 21
-90.4371
  0
LINE
  8
0
 10
-114.953
 20
-90.4371
 11
-114.606
 21
-90.6524
  0
LINE
  8
0
 10
-114.606
 20
-90.6524
 11
-114.309
 21
-90.9311
  0
LINE
  8
0
 10
-114.309
 20
-90.9311
 11
-114.071
 21
-91.2626
  0
LINE
  8
0
 10
-114.071
 20
-91.2626
 11
-113.903
 21
-91.634
  0
LINE
  8
0
 10
-113.903
 20
-91.634
 11
-113.811
 21
-92.0311
  0
LINE
  8
0
 10
-113.811
 20
-92.0311
 11
-113.797
 21
-92.4386
  0
LINE
  8
0
 10
-113.797
 20
-92.4386
 11
-113.864
 21
-92.8409
  0
LINE
  8
0
 10
-113.864
 20
-92.8409
 11
-114.007
 21
-93.2225
  0
LINE
  8
0
 10
-114.007
 20
-93.2225
 11
-114.223
 21
-93.5688
  0
LINE
  8
0
 10
-114.223
 20
-93.5688
 11
-114.501
 21
-93.8664
  0
LINE
  8
0
 10
-114.501
 20
-93.8664
 11
-114.833
 21
-94.1039
  0
LINE
  8
0
 10
-114.833
 20
-94.1039
 11
-115.204
 21
-94.2722
  0
LINE
  8
0
 10
-115.204
 20
-94.2722
 11
-115.601
 21
-94.3648
  0
LINE
  8
0
 10
-115.601
 20
-94.3648
 11
-116.009
 21
-94.3781
  0
LINE
  8
0
 10
-116.009
 20
-94.3781
 11
-116.411
 21
-94.3117
  0
LINE
  8
0
 10
-125.834
 20
-108.99
 11
-126.216
 21
-108.846
  0
LINE
  8
0
 10
-126.216
 20
-108.846
 11
-126.562
 21
-108.631
  0
LINE
  8
0
 10
-126.562
 20
-108.631
 11
-126.86
 21
-108.352
  0
LINE
  8
0
 10
-126.86
 20
-108.352
 11
-127.097
 21
-108.021
  0
LINE
  8
0
 10
-127.097
 20
-108.021
 11
-127.266
 21
-107.649
  0
LINE
  8
0
 10
-127.266
 20
-107.649
 11
-127.358
 21
-107.252
  0
LINE
  8
0
 10
-127.358
 20
-107.252
 11
-127.372
 21
-106.845
  0
LINE
  8
0
 10
-127.372
 20
-106.845
 11
-127.305
 21
-106.442
  0
LINE
  8
0
 10
-127.305
 20
-106.442
 11
-127.162
 21
-106.061
  0
LINE
  8
0
 10
-127.162
 20
-106.061
 11
-126.946
 21
-105.715
  0
LINE
  8
0
 10
-126.946
 20
-105.715
 11
-126.668
 21
-105.417
  0
LINE
  8
0
 10
-126.668
 20
-105.417
 11
-126.336
 21
-105.179
  0
LINE
  8
0
 10
-126.336
 20
-105.179
 11
-125.965
 21
-105.011
  0
LINE
  8
0
 10
-125.965
 20
-105.011
 11
-125.568
 21
-104.919
  0
LINE
  8
0
 10
-125.568
 20
-104.919
 11
-125.16
 21
-104.905
  0
LINE
  8
0
 10
-125.16
 20
-104.905
 11
-124.758
 21
-104.972
  0
LINE
  8
0
 10
-124.758
 20
-104.972
 11
-124.376
 21
-105.115
  0
LINE
  8
0
 10
-124.376
 20
-105.115
 11
-124.03
 21
-105.331
  0
LINE
  8
0
 10
-124.03
 20
-105.331
 11
-123.732
 21
-105.609
  0
LINE
  8
0
 10
-123.732
 20
-105.609
 11
-123.495
 21
-105.941
  0
LINE
  8
0
 10
-123.495
 20
-105.941
 11
-123.326
 21
-106.312
  0
LINE
  8
0
 10
-123.326
 20
-106.312
 11
-123.234
 21
-106.709
  0
LINE
  8
0
 10
-123.234
 20
-106.709
 11
-123.221
 21
-107.117
  0
LINE
  8
0
 10
-123.221
 20
-107.117
 11
-123.287
 21
-107.519
  0
LINE
  8
0
 10
-123.287
 20
-107.519
 11
-123.431
 21
-107.901
  0
LINE
  8
0
 10
-123.431
 20
-107.901
 11
-123.646
 21
-108.247
  0
LINE
  8
0
 10
-123.646
 20
-108.247
 11
-123.925
 21
-108.545
  0
LINE
  8
0
 10
-123.925
 20
-108.545
 11
-124.256
 21
-108.782
  0
LINE
  8
0
 10
-124.256
 20
-108.782
 11
-124.628
 21
-108.95
  0
LINE
  8
0
 10
-124.628
 20
-108.95
 11
-125.025
 21
-109.043
  0
LINE
  8
0
 10
-125.025
 20
-109.043
 11
-125.432
 21
-109.056
  0
LINE
  8
0
 10
-125.432
 20
-109.056
 11
-125.834
 21
-108.99
  0
LINE
  8
0
 10
-112.334
 20
-132.373
 11
-112.716
 21
-132.229
  0
LINE
  8
0
 10
-112.716
 20
-132.229
 11
-113.062
 21
-132.014
  0
LINE
  8
0
 10
-113.062
 20
-132.014
 11
-113.36
 21
-131.735
  0
LINE
  8
0
 10
-113.36
 20
-131.735
 11
-113.597
 21
-131.403
  0
LINE
  8
0
 10
-113.597
 20
-131.403
 11
-113.766
 21
-131.032
  0
LINE
  8
0
 10
-113.766
 20
-131.032
 11
-113.858
 21
-130.635
  0
LINE
  8
0
 10
-113.858
 20
-130.635
 11
-113.872
 21
-130.227
  0
LINE
  8
0
 10
-113.872
 20
-130.227
 11
-113.805
 21
-129.825
  0
LINE
  8
0
 10
-113.805
 20
-129.825
 11
-113.662
 21
-129.443
  0
LINE
  8
0
 10
-113.662
 20
-129.443
 11
-113.446
 21
-129.097
  0
LINE
  8
0
 10
-113.446
 20
-129.097
 11
-113.168
 21
-128.8
  0
LINE
  8
0
 10
-113.168
 20
-128.8
 11
-112.836
 21
-128.562
  0
LINE
  8
0
 10
-112.836
 20
-128.562
 11
-112.465
 21
-128.394
  0
LINE
  8
0
 10
-112.465
 20
-128.394
 11
-112.068
 21
-128.301
  0
LINE
  8
0
 10
-112.068
 20
-128.301
 11
-111.66
 21
-128.288
  0
LINE
  8
0
 10
-111.66
 20
-128.288
 11
-111.258
 21
-128.354
  0
LINE
  8
0
 10
-111.258
 20
-128.354
 11
-110.876
 21
-128.498
  0
LINE
  8
0
 10
-110.876
 20
-128.498
 11
-110.53
 21
-128.713
  0
LINE
  8
0
 10
-110.53
 20
-128.713
 11
-110.232
 21
-128.992
  0
LINE
  8
0
 10
-110.232
 20
-128.992
 11
-109.995
 21
-129.323
  0
LINE
  8
0
 10
-109.995
 20
-129.323
 11
-109.826
 21
-129.695
  0
LINE
  8
0
 10
-109.826
 20
-129.695
 11
-109.734
 21
-130.092
  0
LINE
  8
0
 10
-109.734
 20
-130.092
 11
-109.721
 21
-130.499
  0
LINE
  8
0
 10
-109.721
 20
-130.499
 11
-109.787
 21
-130.902
  0
LINE
  8
0
 10
-109.787
 20
-130.902
 11
-109.931
 21
-131.283
  0
LINE
  8
0
 10
-109.931
 20
-131.283
 11
-110.146
 21
-131.63
  0
LINE
  8
0
 10
-110.146
 20
-131.63
 11
-110.425
 21
-131.927
  0
LINE
  8
0
 10
-110.425
 20
-131.927
 11
-110.756
 21
-132.165
  0
LINE
  8
0
 10
-110.756
 20
-132.165
 11
-111.128
 21
-132.333
  0
LINE
  8
0
 10
-111.128
 20
-132.333
 11
-111.525
 21
-132.426
  0
LINE
  8
0
 10
-111.525
 20
-132.426
 11
-111.932
 21
-132.439
  0
LINE
  8
0
 10
-111.932
 20
-132.439
 11
-112.334
 21
-132.373
  0
LINE
  8
0
 10
111.525
 20
-132.426
 11
111.128
 21
-132.333
  0
LINE
  8
0
 10
111.128
 20
-132.333
 11
110.756
 21
-132.165
  0
LINE
  8
0
 10
110.756
 20
-132.165
 11
110.425
 21
-131.927
  0
LINE
  8
0
 10
110.425
 20
-131.927
 11
110.146
 21
-131.63
  0
LINE
  8
0
 10
110.146
 20
-131.63
 11
109.931
 21
-131.283
  0
LINE
  8
0
 10
109.931
 20
-131.283
 11
109.787
 21
-130.902
  0
LINE
  8
0
 10
109.787
 20
-130.902
 11
109.721
 21
-130.499
  0
LINE
  8
0
 10
109.721
 20
-130.499
 11
109.734
 21
-130.092
  0
LINE
  8
0
 10
109.734
 20
-130.092
 11
109.826
 21
-129.695
  0
LINE
  8
0
 10
109.826
 20
-129.695
 11
109.995
 21
-129.323
  0
LINE
  8
0
 10
109.995
 20
-129.323
 11
110.232
 21
-128.992
  0
LINE
  8
0
 10
110.232
 20
-128.992
 11
110.53
 21
-128.713
  0
LINE
  8
0
 10
110.53
 20
-128.713
 11
110.876
 21
-128.498
  0
LINE
  8
0
 10
110.876
 20
-128.498
 11
111.258
 21
-128.354
  0
LINE
  8
0
 10
111.258
 20
-128.354
 11
111.66
 21
-128.288
  0
LINE
  8
0
 10
111.66
 20
-128.288
 11
112.068
 21
-128.301
  0
LINE
  8
0
 10
112.068
 20
-128.301
 11
112.465
 21
-128.394
  0
LINE
  8
0
 10
112.465
 20
-128.394
 11
112.836
 21
-128.562
  0
LINE
  8
0
 10
112.836
 20
-128.562
 11
113.168
 21
-128.8
  0
LINE
  8
0
 10
113.168
 20
-128.8
 11
113.446
 21
-129.097
  0
LINE
  8
0
 10
113.446
 20
-129.097
 11
113.662
 21
-129.443
  0
LINE
  8
0
 10
113.662
 20
-129.443
 11
113.805
 21
-129.825
  0
LINE
  8
0
 10
113.805
 20
-129.825
 11
113.872
 21
-130.227
  0
LINE
  8
0
 10
113.872
 20
-130.227
 11
113.858
 21
-130.635
  0
LINE
  8
0
 10
113.858
 20
-130.635
 11
113.766
 21
-131.032
  0
LINE
  8
0
 10
113.766
 20
-131.032
 11
113.597
 21
-131.403
  0
LINE
  8
0
 10
113.597
 20
-131.403
 11
113.36
 21
-131.735
  0
LINE
  8
0
 10
113.36
 20
-131.735
 11
113.062
 21
-132.014
  0
LINE
  8
0
 10
113.062
 20
-132.014
 11
112.716
 21
-132.229
  0
LINE
  8
0
 10
112.716
 20
-132.229
 11
112.334
 21
-132.373
  0
LINE
  8
0
 10
112.334
 20
-132.373
 11
111.932
 21
-132.439
  0
LINE
  8
0
 10
111.932
 20
-132.439
 11
111.525
 21
-132.426
  0
ENDSEC
  0
SECTION
  2
OBJECTS
  0
DICTIONARY
  0
ENDSEC
  0
EOF
