  0
SECTION
  2
BLOCKS
  0
ENDSEC
  0
SECTION
  2
ENTITIES
  0
LINE
  8
0
 10
190
 20
176
 11
-190
 21
176
  0
LINE
  8
0
 10
-190
 20
176
 11
-190
 21
-164
  0
LINE
  8
0
 10
-190
 20
-164
 11
190
 21
-164
  0
LINE
  8
0
 10
190
 20
-164
 11
190
 21
176
  0
LINE
  8
0
 10
-30.4058
 20
159.96
 11
-30.796
 21
160.078
  0
LINE
  8
0
 10
-30.796
 20
160.078
 11
-31.1556
 21
160.271
  0
LINE
  8
0
 10
-31.1556
 20
160.271
 11
-31.4708
 21
160.529
  0
LINE
  8
0
 10
-31.4708
 20
160.529
 11
-31.7294
 21
160.844
  0
LINE
  8
0
 10
-31.7294
 20
160.844
 11
-31.9217
 21
161.204
  0
LINE
  8
0
 10
-31.9217
 20
161.204
 11
-32.04
 21
161.594
  0
LINE
  8
0
 10
-32.04
 20
161.594
 11
-32.08
 21
162
  0
LINE
  8
0
 10
-32.08
 20
162
 11
-32.04
 21
162.406
  0
LINE
  8
0
 10
-32.04
 20
162.406
 11
-31.9217
 21
162.796
  0
LINE
  8
0
 10
-31.9217
 20
162.796
 11
-31.7294
 21
163.156
  0
LINE
  8
0
 10
-31.7294
 20
163.156
 11
-31.4708
 21
163.471
  0
LINE
  8
0
 10
-31.4708
 20
163.471
 11
-31.1556
 21
163.729
  0
LINE
  8
0
 10
-31.1556
 20
163.729
 11
-30.796
 21
163.922
  0
LINE
  8
0
 10
-30.796
 20
163.922
 11
-30.4058
 21
164.04
  0
LINE
  8
0
 10
-30.4058
 20
164.04
 11
-30
 21
164.08
  0
LINE
  8
0
 10
-30
 20
164.08
 11
-29.5942
 21
164.04
  0
LINE
  8
0
 10
-29.5942
 20
164.04
 11
-29.204
 21
163.922
  0
LINE
  8
0
 10
-29.204
 20
163.922
 11
-28.8444
 21
163.729
  0
LINE
  8
0
 10
-28.8444
 20
163.729
 11
-28.5292
 21
163.471
  0
LINE
  8
0
 10
-28.5292
 20
163.471
 11
-28.2705
 21
163.156
  0
LINE
  8
0
 10
-28.2705
 20
163.156
 11
-28.0783
 21
162.796
  0
LINE
  8
0
 10
-28.0783
 20
162.796
 11
-27.96
 21
162.406
  0
LINE
  8
0
 10
-27.96
 20
162.406
 11
-27.92
 21
162
  0
LINE
  8
0
 10
-27.92
 20
162
 11
-27.96
 21
161.594
  0
LINE
  8
0
 10
-27.96
 20
161.594
 11
-28.0783
 21
161.204
  0
LINE
  8
0
 10
-28.0783
 20
161.204
 11
-28.2705
 21
160.844
  0
LINE
  8
0
 10
-28.2705
 20
160.844
 11
-28.5292
 21
160.529
  0
LINE
  8
0
 10
-28.5292
 20
160.529
 11
-28.8444
 21
160.271
  0
LINE
  8
0
 10
-28.8444
 20
160.271
 11
-29.204
 21
160.078
  0
LINE
  8
0
 10
-29.204
 20
160.078
 11
-29.5942
 21
159.96
  0
LINE
  8
0
 10
-29.5942
 20
159.96
 11
-30
 21
159.92
  0
LINE
  8
0
 10
-30
 20
159.92
 11
-30.4058
 21
159.96
  0
LINE
  8
0
 10
56.5942
 20
159.96
 11
56.204
 21
160.078
  0
LINE
  8
0
 10
56.204
 20
160.078
 11
55.8444
 21
160.271
  0
LINE
  8
0
 10
55.8444
 20
160.271
 11
55.5292
 21
160.529
  0
LINE
  8
0
 10
55.5292
 20
160.529
 11
55.2705
 21
160.844
  0
LINE
  8
0
 10
55.2705
 20
160.844
 11
55.0783
 21
161.204
  0
LINE
  8
0
 10
55.0783
 20
161.204
 11
54.96
 21
161.594
  0
LINE
  8
0
 10
54.96
 20
161.594
 11
54.92
 21
162
  0
LINE
  8
0
 10
54.92
 20
162
 11
54.96
 21
162.406
  0
LINE
  8
0
 10
54.96
 20
162.406
 11
55.0783
 21
162.796
  0
LINE
  8
0
 10
55.0783
 20
162.796
 11
55.2705
 21
163.156
  0
LINE
  8
0
 10
55.2705
 20
163.156
 11
55.5292
 21
163.471
  0
LINE
  8
0
 10
55.5292
 20
163.471
 11
55.8444
 21
163.729
  0
LINE
  8
0
 10
55.8444
 20
163.729
 11
56.204
 21
163.922
  0
LINE
  8
0
 10
56.204
 20
163.922
 11
56.5942
 21
164.04
  0
LINE
  8
0
 10
56.5942
 20
164.04
 11
57
 21
164.08
  0
LINE
  8
0
 10
57
 20
164.08
 11
57.4058
 21
164.04
  0
LINE
  8
0
 10
57.4058
 20
164.04
 11
57.796
 21
163.922
  0
LINE
  8
0
 10
57.796
 20
163.922
 11
58.1556
 21
163.729
  0
LINE
  8
0
 10
58.1556
 20
163.729
 11
58.4708
 21
163.471
  0
LINE
  8
0
 10
58.4708
 20
163.471
 11
58.7294
 21
163.156
  0
LINE
  8
0
 10
58.7294
 20
163.156
 11
58.9217
 21
162.796
  0
LINE
  8
0
 10
58.9217
 20
162.796
 11
59.04
 21
162.406
  0
LINE
  8
0
 10
59.04
 20
162.406
 11
59.08
 21
162
  0
LINE
  8
0
 10
59.08
 20
162
 11
59.04
 21
161.594
  0
LINE
  8
0
 10
59.04
 20
161.594
 11
58.9217
 21
161.204
  0
LINE
  8
0
 10
58.9217
 20
161.204
 11
58.7294
 21
160.844
  0
LINE
  8
0
 10
58.7294
 20
160.844
 11
58.4708
 21
160.529
  0
LINE
  8
0
 10
58.4708
 20
160.529
 11
58.1556
 21
160.271
  0
LINE
  8
0
 10
58.1556
 20
160.271
 11
57.796
 21
160.078
  0
LINE
  8
0
 10
57.796
 20
160.078
 11
57.4058
 21
159.96
  0
LINE
  8
0
 10
57.4058
 20
159.96
 11
57
 21
159.92
  0
LINE
  8
0
 10
57
 20
159.92
 11
56.5942
 21
159.96
  0
LINE
  8
0
 10
29.5942
 20
159.96
 11
29.204
 21
160.078
  0
LINE
  8
0
 10
29.204
 20
160.078
 11
28.8444
 21
160.271
  0
LINE
  8
0
 10
28.8444
 20
160.271
 11
28.5292
 21
160.529
  0
LINE
  8
0
 10
28.5292
 20
160.529
 11
28.2705
 21
160.844
  0
LINE
  8
0
 10
28.2705
 20
160.844
 11
28.0783
 21
161.204
  0
LINE
  8
0
 10
28.0783
 20
161.204
 11
27.96
 21
161.594
  0
LINE
  8
0
 10
27.96
 20
161.594
 11
27.92
 21
162
  0
LINE
  8
0
 10
27.92
 20
162
 11
27.96
 21
162.406
  0
LINE
  8
0
 10
27.96
 20
162.406
 11
28.0783
 21
162.796
  0
LINE
  8
0
 10
28.0783
 20
162.796
 11
28.2705
 21
163.156
  0
LINE
  8
0
 10
28.2705
 20
163.156
 11
28.5292
 21
163.471
  0
LINE
  8
0
 10
28.5292
 20
163.471
 11
28.8444
 21
163.729
  0
LINE
  8
0
 10
28.8444
 20
163.729
 11
29.204
 21
163.922
  0
LINE
  8
0
 10
29.204
 20
163.922
 11
29.5942
 21
164.04
  0
LINE
  8
0
 10
29.5942
 20
164.04
 11
30
 21
164.08
  0
LINE
  8
0
 10
30
 20
164.08
 11
30.4058
 21
164.04
  0
LINE
  8
0
 10
30.4058
 20
164.04
 11
30.796
 21
163.922
  0
LINE
  8
0
 10
30.796
 20
163.922
 11
31.1556
 21
163.729
  0
LINE
  8
0
 10
31.1556
 20
163.729
 11
31.4708
 21
163.471
  0
LINE
  8
0
 10
31.4708
 20
163.471
 11
31.7294
 21
163.156
  0
LINE
  8
0
 10
31.7294
 20
163.156
 11
31.9217
 21
162.796
  0
LINE
  8
0
 10
31.9217
 20
162.796
 11
32.04
 21
162.406
  0
LINE
  8
0
 10
32.04
 20
162.406
 11
32.08
 21
162
  0
LINE
  8
0
 10
32.08
 20
162
 11
32.04
 21
161.594
  0
LINE
  8
0
 10
32.04
 20
161.594
 11
31.9217
 21
161.204
  0
LINE
  8
0
 10
31.9217
 20
161.204
 11
31.7294
 21
160.844
  0
LINE
  8
0
 10
31.7294
 20
160.844
 11
31.4708
 21
160.529
  0
LINE
  8
0
 10
31.4708
 20
160.529
 11
31.1556
 21
160.271
  0
LINE
  8
0
 10
31.1556
 20
160.271
 11
30.796
 21
160.078
  0
LINE
  8
0
 10
30.796
 20
160.078
 11
30.4058
 21
159.96
  0
LINE
  8
0
 10
30.4058
 20
159.96
 11
30
 21
159.92
  0
LINE
  8
0
 10
30
 20
159.92
 11
29.5942
 21
159.96
  0
LINE
  8
0
 10
-57.4058
 20
159.96
 11
-57.796
 21
160.078
  0
LINE
  8
0
 10
-57.796
 20
160.078
 11
-58.1556
 21
160.271
  0
LINE
  8
0
 10
-58.1556
 20
160.271
 11
-58.4708
 21
160.529
  0
LINE
  8
0
 10
-58.4708
 20
160.529
 11
-58.7294
 21
160.844
  0
LINE
  8
0
 10
-58.7294
 20
160.844
 11
-58.9217
 21
161.204
  0
LINE
  8
0
 10
-58.9217
 20
161.204
 11
-59.04
 21
161.594
  0
LINE
  8
0
 10
-59.04
 20
161.594
 11
-59.08
 21
162
  0
LINE
  8
0
 10
-59.08
 20
162
 11
-59.04
 21
162.406
  0
LINE
  8
0
 10
-59.04
 20
162.406
 11
-58.9217
 21
162.796
  0
LINE
  8
0
 10
-58.9217
 20
162.796
 11
-58.7294
 21
163.156
  0
LINE
  8
0
 10
-58.7294
 20
163.156
 11
-58.4708
 21
163.471
  0
LINE
  8
0
 10
-58.4708
 20
163.471
 11
-58.1556
 21
163.729
  0
LINE
  8
0
 10
-58.1556
 20
163.729
 11
-57.796
 21
163.922
  0
LINE
  8
0
 10
-57.796
 20
163.922
 11
-57.4058
 21
164.04
  0
LINE
  8
0
 10
-57.4058
 20
164.04
 11
-57
 21
164.08
  0
LINE
  8
0
 10
-57
 20
164.08
 11
-56.5942
 21
164.04
  0
LINE
  8
0
 10
-56.5942
 20
164.04
 11
-56.204
 21
163.922
  0
LINE
  8
0
 10
-56.204
 20
163.922
 11
-55.8444
 21
163.729
  0
LINE
  8
0
 10
-55.8444
 20
163.729
 11
-55.5292
 21
163.471
  0
LINE
  8
0
 10
-55.5292
 20
163.471
 11
-55.2705
 21
163.156
  0
LINE
  8
0
 10
-55.2705
 20
163.156
 11
-55.0783
 21
162.796
  0
LINE
  8
0
 10
-55.0783
 20
162.796
 11
-54.96
 21
162.406
  0
LINE
  8
0
 10
-54.96
 20
162.406
 11
-54.92
 21
162
  0
LINE
  8
0
 10
-54.92
 20
162
 11
-54.96
 21
161.594
  0
LINE
  8
0
 10
-54.96
 20
161.594
 11
-55.0783
 21
161.204
  0
LINE
  8
0
 10
-55.0783
 20
161.204
 11
-55.2705
 21
160.844
  0
LINE
  8
0
 10
-55.2705
 20
160.844
 11
-55.5292
 21
160.529
  0
LINE
  8
0
 10
-55.5292
 20
160.529
 11
-55.8444
 21
160.271
  0
LINE
  8
0
 10
-55.8444
 20
160.271
 11
-56.204
 21
160.078
  0
LINE
  8
0
 10
-56.204
 20
160.078
 11
-56.5942
 21
159.96
  0
LINE
  8
0
 10
-56.5942
 20
159.96
 11
-57
 21
159.92
  0
LINE
  8
0
 10
-57
 20
159.92
 11
-57.4058
 21
159.96
  0
LINE
  8
0
 10
-150.406
 20
159.96
 11
-150.796
 21
160.078
  0
LINE
  8
0
 10
-150.796
 20
160.078
 11
-151.156
 21
160.271
  0
LINE
  8
0
 10
-151.156
 20
160.271
 11
-151.471
 21
160.529
  0
LINE
  8
0
 10
-151.471
 20
160.529
 11
-151.729
 21
160.844
  0
LINE
  8
0
 10
-151.729
 20
160.844
 11
-151.922
 21
161.204
  0
LINE
  8
0
 10
-151.922
 20
161.204
 11
-152.04
 21
161.594
  0
LINE
  8
0
 10
-152.04
 20
161.594
 11
-152.08
 21
162
  0
LINE
  8
0
 10
-152.08
 20
162
 11
-152.04
 21
162.406
  0
LINE
  8
0
 10
-152.04
 20
162.406
 11
-151.922
 21
162.796
  0
LINE
  8
0
 10
-151.922
 20
162.796
 11
-151.729
 21
163.156
  0
LINE
  8
0
 10
-151.729
 20
163.156
 11
-151.471
 21
163.471
  0
LINE
  8
0
 10
-151.471
 20
163.471
 11
-151.156
 21
163.729
  0
LINE
  8
0
 10
-151.156
 20
163.729
 11
-150.796
 21
163.922
  0
LINE
  8
0
 10
-150.796
 20
163.922
 11
-150.406
 21
164.04
  0
LINE
  8
0
 10
-150.406
 20
164.04
 11
-150
 21
164.08
  0
LINE
  8
0
 10
-150
 20
164.08
 11
-149.594
 21
164.04
  0
LINE
  8
0
 10
-149.594
 20
164.04
 11
-149.204
 21
163.922
  0
LINE
  8
0
 10
-149.204
 20
163.922
 11
-148.844
 21
163.729
  0
LINE
  8
0
 10
-148.844
 20
163.729
 11
-148.529
 21
163.471
  0
LINE
  8
0
 10
-148.529
 20
163.471
 11
-148.271
 21
163.156
  0
LINE
  8
0
 10
-148.271
 20
163.156
 11
-148.078
 21
162.796
  0
LINE
  8
0
 10
-148.078
 20
162.796
 11
-147.96
 21
162.406
  0
LINE
  8
0
 10
-147.96
 20
162.406
 11
-147.92
 21
162
  0
LINE
  8
0
 10
-147.92
 20
162
 11
-147.96
 21
161.594
  0
LINE
  8
0
 10
-147.96
 20
161.594
 11
-148.078
 21
161.204
  0
LINE
  8
0
 10
-148.078
 20
161.204
 11
-148.271
 21
160.844
  0
LINE
  8
0
 10
-148.271
 20
160.844
 11
-148.529
 21
160.529
  0
LINE
  8
0
 10
-148.529
 20
160.529
 11
-148.844
 21
160.271
  0
LINE
  8
0
 10
-148.844
 20
160.271
 11
-149.204
 21
160.078
  0
LINE
  8
0
 10
-149.204
 20
160.078
 11
-149.594
 21
159.96
  0
LINE
  8
0
 10
-149.594
 20
159.96
 11
-150
 21
159.92
  0
LINE
  8
0
 10
-150
 20
159.92
 11
-150.406
 21
159.96
  0
LINE
  8
0
 10
149.594
 20
159.96
 11
149.204
 21
160.078
  0
LINE
  8
0
 10
149.204
 20
160.078
 11
148.844
 21
160.271
  0
LINE
  8
0
 10
148.844
 20
160.271
 11
148.529
 21
160.529
  0
LINE
  8
0
 10
148.529
 20
160.529
 11
148.271
 21
160.844
  0
LINE
  8
0
 10
148.271
 20
160.844
 11
148.078
 21
161.204
  0
LINE
  8
0
 10
148.078
 20
161.204
 11
147.96
 21
161.594
  0
LINE
  8
0
 10
147.96
 20
161.594
 11
147.92
 21
162
  0
LINE
  8
0
 10
147.92
 20
162
 11
147.96
 21
162.406
  0
LINE
  8
0
 10
147.96
 20
162.406
 11
148.078
 21
162.796
  0
LINE
  8
0
 10
148.078
 20
162.796
 11
148.271
 21
163.156
  0
LINE
  8
0
 10
148.271
 20
163.156
 11
148.529
 21
163.471
  0
LINE
  8
0
 10
148.529
 20
163.471
 11
148.844
 21
163.729
  0
LINE
  8
0
 10
148.844
 20
163.729
 11
149.204
 21
163.922
  0
LINE
  8
0
 10
149.204
 20
163.922
 11
149.594
 21
164.04
  0
LINE
  8
0
 10
149.594
 20
164.04
 11
150
 21
164.08
  0
LINE
  8
0
 10
150
 20
164.08
 11
150.406
 21
164.04
  0
LINE
  8
0
 10
150.406
 20
164.04
 11
150.796
 21
163.922
  0
LINE
  8
0
 10
150.796
 20
163.922
 11
151.156
 21
163.729
  0
LINE
  8
0
 10
151.156
 20
163.729
 11
151.471
 21
163.471
  0
LINE
  8
0
 10
151.471
 20
163.471
 11
151.729
 21
163.156
  0
LINE
  8
0
 10
151.729
 20
163.156
 11
151.922
 21
162.796
  0
LINE
  8
0
 10
151.922
 20
162.796
 11
152.04
 21
162.406
  0
LINE
  8
0
 10
152.04
 20
162.406
 11
152.08
 21
162
  0
LINE
  8
0
 10
152.08
 20
162
 11
152.04
 21
161.594
  0
LINE
  8
0
 10
152.04
 20
161.594
 11
151.922
 21
161.204
  0
LINE
  8
0
 10
151.922
 20
161.204
 11
151.729
 21
160.844
  0
LINE
  8
0
 10
151.729
 20
160.844
 11
151.471
 21
160.529
  0
LINE
  8
0
 10
151.471
 20
160.529
 11
151.156
 21
160.271
  0
LINE
  8
0
 10
151.156
 20
160.271
 11
150.796
 21
160.078
  0
LINE
  8
0
 10
150.796
 20
160.078
 11
150.406
 21
159.96
  0
LINE
  8
0
 10
150.406
 20
159.96
 11
150
 21
159.92
  0
LINE
  8
0
 10
150
 20
159.92
 11
149.594
 21
159.96
  0
LINE
  8
0
 10
-0.795959
 20
135.998
 11
-1.56134
 21
136.231
  0
LINE
  8
0
 10
-1.56134
 20
136.231
 11
-2.26672
 21
136.608
  0
LINE
  8
0
 10
-2.26672
 20
136.608
 11
-2.88499
 21
137.115
  0
LINE
  8
0
 10
-2.88499
 20
137.115
 11
-3.3924
 21
137.733
  0
LINE
  8
0
 10
-3.3924
 20
137.733
 11
-3.76942
 21
138.439
  0
LINE
  8
0
 10
-3.76942
 20
138.439
 11
-4.0016
 21
139.204
  0
LINE
  8
0
 10
-4.0016
 20
139.204
 11
-4.07999
 21
140
  0
LINE
  8
0
 10
-4.07999
 20
140
 11
-4.0016
 21
140.796
  0
LINE
  8
0
 10
-4.0016
 20
140.796
 11
-3.76942
 21
141.561
  0
LINE
  8
0
 10
-3.76942
 20
141.561
 11
-3.3924
 21
142.267
  0
LINE
  8
0
 10
-3.3924
 20
142.267
 11
-2.88499
 21
142.885
  0
LINE
  8
0
 10
-2.88499
 20
142.885
 11
-2.26672
 21
143.392
  0
LINE
  8
0
 10
-2.26672
 20
143.392
 11
-1.56134
 21
143.769
  0
LINE
  8
0
 10
-1.56134
 20
143.769
 11
-0.795959
 21
144.002
  0
LINE
  8
0
 10
-0.795959
 20
144.002
 11
0
 21
144.08
  0
LINE
  8
0
 10
0
 20
144.08
 11
0.795959
 21
144.002
  0
LINE
  8
0
 10
0.795959
 20
144.002
 11
1.56134
 21
143.769
  0
LINE
  8
0
 10
1.56134
 20
143.769
 11
2.26672
 21
143.392
  0
LINE
  8
0
 10
2.26672
 20
143.392
 11
2.88499
 21
142.885
  0
LINE
  8
0
 10
2.88499
 20
142.885
 11
3.3924
 21
142.267
  0
LINE
  8
0
 10
3.3924
 20
142.267
 11
3.76942
 21
141.561
  0
LINE
  8
0
 10
3.76942
 20
141.561
 11
4.0016
 21
140.796
  0
LINE
  8
0
 10
4.0016
 20
140.796
 11
4.07999
 21
140
  0
LINE
  8
0
 10
4.07999
 20
140
 11
4.0016
 21
139.204
  0
LINE
  8
0
 10
4.0016
 20
139.204
 11
3.76942
 21
138.439
  0
LINE
  8
0
 10
3.76942
 20
138.439
 11
3.3924
 21
137.733
  0
LINE
  8
0
 10
3.3924
 20
137.733
 11
2.88499
 21
137.115
  0
LINE
  8
0
 10
2.88499
 20
137.115
 11
2.26672
 21
136.608
  0
LINE
  8
0
 10
2.26672
 20
136.608
 11
1.56134
 21
136.231
  0
LINE
  8
0
 10
1.56134
 20
136.231
 11
0.795959
 21
135.998
  0
LINE
  8
0
 10
0.795959
 20
135.998
 11
0
 21
135.92
  0
LINE
  8
0
 10
0
 20
135.92
 11
-0.795959
 21
135.998
  0
LINE
  8
0
 10
-0.308228
 20
-1.54964
 11
-0.60463
 21
-1.45972
  0
LINE
  8
0
 10
-0.60463
 20
-1.45972
 11
-0.877792
 21
-1.31372
  0
LINE
  8
0
 10
-0.877792
 20
-1.31372
 11
-1.11722
 21
-1.11722
  0
LINE
  8
0
 10
-1.11722
 20
-1.11722
 11
-1.31372
 21
-0.877792
  0
LINE
  8
0
 10
-1.31372
 20
-0.877792
 11
-1.45972
 21
-0.60463
  0
LINE
  8
0
 10
-1.45972
 20
-0.60463
 11
-1.54964
 21
-0.308228
  0
LINE
  8
0
 10
-1.54964
 20
-0.308228
 11
-1.57999
 21
0
  0
LINE
  8
0
 10
-1.57999
 20
0
 11
-1.54964
 21
0.308228
  0
LINE
  8
0
 10
-1.54964
 20
0.308228
 11
-1.45972
 21
0.60463
  0
LINE
  8
0
 10
-1.45972
 20
0.60463
 11
-1.31372
 21
0.877792
  0
LINE
  8
0
 10
-1.31372
 20
0.877792
 11
-1.11722
 21
1.11722
  0
LINE
  8
0
 10
-1.11722
 20
1.11722
 11
-0.877792
 21
1.31372
  0
LINE
  8
0
 10
-0.877792
 20
1.31372
 11
-0.60463
 21
1.45972
  0
LINE
  8
0
 10
-0.60463
 20
1.45972
 11
-0.308228
 21
1.54964
  0
LINE
  8
0
 10
-0.308228
 20
1.54964
 11
0
 21
1.57999
  0
LINE
  8
0
 10
0
 20
1.57999
 11
0.308228
 21
1.54964
  0
LINE
  8
0
 10
0.308228
 20
1.54964
 11
0.60463
 21
1.45972
  0
LINE
  8
0
 10
0.60463
 20
1.45972
 11
0.877792
 21
1.31372
  0
LINE
  8
0
 10
0.877792
 20
1.31372
 11
1.11722
 21
1.11722
  0
LINE
  8
0
 10
1.11722
 20
1.11722
 11
1.31372
 21
0.877792
  0
LINE
  8
0
 10
1.31372
 20
0.877792
 11
1.45972
 21
0.60463
  0
LINE
  8
0
 10
1.45972
 20
0.60463
 11
1.54964
 21
0.308228
  0
LINE
  8
0
 10
1.54964
 20
0.308228
 11
1.57999
 21
0
  0
LINE
  8
0
 10
1.57999
 20
0
 11
1.54964
 21
-0.308228
  0
LINE
  8
0
 10
1.54964
 20
-0.308228
 11
1.45972
 21
-0.60463
  0
LINE
  8
0
 10
1.45972
 20
-0.60463
 11
1.31372
 21
-0.877792
  0
LINE
  8
0
 10
1.31372
 20
-0.877792
 11
1.11722
 21
-1.11722
  0
LINE
  8
0
 10
1.11722
 20
-1.11722
 11
0.877792
 21
-1.31372
  0
LINE
  8
0
 10
0.877792
 20
-1.31372
 11
0.60463
 21
-1.45972
  0
LINE
  8
0
 10
0.60463
 20
-1.45972
 11
0.308228
 21
-1.54964
  0
LINE
  8
0
 10
0.308228
 20
-1.54964
 11
0
 21
-1.57999
  0
LINE
  8
0
 10
0
 20
-1.57999
 11
-0.308228
 21
-1.54964
  0
LINE
  8
0
 10
-169.334
 20
-33.6457
 11
-169.716
 21
-33.502
  0
LINE
  8
0
 10
-169.716
 20
-33.502
 11
-170.062
 21
-33.2867
  0
LINE
  8
0
 10
-170.062
 20
-33.2867
 11
-170.36
 21
-33.008
  0
LINE
  8
0
 10
-170.36
 20
-33.008
 11
-170.597
 21
-32.6765
  0
LINE
  8
0
 10
-170.597
 20
-32.6765
 11
-170.766
 21
-32.3051
  0
LINE
  8
0
 10
-170.766
 20
-32.3051
 11
-170.858
 21
-31.908
  0
LINE
  8
0
 10
-170.858
 20
-31.908
 11
-170.872
 21
-31.5005
  0
LINE
  8
0
 10
-170.872
 20
-31.5005
 11
-170.805
 21
-31.0982
  0
LINE
  8
0
 10
-170.805
 20
-31.0982
 11
-170.662
 21
-30.7166
  0
LINE
  8
0
 10
-170.662
 20
-30.7166
 11
-170.446
 21
-30.3703
  0
LINE
  8
0
 10
-170.446
 20
-30.3703
 11
-170.168
 21
-30.0727
  0
LINE
  8
0
 10
-170.168
 20
-30.0727
 11
-169.836
 21
-29.8352
  0
LINE
  8
0
 10
-169.836
 20
-29.8352
 11
-169.465
 21
-29.6669
  0
LINE
  8
0
 10
-169.465
 20
-29.6669
 11
-169.068
 21
-29.5743
  0
LINE
  8
0
 10
-169.068
 20
-29.5743
 11
-168.66
 21
-29.561
  0
LINE
  8
0
 10
-168.66
 20
-29.561
 11
-168.258
 21
-29.6274
  0
LINE
  8
0
 10
-168.258
 20
-29.6274
 11
-167.876
 21
-29.7711
  0
LINE
  8
0
 10
-167.876
 20
-29.7711
 11
-167.53
 21
-29.9864
  0
LINE
  8
0
 10
-167.53
 20
-29.9864
 11
-167.232
 21
-30.2651
  0
LINE
  8
0
 10
-167.232
 20
-30.2651
 11
-166.995
 21
-30.5965
  0
LINE
  8
0
 10
-166.995
 20
-30.5965
 11
-166.826
 21
-30.968
  0
LINE
  8
0
 10
-166.826
 20
-30.968
 11
-166.734
 21
-31.3651
  0
LINE
  8
0
 10
-166.734
 20
-31.3651
 11
-166.721
 21
-31.7726
  0
LINE
  8
0
 10
-166.721
 20
-31.7726
 11
-166.787
 21
-32.1749
  0
LINE
  8
0
 10
-166.787
 20
-32.1749
 11
-166.931
 21
-32.5565
  0
LINE
  8
0
 10
-166.931
 20
-32.5565
 11
-167.146
 21
-32.9028
  0
LINE
  8
0
 10
-167.146
 20
-32.9028
 11
-167.425
 21
-33.2004
  0
LINE
  8
0
 10
-167.425
 20
-33.2004
 11
-167.756
 21
-33.4379
  0
LINE
  8
0
 10
-167.756
 20
-33.4379
 11
-168.128
 21
-33.6062
  0
LINE
  8
0
 10
-168.128
 20
-33.6062
 11
-168.525
 21
-33.6987
  0
LINE
  8
0
 10
-168.525
 20
-33.6987
 11
-168.932
 21
-33.7121
  0
LINE
  8
0
 10
-168.932
 20
-33.7121
 11
-169.334
 21
-33.6457
  0
LINE
  8
0
 10
168.525
 20
-33.6987
 11
168.128
 21
-33.6062
  0
LINE
  8
0
 10
168.128
 20
-33.6062
 11
167.756
 21
-33.4379
  0
LINE
  8
0
 10
167.756
 20
-33.4379
 11
167.425
 21
-33.2004
  0
LINE
  8
0
 10
167.425
 20
-33.2004
 11
167.146
 21
-32.9028
  0
LINE
  8
0
 10
167.146
 20
-32.9028
 11
166.931
 21
-32.5565
  0
LINE
  8
0
 10
166.931
 20
-32.5565
 11
166.787
 21
-32.1749
  0
LINE
  8
0
 10
166.787
 20
-32.1749
 11
166.721
 21
-31.7726
  0
LINE
  8
0
 10
166.721
 20
-31.7726
 11
166.734
 21
-31.3651
  0
LINE
  8
0
 10
166.734
 20
-31.3651
 11
166.826
 21
-30.968
  0
LINE
  8
0
 10
166.826
 20
-30.968
 11
166.995
 21
-30.5965
  0
LINE
  8
0
 10
166.995
 20
-30.5965
 11
167.232
 21
-30.2651
  0
LINE
  8
0
 10
167.232
 20
-30.2651
 11
167.53
 21
-29.9864
  0
LINE
  8
0
 10
167.53
 20
-29.9864
 11
167.876
 21
-29.7711
  0
LINE
  8
0
 10
167.876
 20
-29.7711
 11
168.258
 21
-29.6274
  0
LINE
  8
0
 10
168.258
 20
-29.6274
 11
168.66
 21
-29.561
  0
LINE
  8
0
 10
168.66
 20
-29.561
 11
169.068
 21
-29.5743
  0
LINE
  8
0
 10
169.068
 20
-29.5743
 11
169.465
 21
-29.6669
  0
LINE
  8
0
 10
169.465
 20
-29.6669
 11
169.836
 21
-29.8352
  0
LINE
  8
0
 10
169.836
 20
-29.8352
 11
170.168
 21
-30.0727
  0
LINE
  8
0
 10
170.168
 20
-30.0727
 11
170.446
 21
-30.3703
  0
LINE
  8
0
 10
170.446
 20
-30.3703
 11
170.662
 21
-30.7166
  0
LINE
  8
0
 10
170.662
 20
-30.7166
 11
170.805
 21
-31.0982
  0
LINE
  8
0
 10
170.805
 20
-31.0982
 11
170.872
 21
-31.5005
  0
LINE
  8
0
 10
170.872
 20
-31.5005
 11
170.858
 21
-31.908
  0
LINE
  8
0
 10
170.858
 20
-31.908
 11
170.766
 21
-32.3051
  0
LINE
  8
0
 10
170.766
 20
-32.3051
 11
170.597
 21
-32.6765
  0
LINE
  8
0
 10
170.597
 20
-32.6765
 11
170.36
 21
-33.008
  0
LINE
  8
0
 10
170.36
 20
-33.008
 11
170.062
 21
-33.2867
  0
LINE
  8
0
 10
170.062
 20
-33.2867
 11
169.716
 21
-33.502
  0
LINE
  8
0
 10
169.716
 20
-33.502
 11
169.334
 21
-33.6457
  0
LINE
  8
0
 10
169.334
 20
-33.6457
 11
168.932
 21
-33.7121
  0
LINE
  8
0
 10
168.932
 20
-33.7121
 11
168.525
 21
-33.6987
  0
LINE
  8
0
 10
-155.834
 20
-57.0284
 11
-156.216
 21
-56.8847
  0
LINE
  8
0
 10
-156.216
 20
-56.8847
 11
-156.562
 21
-56.6694
  0
LINE
  8
0
 10
-156.562
 20
-56.6694
 11
-156.86
 21
-56.3907
  0
LINE
  8
0
 10
-156.86
 20
-56.3907
 11
-157.097
 21
-56.0592
  0
LINE
  8
0
 10
-157.097
 20
-56.0592
 11
-157.266
 21
-55.6878
  0
LINE
  8
0
 10
-157.266
 20
-55.6878
 11
-157.358
 21
-55.2907
  0
LINE
  8
0
 10
-157.358
 20
-55.2907
 11
-157.372
 21
-54.8832
  0
LINE
  8
0
 10
-157.372
 20
-54.8832
 11
-157.305
 21
-54.4809
  0
LINE
  8
0
 10
-157.305
 20
-54.4809
 11
-157.162
 21
-54.0993
  0
LINE
  8
0
 10
-157.162
 20
-54.0993
 11
-156.946
 21
-53.753
  0
LINE
  8
0
 10
-156.946
 20
-53.753
 11
-156.668
 21
-53.4554
  0
LINE
  8
0
 10
-156.668
 20
-53.4554
 11
-156.336
 21
-53.2179
  0
LINE
  8
0
 10
-156.336
 20
-53.2179
 11
-155.965
 21
-53.0496
  0
LINE
  8
0
 10
-155.965
 20
-53.0496
 11
-155.568
 21
-52.957
  0
LINE
  8
0
 10
-155.568
 20
-52.957
 11
-155.16
 21
-52.9437
  0
LINE
  8
0
 10
-155.16
 20
-52.9437
 11
-154.758
 21
-53.0101
  0
LINE
  8
0
 10
-154.758
 20
-53.0101
 11
-154.376
 21
-53.1537
  0
LINE
  8
0
 10
-154.376
 20
-53.1537
 11
-154.03
 21
-53.3691
  0
LINE
  8
0
 10
-154.03
 20
-53.3691
 11
-153.732
 21
-53.6478
  0
LINE
  8
0
 10
-153.732
 20
-53.6478
 11
-153.495
 21
-53.9792
  0
LINE
  8
0
 10
-153.495
 20
-53.9792
 11
-153.326
 21
-54.3506
  0
LINE
  8
0
 10
-153.326
 20
-54.3506
 11
-153.234
 21
-54.7477
  0
LINE
  8
0
 10
-153.234
 20
-54.7477
 11
-153.221
 21
-55.1553
  0
LINE
  8
0
 10
-153.221
 20
-55.1553
 11
-153.287
 21
-55.5576
  0
LINE
  8
0
 10
-153.287
 20
-55.5576
 11
-153.431
 21
-55.9392
  0
LINE
  8
0
 10
-153.431
 20
-55.9392
 11
-153.646
 21
-56.2855
  0
LINE
  8
0
 10
-153.646
 20
-56.2855
 11
-153.925
 21
-56.5831
  0
LINE
  8
0
 10
-153.925
 20
-56.5831
 11
-154.256
 21
-56.8206
  0
LINE
  8
0
 10
-154.256
 20
-56.8206
 11
-154.628
 21
-56.9888
  0
LINE
  8
0
 10
-154.628
 20
-56.9888
 11
-155.025
 21
-57.0814
  0
LINE
  8
0
 10
-155.025
 20
-57.0814
 11
-155.432
 21
-57.0948
  0
LINE
  8
0
 10
-155.432
 20
-57.0948
 11
-155.834
 21
-57.0284
  0
LINE
  8
0
 10
155.025
 20
-57.0814
 11
154.628
 21
-56.9888
  0
LINE
  8
0
 10
154.628
 20
-56.9888
 11
154.256
 21
-56.8206
  0
LINE
  8
0
 10
154.256
 20
-56.8206
 11
153.925
 21
-56.5831
  0
LINE
  8
0
 10
153.925
 20
-56.5831
 11
153.646
 21
-56.2855
  0
LINE
  8
0
 10
153.646
 20
-56.2855
 11
153.431
 21
-55.9392
  0
LINE
  8
0
 10
153.431
 20
-55.9392
 11
153.287
 21
-55.5576
  0
LINE
  8
0
 10
153.287
 20
-55.5576
 11
153.221
 21
-55.1553
  0
LINE
  8
0
 10
153.221
 20
-55.1553
 11
153.234
 21
-54.7477
  0
LINE
  8
0
 10
153.234
 20
-54.7477
 11
153.326
 21
-54.3506
  0
LINE
  8
0
 10
153.326
 20
-54.3506
 11
153.495
 21
-53.9792
  0
LINE
  8
0
 10
153.495
 20
-53.9792
 11
153.732
 21
-53.6478
  0
LINE
  8
0
 10
153.732
 20
-53.6478
 11
154.03
 21
-53.3691
  0
LINE
  8
0
 10
154.03
 20
-53.3691
 11
154.376
 21
-53.1537
  0
LINE
  8
0
 10
154.376
 20
-53.1537
 11
154.758
 21
-53.0101
  0
LINE
  8
0
 10
154.758
 20
-53.0101
 11
155.16
 21
-52.9437
  0
LINE
  8
0
 10
155.16
 20
-52.9437
 11
155.568
 21
-52.957
  0
LINE
  8
0
 10
155.568
 20
-52.957
 11
155.965
 21
-53.0496
  0
LINE
  8
0
 10
155.965
 20
-53.0496
 11
156.336
 21
-53.2179
  0
LINE
  8
0
 10
156.336
 20
-53.2179
 11
156.668
 21
-53.4554
  0
LINE
  8
0
 10
156.668
 20
-53.4554
 11
156.946
 21
-53.753
  0
LINE
  8
0
 10
156.946
 20
-53.753
 11
157.162
 21
-54.0993
  0
LINE
  8
0
 10
157.162
 20
-54.0993
 11
157.305
 21
-54.4809
  0
LINE
  8
0
 10
157.305
 20
-54.4809
 11
157.372
 21
-54.8832
  0
LINE
  8
0
 10
157.372
 20
-54.8832
 11
157.358
 21
-55.2907
  0
LINE
  8
0
 10
157.358
 20
-55.2907
 11
157.266
 21
-55.6878
  0
LINE
  8
0
 10
157.266
 20
-55.6878
 11
157.097
 21
-56.0592
  0
LINE
  8
0
 10
157.097
 20
-56.0592
 11
156.86
 21
-56.3907
  0
LINE
  8
0
 10
156.86
 20
-56.3907
 11
156.562
 21
-56.6694
  0
LINE
  8
0
 10
156.562
 20
-56.6694
 11
156.216
 21
-56.8847
  0
LINE
  8
0
 10
156.216
 20
-56.8847
 11
155.834
 21
-57.0284
  0
LINE
  8
0
 10
155.834
 20
-57.0284
 11
155.432
 21
-57.0948
  0
LINE
  8
0
 10
155.432
 20
-57.0948
 11
155.025
 21
-57.0814
  0
LINE
  8
0
 10
-122.3
 20
-73.941
 11
-123.048
 21
-73.6592
  0
LINE
  8
0
 10
-123.048
 20
-73.6592
 11
-123.727
 21
-73.2369
  0
LINE
  8
0
 10
-123.727
 20
-73.2369
 11
-124.311
 21
-72.6901
  0
LINE
  8
0
 10
-124.311
 20
-72.6901
 11
-124.777
 21
-72.04
  0
LINE
  8
0
 10
-124.777
 20
-72.04
 11
-125.107
 21
-71.3115
  0
LINE
  8
0
 10
-125.107
 20
-71.3115
 11
-125.289
 21
-70.5325
  0
LINE
  8
0
 10
-125.289
 20
-70.5325
 11
-125.315
 21
-69.7332
  0
LINE
  8
0
 10
-125.315
 20
-69.7332
 11
-125.185
 21
-68.944
  0
LINE
  8
0
 10
-125.185
 20
-68.944
 11
-124.903
 21
-68.1955
  0
LINE
  8
0
 10
-124.903
 20
-68.1955
 11
-124.48
 21
-67.5163
  0
LINE
  8
0
 10
-124.48
 20
-67.5163
 11
-123.934
 21
-66.9325
  0
LINE
  8
0
 10
-123.934
 20
-66.9325
 11
-123.284
 21
-66.4666
  0
LINE
  8
0
 10
-123.284
 20
-66.4666
 11
-122.555
 21
-66.1365
  0
LINE
  8
0
 10
-122.555
 20
-66.1365
 11
-121.776
 21
-65.9549
  0
LINE
  8
0
 10
-121.776
 20
-65.9549
 11
-120.977
 21
-65.9287
  0
LINE
  8
0
 10
-120.977
 20
-65.9287
 11
-120.188
 21
-66.059
  0
LINE
  8
0
 10
-120.188
 20
-66.059
 11
-119.439
 21
-66.3408
  0
LINE
  8
0
 10
-119.439
 20
-66.3408
 11
-118.76
 21
-66.7631
  0
LINE
  8
0
 10
-118.76
 20
-66.7631
 11
-118.176
 21
-67.3099
  0
LINE
  8
0
 10
-118.176
 20
-67.3099
 11
-117.71
 21
-67.96
  0
LINE
  8
0
 10
-117.71
 20
-67.96
 11
-117.38
 21
-68.6885
  0
LINE
  8
0
 10
-117.38
 20
-68.6885
 11
-117.198
 21
-69.4675
  0
LINE
  8
0
 10
-117.198
 20
-69.4675
 11
-117.172
 21
-70.2668
  0
LINE
  8
0
 10
-117.172
 20
-70.2668
 11
-117.303
 21
-71.056
  0
LINE
  8
0
 10
-117.303
 20
-71.056
 11
-117.584
 21
-71.8045
  0
LINE
  8
0
 10
-117.584
 20
-71.8045
 11
-118.007
 21
-72.4837
  0
LINE
  8
0
 10
-118.007
 20
-72.4837
 11
-118.553
 21
-73.0675
  0
LINE
  8
0
 10
-118.553
 20
-73.0675
 11
-119.204
 21
-73.5334
  0
LINE
  8
0
 10
-119.204
 20
-73.5334
 11
-119.932
 21
-73.8635
  0
LINE
  8
0
 10
-119.932
 20
-73.8635
 11
-120.711
 21
-74.0451
  0
LINE
  8
0
 10
-120.711
 20
-74.0451
 11
-121.51
 21
-74.0713
  0
LINE
  8
0
 10
-121.51
 20
-74.0713
 11
-122.3
 21
-73.941
  0
LINE
  8
0
 10
120.711
 20
-74.0451
 11
119.932
 21
-73.8635
  0
LINE
  8
0
 10
119.932
 20
-73.8635
 11
119.204
 21
-73.5334
  0
LINE
  8
0
 10
119.204
 20
-73.5334
 11
118.553
 21
-73.0675
  0
LINE
  8
0
 10
118.553
 20
-73.0675
 11
118.007
 21
-72.4837
  0
LINE
  8
0
 10
118.007
 20
-72.4837
 11
117.584
 21
-71.8045
  0
LINE
  8
0
 10
117.584
 20
-71.8045
 11
117.303
 21
-71.056
  0
LINE
  8
0
 10
117.303
 20
-71.056
 11
117.172
 21
-70.2668
  0
LINE
  8
0
 10
117.172
 20
-70.2668
 11
117.198
 21
-69.4675
  0
LINE
  8
0
 10
117.198
 20
-69.4675
 11
117.38
 21
-68.6885
  0
LINE
  8
0
 10
117.38
 20
-68.6885
 11
117.71
 21
-67.96
  0
LINE
  8
0
 10
117.71
 20
-67.96
 11
118.176
 21
-67.3099
  0
LINE
  8
0
 10
118.176
 20
-67.3099
 11
118.76
 21
-66.7631
  0
LINE
  8
0
 10
118.76
 20
-66.7631
 11
119.439
 21
-66.3408
  0
LINE
  8
0
 10
119.439
 20
-66.3408
 11
120.188
 21
-66.059
  0
LINE
  8
0
 10
120.188
 20
-66.059
 11
120.977
 21
-65.9287
  0
LINE
  8
0
 10
120.977
 20
-65.9287
 11
121.776
 21
-65.9549
  0
LINE
  8
0
 10
121.776
 20
-65.9549
 11
122.555
 21
-66.1365
  0
LINE
  8
0
 10
122.555
 20
-66.1365
 11
123.284
 21
-66.4666
  0
LINE
  8
0
 10
123.284
 20
-66.4666
 11
123.934
 21
-66.9325
  0
LINE
  8
0
 10
123.934
 20
-66.9325
 11
124.48
 21
-67.5163
  0
LINE
  8
0
 10
124.48
 20
-67.5163
 11
124.903
 21
-68.1955
  0
LINE
  8
0
 10
124.903
 20
-68.1955
 11
125.185
 21
-68.944
  0
LINE
  8
0
 10
125.185
 20
-68.944
 11
125.315
 21
-69.7332
  0
LINE
  8
0
 10
125.315
 20
-69.7332
 11
125.289
 21
-70.5325
  0
LINE
  8
0
 10
125.289
 20
-70.5325
 11
125.107
 21
-71.3115
  0
LINE
  8
0
 10
125.107
 20
-71.3115
 11
124.777
 21
-72.04
  0
LINE
  8
0
 10
124.777
 20
-72.04
 11
124.311
 21
-72.6901
  0
LINE
  8
0
 10
124.311
 20
-72.6901
 11
123.727
 21
-73.2369
  0
LINE
  8
0
 10
123.727
 20
-73.2369
 11
123.048
 21
-73.6592
  0
LINE
  8
0
 10
123.048
 20
-73.6592
 11
122.3
 21
-73.941
  0
LINE
  8
0
 10
122.3
 20
-73.941
 11
121.51
 21
-74.0713
  0
LINE
  8
0
 10
121.51
 20
-74.0713
 11
120.711
 21
-74.0451
  0
LINE
  8
0
 10
-125.834
 20
-108.99
 11
-126.216
 21
-108.846
  0
LINE
  8
0
 10
-126.216
 20
-108.846
 11
-126.562
 21
-108.631
  0
LINE
  8
0
 10
-126.562
 20
-108.631
 11
-126.86
 21
-108.352
  0
LINE
  8
0
 10
-126.86
 20
-108.352
 11
-127.097
 21
-108.021
  0
LINE
  8
0
 10
-127.097
 20
-108.021
 11
-127.266
 21
-107.649
  0
LINE
  8
0
 10
-127.266
 20
-107.649
 11
-127.358
 21
-107.252
  0
LINE
  8
0
 10
-127.358
 20
-107.252
 11
-127.372
 21
-106.845
  0
LINE
  8
0
 10
-127.372
 20
-106.845
 11
-127.305
 21
-106.442
  0
LINE
  8
0
 10
-127.305
 20
-106.442
 11
-127.162
 21
-106.061
  0
LINE
  8
0
 10
-127.162
 20
-106.061
 11
-126.946
 21
-105.715
  0
LINE
  8
0
 10
-126.946
 20
-105.715
 11
-126.668
 21
-105.417
  0
LINE
  8
0
 10
-126.668
 20
-105.417
 11
-126.336
 21
-105.179
  0
LINE
  8
0
 10
-126.336
 20
-105.179
 11
-125.965
 21
-105.011
  0
LINE
  8
0
 10
-125.965
 20
-105.011
 11
-125.568
 21
-104.919
  0
LINE
  8
0
 10
-125.568
 20
-104.919
 11
-125.16
 21
-104.905
  0
LINE
  8
0
 10
-125.16
 20
-104.905
 11
-124.758
 21
-104.972
  0
LINE
  8
0
 10
-124.758
 20
-104.972
 11
-124.376
 21
-105.115
  0
LINE
  8
0
 10
-124.376
 20
-105.115
 11
-124.03
 21
-105.331
  0
LINE
  8
0
 10
-124.03
 20
-105.331
 11
-123.732
 21
-105.609
  0
LINE
  8
0
 10
-123.732
 20
-105.609
 11
-123.495
 21
-105.941
  0
LINE
  8
0
 10
-123.495
 20
-105.941
 11
-123.326
 21
-106.312
  0
LINE
  8
0
 10
-123.326
 20
-106.312
 11
-123.234
 21
-106.709
  0
LINE
  8
0
 10
-123.234
 20
-106.709
 11
-123.221
 21
-107.117
  0
LINE
  8
0
 10
-123.221
 20
-107.117
 11
-123.287
 21
-107.519
  0
LINE
  8
0
 10
-123.287
 20
-107.519
 11
-123.431
 21
-107.901
  0
LINE
  8
0
 10
-123.431
 20
-107.901
 11
-123.646
 21
-108.247
  0
LINE
  8
0
 10
-123.646
 20
-108.247
 11
-123.925
 21
-108.545
  0
LINE
  8
0
 10
-123.925
 20
-108.545
 11
-124.256
 21
-108.782
  0
LINE
  8
0
 10
-124.256
 20
-108.782
 11
-124.628
 21
-108.95
  0
LINE
  8
0
 10
-124.628
 20
-108.95
 11
-125.025
 21
-109.043
  0
LINE
  8
0
 10
-125.025
 20
-109.043
 11
-125.432
 21
-109.056
  0
LINE
  8
0
 10
-125.432
 20
-109.056
 11
-125.834
 21
-108.99
  0
LINE
  8
0
 10
125.025
 20
-109.043
 11
124.628
 21
-108.95
  0
LINE
  8
0
 10
124.628
 20
-108.95
 11
124.256
 21
-108.782
  0
LINE
  8
0
 10
124.256
 20
-108.782
 11
123.925
 21
-108.545
  0
LINE
  8
0
 10
123.925
 20
-108.545
 11
123.646
 21
-108.247
  0
LINE
  8
0
 10
123.646
 20
-108.247
 11
123.431
 21
-107.901
  0
LINE
  8
0
 10
123.431
 20
-107.901
 11
123.287
 21
-107.519
  0
LINE
  8
0
 10
123.287
 20
-107.519
 11
123.221
 21
-107.117
  0
LINE
  8
0
 10
123.221
 20
-107.117
 11
123.234
 21
-106.709
  0
LINE
  8
0
 10
123.234
 20
-106.709
 11
123.326
 21
-106.312
  0
LINE
  8
0
 10
123.326
 20
-106.312
 11
123.495
 21
-105.941
  0
LINE
  8
0
 10
123.495
 20
-105.941
 11
123.732
 21
-105.609
  0
LINE
  8
0
 10
123.732
 20
-105.609
 11
124.03
 21
-105.331
  0
LINE
  8
0
 10
124.03
 20
-105.331
 11
124.376
 21
-105.115
  0
LINE
  8
0
 10
124.376
 20
-105.115
 11
124.758
 21
-104.972
  0
LINE
  8
0
 10
124.758
 20
-104.972
 11
125.16
 21
-104.905
  0
LINE
  8
0
 10
125.16
 20
-104.905
 11
125.568
 21
-104.919
  0
LINE
  8
0
 10
125.568
 20
-104.919
 11
125.965
 21
-105.011
  0
LINE
  8
0
 10
125.965
 20
-105.011
 11
126.336
 21
-105.179
  0
LINE
  8
0
 10
126.336
 20
-105.179
 11
126.668
 21
-105.417
  0
LINE
  8
0
 10
126.668
 20
-105.417
 11
126.946
 21
-105.715
  0
LINE
  8
0
 10
126.946
 20
-105.715
 11
127.162
 21
-106.061
  0
LINE
  8
0
 10
127.162
 20
-106.061
 11
127.305
 21
-106.442
  0
LINE
  8
0
 10
127.305
 20
-106.442
 11
127.372
 21
-106.845
  0
LINE
  8
0
 10
127.372
 20
-106.845
 11
127.358
 21
-107.252
  0
LINE
  8
0
 10
127.358
 20
-107.252
 11
127.266
 21
-107.649
  0
LINE
  8
0
 10
127.266
 20
-107.649
 11
127.097
 21
-108.021
  0
LINE
  8
0
 10
127.097
 20
-108.021
 11
126.86
 21
-108.352
  0
LINE
  8
0
 10
126.86
 20
-108.352
 11
126.562
 21
-108.631
  0
LINE
  8
0
 10
126.562
 20
-108.631
 11
126.216
 21
-108.846
  0
LINE
  8
0
 10
126.216
 20
-108.846
 11
125.834
 21
-108.99
  0
LINE
  8
0
 10
125.834
 20
-108.99
 11
125.432
 21
-109.056
  0
LINE
  8
0
 10
125.432
 20
-109.056
 11
125.025
 21
-109.043
  0
LINE
  8
0
 10
-112.334
 20
-132.373
 11
-112.716
 21
-132.229
  0
LINE
  8
0
 10
-112.716
 20
-132.229
 11
-113.062
 21
-132.014
  0
LINE
  8
0
 10
-113.062
 20
-132.014
 11
-113.36
 21
-131.735
  0
LINE
  8
0
 10
-113.36
 20
-131.735
 11
-113.597
 21
-131.403
  0
LINE
  8
0
 10
-113.597
 20
-131.403
 11
-113.766
 21
-131.032
  0
LINE
  8
0
 10
-113.766
 20
-131.032
 11
-113.858
 21
-130.635
  0
LINE
  8
0
 10
-113.858
 20
-130.635
 11
-113.872
 21
-130.227
  0
LINE
  8
0
 10
-113.872
 20
-130.227
 11
-113.805
 21
-129.825
  0
LINE
  8
0
 10
-113.805
 20
-129.825
 11
-113.662
 21
-129.443
  0
LINE
  8
0
 10
-113.662
 20
-129.443
 11
-113.446
 21
-129.097
  0
LINE
  8
0
 10
-113.446
 20
-129.097
 11
-113.168
 21
-128.8
  0
LINE
  8
0
 10
-113.168
 20
-128.8
 11
-112.836
 21
-128.562
  0
LINE
  8
0
 10
-112.836
 20
-128.562
 11
-112.465
 21
-128.394
  0
LINE
  8
0
 10
-112.465
 20
-128.394
 11
-112.068
 21
-128.301
  0
LINE
  8
0
 10
-112.068
 20
-128.301
 11
-111.66
 21
-128.288
  0
LINE
  8
0
 10
-111.66
 20
-128.288
 11
-111.258
 21
-128.354
  0
LINE
  8
0
 10
-111.258
 20
-128.354
 11
-110.876
 21
-128.498
  0
LINE
  8
0
 10
-110.876
 20
-128.498
 11
-110.53
 21
-128.713
  0
LINE
  8
0
 10
-110.53
 20
-128.713
 11
-110.232
 21
-128.992
  0
LINE
  8
0
 10
-110.232
 20
-128.992
 11
-109.995
 21
-129.323
  0
LINE
  8
0
 10
-109.995
 20
-129.323
 11
-109.826
 21
-129.695
  0
LINE
  8
0
 10
-109.826
 20
-129.695
 11
-109.734
 21
-130.092
  0
LINE
  8
0
 10
-109.734
 20
-130.092
 11
-109.721
 21
-130.499
  0
LINE
  8
0
 10
-109.721
 20
-130.499
 11
-109.787
 21
-130.902
  0
LINE
  8
0
 10
-109.787
 20
-130.902
 11
-109.931
 21
-131.283
  0
LINE
  8
0
 10
-109.931
 20
-131.283
 11
-110.146
 21
-131.63
  0
LINE
  8
0
 10
-110.146
 20
-131.63
 11
-110.425
 21
-131.927
  0
LINE
  8
0
 10
-110.425
 20
-131.927
 11
-110.756
 21
-132.165
  0
LINE
  8
0
 10
-110.756
 20
-132.165
 11
-111.128
 21
-132.333
  0
LINE
  8
0
 10
-111.128
 20
-132.333
 11
-111.525
 21
-132.426
  0
LINE
  8
0
 10
-111.525
 20
-132.426
 11
-111.932
 21
-132.439
  0
LINE
  8
0
 10
-111.932
 20
-132.439
 11
-112.334
 21
-132.373
  0
LINE
  8
0
 10
111.525
 20
-132.426
 11
111.128
 21
-132.333
  0
LINE
  8
0
 10
111.128
 20
-132.333
 11
110.756
 21
-132.165
  0
LINE
  8
0
 10
110.756
 20
-132.165
 11
110.425
 21
-131.927
  0
LINE
  8
0
 10
110.425
 20
-131.927
 11
110.146
 21
-131.63
  0
LINE
  8
0
 10
110.146
 20
-131.63
 11
109.931
 21
-131.283
  0
LINE
  8
0
 10
109.931
 20
-131.283
 11
109.787
 21
-130.902
  0
LINE
  8
0
 10
109.787
 20
-130.902
 11
109.721
 21
-130.499
  0
LINE
  8
0
 10
109.721
 20
-130.499
 11
109.734
 21
-130.092
  0
LINE
  8
0
 10
109.734
 20
-130.092
 11
109.826
 21
-129.695
  0
LINE
  8
0
 10
109.826
 20
-129.695
 11
109.995
 21
-129.323
  0
LINE
  8
0
 10
109.995
 20
-129.323
 11
110.232
 21
-128.992
  0
LINE
  8
0
 10
110.232
 20
-128.992
 11
110.53
 21
-128.713
  0
LINE
  8
0
 10
110.53
 20
-128.713
 11
110.876
 21
-128.498
  0
LINE
  8
0
 10
110.876
 20
-128.498
 11
111.258
 21
-128.354
  0
LINE
  8
0
 10
111.258
 20
-128.354
 11
111.66
 21
-128.288
  0
LINE
  8
0
 10
111.66
 20
-128.288
 11
112.068
 21
-128.301
  0
LINE
  8
0
 10
112.068
 20
-128.301
 11
112.465
 21
-128.394
  0
LINE
  8
0
 10
112.465
 20
-128.394
 11
112.836
 21
-128.562
  0
LINE
  8
0
 10
112.836
 20
-128.562
 11
113.168
 21
-128.8
  0
LINE
  8
0
 10
113.168
 20
-128.8
 11
113.446
 21
-129.097
  0
LINE
  8
0
 10
113.446
 20
-129.097
 11
113.662
 21
-129.443
  0
LINE
  8
0
 10
113.662
 20
-129.443
 11
113.805
 21
-129.825
  0
LINE
  8
0
 10
113.805
 20
-129.825
 11
113.872
 21
-130.227
  0
LINE
  8
0
 10
113.872
 20
-130.227
 11
113.858
 21
-130.635
  0
LINE
  8
0
 10
113.858
 20
-130.635
 11
113.766
 21
-131.032
  0
LINE
  8
0
 10
113.766
 20
-131.032
 11
113.597
 21
-131.403
  0
LINE
  8
0
 10
113.597
 20
-131.403
 11
113.36
 21
-131.735
  0
LINE
  8
0
 10
113.36
 20
-131.735
 11
113.062
 21
-132.014
  0
LINE
  8
0
 10
113.062
 20
-132.014
 11
112.716
 21
-132.229
  0
LINE
  8
0
 10
112.716
 20
-132.229
 11
112.334
 21
-132.373
  0
LINE
  8
0
 10
112.334
 20
-132.373
 11
111.932
 21
-132.439
  0
LINE
  8
0
 10
111.932
 20
-132.439
 11
111.525
 21
-132.426
  0
ENDSEC
  0
SECTION
  2
OBJECTS
  0
DICTIONARY
  0
ENDSEC
  0
EOF
