  0
SECTION
  2
BLOCKS
  0
ENDSEC
  0
SECTION
  2
ENTITIES
  0
LINE
  8
0
 10
500
 20
110.59
 11
0
 21
110.59
  0
LINE
  8
0
 10
0
 20
110.59
 11
0
 21
-110.59
  0
LINE
  8
0
 10
0
 20
-110.59
 11
500
 21
-110.59
  0
LINE
  8
0
 10
500
 20
-110.59
 11
500
 21
110.59
  0
LINE
  8
0
 10
50
 20
-65.08
 11
48.0335
 21
-64.8863
  0
LINE
  8
0
 10
48.0335
 20
-64.8863
 11
46.1425
 21
-64.3127
  0
LINE
  8
0
 10
46.1425
 20
-64.3127
 11
44.3998
 21
-63.3812
  0
LINE
  8
0
 10
44.3998
 20
-63.3812
 11
42.8724
 21
-62.1276
  0
LINE
  8
0
 10
42.8724
 20
-62.1276
 11
41.6188
 21
-60.6001
  0
LINE
  8
0
 10
41.6188
 20
-60.6001
 11
40.6873
 21
-58.8574
  0
LINE
  8
0
 10
40.6873
 20
-58.8574
 11
40.1137
 21
-56.9665
  0
LINE
  8
0
 10
40.1137
 20
-56.9665
 11
39.92
 21
-55
  0
LINE
  8
0
 10
39.92
 20
-55
 11
39.92
 21
55
  0
LINE
  8
0
 10
39.92
 20
55
 11
40.1137
 21
56.9665
  0
LINE
  8
0
 10
40.1137
 20
56.9665
 11
40.6873
 21
58.8574
  0
LINE
  8
0
 10
40.6873
 20
58.8574
 11
41.6188
 21
60.6001
  0
LINE
  8
0
 10
41.6188
 20
60.6001
 11
42.8724
 21
62.1276
  0
LINE
  8
0
 10
42.8724
 20
62.1276
 11
44.3998
 21
63.3812
  0
LINE
  8
0
 10
44.3998
 20
63.3812
 11
46.1425
 21
64.3127
  0
LINE
  8
0
 10
46.1425
 20
64.3127
 11
48.0335
 21
64.8863
  0
LINE
  8
0
 10
48.0335
 20
64.8863
 11
50
 21
65.08
  0
LINE
  8
0
 10
50
 20
65.08
 11
410
 21
65.08
  0
LINE
  8
0
 10
410
 20
65.08
 11
411.967
 21
64.8863
  0
LINE
  8
0
 10
411.967
 20
64.8863
 11
413.857
 21
64.3127
  0
LINE
  8
0
 10
413.857
 20
64.3127
 11
415.6
 21
63.3812
  0
LINE
  8
0
 10
415.6
 20
63.3812
 11
417.128
 21
62.1276
  0
LINE
  8
0
 10
417.128
 20
62.1276
 11
418.381
 21
60.6001
  0
LINE
  8
0
 10
418.381
 20
60.6001
 11
419.313
 21
58.8574
  0
LINE
  8
0
 10
419.313
 20
58.8574
 11
419.886
 21
56.9665
  0
LINE
  8
0
 10
419.886
 20
56.9665
 11
420.08
 21
55
  0
LINE
  8
0
 10
420.08
 20
55
 11
420.08
 21
-55
  0
LINE
  8
0
 10
420.08
 20
-55
 11
419.886
 21
-56.9665
  0
LINE
  8
0
 10
419.886
 20
-56.9665
 11
419.313
 21
-58.8574
  0
LINE
  8
0
 10
419.313
 20
-58.8574
 11
418.381
 21
-60.6001
  0
LINE
  8
0
 10
418.381
 20
-60.6001
 11
417.128
 21
-62.1276
  0
LINE
  8
0
 10
417.128
 20
-62.1276
 11
415.6
 21
-63.3812
  0
LINE
  8
0
 10
415.6
 20
-63.3812
 11
413.857
 21
-64.3127
  0
LINE
  8
0
 10
413.857
 20
-64.3127
 11
411.967
 21
-64.8863
  0
LINE
  8
0
 10
411.967
 20
-64.8863
 11
410
 21
-65.08
  0
LINE
  8
0
 10
410
 20
-65.08
 11
50
 21
-65.08
  0
ENDSEC
  0
SECTION
  2
OBJECTS
  0
DICTIONARY
  0
ENDSEC
  0
EOF
