  0
SECTION
  2
BLOCKS
  0
ENDSEC
  0
SECTION
  2
ENTITIES
  0
LINE
  8
0
 10
260
 20
93.774
 11
0
 21
93.774
  0
LINE
  8
0
 10
0
 20
93.774
 11
0
 21
-93.774
  0
LINE
  8
0
 10
0
 20
-93.774
 11
260
 21
-93.774
  0
LINE
  8
0
 10
260
 20
-93.774
 11
260
 21
93.774
  0
LINE
  8
0
 10
500
 20
93.774
 11
265
 21
93.774
  0
LINE
  8
0
 10
265
 20
93.774
 11
265
 21
-93.774
  0
LINE
  8
0
 10
265
 20
-93.774
 11
500
 21
-93.774
  0
LINE
  8
0
 10
500
 20
-93.774
 11
500
 21
93.774
  0
LINE
  8
0
 10
302.181
 20
-54.3099
 11
294.662
 21
-52.0291
  0
LINE
  8
0
 10
294.662
 20
-52.0291
 11
287.733
 21
-48.3253
  0
LINE
  8
0
 10
287.733
 20
-48.3253
 11
281.659
 21
-43.3408
  0
LINE
  8
0
 10
281.659
 20
-43.3408
 11
276.675
 21
-37.2672
  0
LINE
  8
0
 10
276.675
 20
-37.2672
 11
272.971
 21
-30.338
  0
LINE
  8
0
 10
272.971
 20
-30.338
 11
270.69
 21
-22.8192
  0
LINE
  8
0
 10
270.69
 20
-22.8192
 11
269.92
 21
-15
  0
LINE
  8
0
 10
269.92
 20
-15
 11
270.69
 21
-7.18077
  0
LINE
  8
0
 10
270.69
 20
-7.18077
 11
272.971
 21
0.337952
  0
LINE
  8
0
 10
272.971
 20
0.337952
 11
276.675
 21
7.26724
  0
LINE
  8
0
 10
276.675
 20
7.26724
 11
281.659
 21
13.3408
  0
LINE
  8
0
 10
281.659
 20
13.3408
 11
287.733
 21
18.3253
  0
LINE
  8
0
 10
287.733
 20
18.3253
 11
294.662
 21
22.0291
  0
LINE
  8
0
 10
294.662
 20
22.0291
 11
302.181
 21
24.3099
  0
LINE
  8
0
 10
302.181
 20
24.3099
 11
310
 21
25.08
  0
LINE
  8
0
 10
310
 20
25.08
 11
317.819
 21
24.3099
  0
LINE
  8
0
 10
317.819
 20
24.3099
 11
325.338
 21
22.0291
  0
LINE
  8
0
 10
325.338
 20
22.0291
 11
332.267
 21
18.3253
  0
LINE
  8
0
 10
332.267
 20
18.3253
 11
338.341
 21
13.3408
  0
LINE
  8
0
 10
338.341
 20
13.3408
 11
343.325
 21
7.26724
  0
LINE
  8
0
 10
343.325
 20
7.26724
 11
347.029
 21
0.337952
  0
LINE
  8
0
 10
347.029
 20
0.337952
 11
349.31
 21
-7.18077
  0
LINE
  8
0
 10
349.31
 20
-7.18077
 11
350.08
 21
-15
  0
LINE
  8
0
 10
350.08
 20
-15
 11
349.31
 21
-22.8192
  0
LINE
  8
0
 10
349.31
 20
-22.8192
 11
347.029
 21
-30.338
  0
LINE
  8
0
 10
347.029
 20
-30.338
 11
343.325
 21
-37.2672
  0
LINE
  8
0
 10
343.325
 20
-37.2672
 11
338.341
 21
-43.3408
  0
LINE
  8
0
 10
338.341
 20
-43.3408
 11
332.267
 21
-48.3253
  0
LINE
  8
0
 10
332.267
 20
-48.3253
 11
325.338
 21
-52.0291
  0
LINE
  8
0
 10
325.338
 20
-52.0291
 11
317.819
 21
-54.3099
  0
LINE
  8
0
 10
317.819
 20
-54.3099
 11
310
 21
-55.08
  0
LINE
  8
0
 10
310
 20
-55.08
 11
302.181
 21
-54.3099
  0
LINE
  8
0
 10
274.25
 20
18.67
 11
273.844
 21
18.71
  0
LINE
  8
0
 10
273.844
 20
18.71
 11
273.454
 21
18.8283
  0
LINE
  8
0
 10
273.454
 20
18.8283
 11
273.094
 21
19.0205
  0
LINE
  8
0
 10
273.094
 20
19.0205
 11
272.779
 21
19.2792
  0
LINE
  8
0
 10
272.779
 20
19.2792
 11
272.521
 21
19.5944
  0
LINE
  8
0
 10
272.521
 20
19.5944
 11
272.328
 21
19.954
  0
LINE
  8
0
 10
272.328
 20
19.954
 11
272.21
 21
20.3442
  0
LINE
  8
0
 10
272.21
 20
20.3442
 11
272.17
 21
20.75
  0
LINE
  8
0
 10
272.17
 20
20.75
 11
272.21
 21
21.1558
  0
LINE
  8
0
 10
272.21
 20
21.1558
 11
272.328
 21
21.546
  0
LINE
  8
0
 10
272.328
 20
21.546
 11
272.521
 21
21.9056
  0
LINE
  8
0
 10
272.521
 20
21.9056
 11
272.779
 21
22.2208
  0
LINE
  8
0
 10
272.779
 20
22.2208
 11
273.094
 21
22.4794
  0
LINE
  8
0
 10
273.094
 20
22.4794
 11
273.454
 21
22.6717
  0
LINE
  8
0
 10
273.454
 20
22.6717
 11
273.844
 21
22.79
  0
LINE
  8
0
 10
273.844
 20
22.79
 11
274.25
 21
22.83
  0
LINE
  8
0
 10
274.25
 20
22.83
 11
274.656
 21
22.79
  0
LINE
  8
0
 10
274.656
 20
22.79
 11
275.046
 21
22.6717
  0
LINE
  8
0
 10
275.046
 20
22.6717
 11
275.406
 21
22.4794
  0
LINE
  8
0
 10
275.406
 20
22.4794
 11
275.721
 21
22.2208
  0
LINE
  8
0
 10
275.721
 20
22.2208
 11
275.979
 21
21.9056
  0
LINE
  8
0
 10
275.979
 20
21.9056
 11
276.172
 21
21.546
  0
LINE
  8
0
 10
276.172
 20
21.546
 11
276.29
 21
21.1558
  0
LINE
  8
0
 10
276.29
 20
21.1558
 11
276.33
 21
20.75
  0
LINE
  8
0
 10
276.33
 20
20.75
 11
276.29
 21
20.3442
  0
LINE
  8
0
 10
276.29
 20
20.3442
 11
276.172
 21
19.954
  0
LINE
  8
0
 10
276.172
 20
19.954
 11
275.979
 21
19.5944
  0
LINE
  8
0
 10
275.979
 20
19.5944
 11
275.721
 21
19.2792
  0
LINE
  8
0
 10
275.721
 20
19.2792
 11
275.406
 21
19.0205
  0
LINE
  8
0
 10
275.406
 20
19.0205
 11
275.046
 21
18.8283
  0
LINE
  8
0
 10
275.046
 20
18.8283
 11
274.656
 21
18.71
  0
LINE
  8
0
 10
274.656
 20
18.71
 11
274.25
 21
18.67
  0
LINE
  8
0
 10
345.75
 20
18.67
 11
345.344
 21
18.71
  0
LINE
  8
0
 10
345.344
 20
18.71
 11
344.954
 21
18.8283
  0
LINE
  8
0
 10
344.954
 20
18.8283
 11
344.594
 21
19.0205
  0
LINE
  8
0
 10
344.594
 20
19.0205
 11
344.279
 21
19.2792
  0
LINE
  8
0
 10
344.279
 20
19.2792
 11
344.021
 21
19.5944
  0
LINE
  8
0
 10
344.021
 20
19.5944
 11
343.828
 21
19.954
  0
LINE
  8
0
 10
343.828
 20
19.954
 11
343.71
 21
20.3442
  0
LINE
  8
0
 10
343.71
 20
20.3442
 11
343.67
 21
20.75
  0
LINE
  8
0
 10
343.67
 20
20.75
 11
343.71
 21
21.1558
  0
LINE
  8
0
 10
343.71
 20
21.1558
 11
343.828
 21
21.546
  0
LINE
  8
0
 10
343.828
 20
21.546
 11
344.021
 21
21.9056
  0
LINE
  8
0
 10
344.021
 20
21.9056
 11
344.279
 21
22.2208
  0
LINE
  8
0
 10
344.279
 20
22.2208
 11
344.594
 21
22.4794
  0
LINE
  8
0
 10
344.594
 20
22.4794
 11
344.954
 21
22.6717
  0
LINE
  8
0
 10
344.954
 20
22.6717
 11
345.344
 21
22.79
  0
LINE
  8
0
 10
345.344
 20
22.79
 11
345.75
 21
22.83
  0
LINE
  8
0
 10
345.75
 20
22.83
 11
346.156
 21
22.79
  0
LINE
  8
0
 10
346.156
 20
22.79
 11
346.546
 21
22.6717
  0
LINE
  8
0
 10
346.546
 20
22.6717
 11
346.906
 21
22.4794
  0
LINE
  8
0
 10
346.906
 20
22.4794
 11
347.221
 21
22.2208
  0
LINE
  8
0
 10
347.221
 20
22.2208
 11
347.479
 21
21.9056
  0
LINE
  8
0
 10
347.479
 20
21.9056
 11
347.672
 21
21.546
  0
LINE
  8
0
 10
347.672
 20
21.546
 11
347.79
 21
21.1558
  0
LINE
  8
0
 10
347.79
 20
21.1558
 11
347.83
 21
20.75
  0
LINE
  8
0
 10
347.83
 20
20.75
 11
347.79
 21
20.3442
  0
LINE
  8
0
 10
347.79
 20
20.3442
 11
347.672
 21
19.954
  0
LINE
  8
0
 10
347.672
 20
19.954
 11
347.479
 21
19.5944
  0
LINE
  8
0
 10
347.479
 20
19.5944
 11
347.221
 21
19.2792
  0
LINE
  8
0
 10
347.221
 20
19.2792
 11
346.906
 21
19.0205
  0
LINE
  8
0
 10
346.906
 20
19.0205
 11
346.546
 21
18.8283
  0
LINE
  8
0
 10
346.546
 20
18.8283
 11
346.156
 21
18.71
  0
LINE
  8
0
 10
346.156
 20
18.71
 11
345.75
 21
18.67
  0
LINE
  8
0
 10
274.25
 20
-52.83
 11
273.844
 21
-52.79
  0
LINE
  8
0
 10
273.844
 20
-52.79
 11
273.454
 21
-52.6717
  0
LINE
  8
0
 10
273.454
 20
-52.6717
 11
273.094
 21
-52.4794
  0
LINE
  8
0
 10
273.094
 20
-52.4794
 11
272.779
 21
-52.2208
  0
LINE
  8
0
 10
272.779
 20
-52.2208
 11
272.521
 21
-51.9056
  0
LINE
  8
0
 10
272.521
 20
-51.9056
 11
272.328
 21
-51.546
  0
LINE
  8
0
 10
272.328
 20
-51.546
 11
272.21
 21
-51.1558
  0
LINE
  8
0
 10
272.21
 20
-51.1558
 11
272.17
 21
-50.75
  0
LINE
  8
0
 10
272.17
 20
-50.75
 11
272.21
 21
-50.3442
  0
LINE
  8
0
 10
272.21
 20
-50.3442
 11
272.328
 21
-49.954
  0
LINE
  8
0
 10
272.328
 20
-49.954
 11
272.521
 21
-49.5944
  0
LINE
  8
0
 10
272.521
 20
-49.5944
 11
272.779
 21
-49.2792
  0
LINE
  8
0
 10
272.779
 20
-49.2792
 11
273.094
 21
-49.0205
  0
LINE
  8
0
 10
273.094
 20
-49.0205
 11
273.454
 21
-48.8283
  0
LINE
  8
0
 10
273.454
 20
-48.8283
 11
273.844
 21
-48.71
  0
LINE
  8
0
 10
273.844
 20
-48.71
 11
274.25
 21
-48.67
  0
LINE
  8
0
 10
274.25
 20
-48.67
 11
274.656
 21
-48.71
  0
LINE
  8
0
 10
274.656
 20
-48.71
 11
275.046
 21
-48.8283
  0
LINE
  8
0
 10
275.046
 20
-48.8283
 11
275.406
 21
-49.0205
  0
LINE
  8
0
 10
275.406
 20
-49.0205
 11
275.721
 21
-49.2792
  0
LINE
  8
0
 10
275.721
 20
-49.2792
 11
275.979
 21
-49.5944
  0
LINE
  8
0
 10
275.979
 20
-49.5944
 11
276.172
 21
-49.954
  0
LINE
  8
0
 10
276.172
 20
-49.954
 11
276.29
 21
-50.3442
  0
LINE
  8
0
 10
276.29
 20
-50.3442
 11
276.33
 21
-50.75
  0
LINE
  8
0
 10
276.33
 20
-50.75
 11
276.29
 21
-51.1558
  0
LINE
  8
0
 10
276.29
 20
-51.1558
 11
276.172
 21
-51.546
  0
LINE
  8
0
 10
276.172
 20
-51.546
 11
275.979
 21
-51.9056
  0
LINE
  8
0
 10
275.979
 20
-51.9056
 11
275.721
 21
-52.2208
  0
LINE
  8
0
 10
275.721
 20
-52.2208
 11
275.406
 21
-52.4794
  0
LINE
  8
0
 10
275.406
 20
-52.4794
 11
275.046
 21
-52.6717
  0
LINE
  8
0
 10
275.046
 20
-52.6717
 11
274.656
 21
-52.79
  0
LINE
  8
0
 10
274.656
 20
-52.79
 11
274.25
 21
-52.83
  0
LINE
  8
0
 10
345.75
 20
-52.83
 11
345.344
 21
-52.79
  0
LINE
  8
0
 10
345.344
 20
-52.79
 11
344.954
 21
-52.6717
  0
LINE
  8
0
 10
344.954
 20
-52.6717
 11
344.594
 21
-52.4794
  0
LINE
  8
0
 10
344.594
 20
-52.4794
 11
344.279
 21
-52.2208
  0
LINE
  8
0
 10
344.279
 20
-52.2208
 11
344.021
 21
-51.9056
  0
LINE
  8
0
 10
344.021
 20
-51.9056
 11
343.828
 21
-51.546
  0
LINE
  8
0
 10
343.828
 20
-51.546
 11
343.71
 21
-51.1558
  0
LINE
  8
0
 10
343.71
 20
-51.1558
 11
343.67
 21
-50.75
  0
LINE
  8
0
 10
343.67
 20
-50.75
 11
343.71
 21
-50.3442
  0
LINE
  8
0
 10
343.71
 20
-50.3442
 11
343.828
 21
-49.954
  0
LINE
  8
0
 10
343.828
 20
-49.954
 11
344.021
 21
-49.5944
  0
LINE
  8
0
 10
344.021
 20
-49.5944
 11
344.279
 21
-49.2792
  0
LINE
  8
0
 10
344.279
 20
-49.2792
 11
344.594
 21
-49.0205
  0
LINE
  8
0
 10
344.594
 20
-49.0205
 11
344.954
 21
-48.8283
  0
LINE
  8
0
 10
344.954
 20
-48.8283
 11
345.344
 21
-48.71
  0
LINE
  8
0
 10
345.344
 20
-48.71
 11
345.75
 21
-48.67
  0
LINE
  8
0
 10
345.75
 20
-48.67
 11
346.156
 21
-48.71
  0
LINE
  8
0
 10
346.156
 20
-48.71
 11
346.546
 21
-48.8283
  0
LINE
  8
0
 10
346.546
 20
-48.8283
 11
346.906
 21
-49.0205
  0
LINE
  8
0
 10
346.906
 20
-49.0205
 11
347.221
 21
-49.2792
  0
LINE
  8
0
 10
347.221
 20
-49.2792
 11
347.479
 21
-49.5944
  0
LINE
  8
0
 10
347.479
 20
-49.5944
 11
347.672
 21
-49.954
  0
LINE
  8
0
 10
347.672
 20
-49.954
 11
347.79
 21
-50.3442
  0
LINE
  8
0
 10
347.79
 20
-50.3442
 11
347.83
 21
-50.75
  0
LINE
  8
0
 10
347.83
 20
-50.75
 11
347.79
 21
-51.1558
  0
LINE
  8
0
 10
347.79
 20
-51.1558
 11
347.672
 21
-51.546
  0
LINE
  8
0
 10
347.672
 20
-51.546
 11
347.479
 21
-51.9056
  0
LINE
  8
0
 10
347.479
 20
-51.9056
 11
347.221
 21
-52.2208
  0
LINE
  8
0
 10
347.221
 20
-52.2208
 11
346.906
 21
-52.4794
  0
LINE
  8
0
 10
346.906
 20
-52.4794
 11
346.546
 21
-52.6717
  0
LINE
  8
0
 10
346.546
 20
-52.6717
 11
346.156
 21
-52.79
  0
LINE
  8
0
 10
346.156
 20
-52.79
 11
345.75
 21
-52.83
  0
ENDSEC
  0
SECTION
  2
OBJECTS
  0
DICTIONARY
  0
ENDSEC
  0
EOF
