solid OpenSCAD_Model
  facet normal -1 0 0
    outer loop
      vertex -94.9275 -4 0
      vertex -94.9275 4 6
      vertex -94.9275 4 0
    endloop
  endfacet
  facet normal -1 -0 0
    outer loop
      vertex -94.9275 4 6
      vertex -94.9275 -4 0
      vertex -94.9275 -4 6
    endloop
  endfacet
  facet normal 0 0 1
    outer loop
      vertex 94.9275 4 6
      vertex 91.9275 2.5 6
      vertex 94.9275 -4 6
    endloop
  endfacet
  facet normal 0 0 1
    outer loop
      vertex 94.9275 4 6
      vertex -91.9275 2.5 6
      vertex 91.9275 2.5 6
    endloop
  endfacet
  facet normal 0 0 1
    outer loop
      vertex -91.9275 2.5 6
      vertex -94.9275 4 6
      vertex -91.9275 -2.5 6
    endloop
  endfacet
  facet normal -0 0 1
    outer loop
      vertex -94.9275 4 6
      vertex -91.9275 2.5 6
      vertex 94.9275 4 6
    endloop
  endfacet
  facet normal -0 0 1
    outer loop
      vertex 91.9275 -2.5 6
      vertex 94.9275 -4 6
      vertex 91.9275 2.5 6
    endloop
  endfacet
  facet normal -0 0 1
    outer loop
      vertex -91.9275 -2.5 6
      vertex 94.9275 -4 6
      vertex 91.9275 -2.5 6
    endloop
  endfacet
  facet normal 0 0 1
    outer loop
      vertex -91.9275 -2.5 6
      vertex -94.9275 -4 6
      vertex 94.9275 -4 6
    endloop
  endfacet
  facet normal 0 0 1
    outer loop
      vertex -94.9275 -4 6
      vertex -91.9275 -2.5 6
      vertex -94.9275 4 6
    endloop
  endfacet
  facet normal 1 -0 0
    outer loop
      vertex 94.9275 -4 6
      vertex 94.9275 4 0
      vertex 94.9275 4 6
    endloop
  endfacet
  facet normal 1 0 0
    outer loop
      vertex 94.9275 4 0
      vertex 94.9275 -4 6
      vertex 94.9275 -4 0
    endloop
  endfacet
  facet normal 0 0 -1
    outer loop
      vertex -94.9275 -4 0
      vertex 94.9275 4 0
      vertex 94.9275 -4 0
    endloop
  endfacet
  facet normal -0 0 -1
    outer loop
      vertex 94.9275 4 0
      vertex -94.9275 -4 0
      vertex -94.9275 4 0
    endloop
  endfacet
  facet normal 0 -1 0
    outer loop
      vertex -94.9275 -4 0
      vertex 94.9275 -4 6
      vertex -94.9275 -4 6
    endloop
  endfacet
  facet normal 0 -1 -0
    outer loop
      vertex 94.9275 -4 6
      vertex -94.9275 -4 0
      vertex 94.9275 -4 0
    endloop
  endfacet
  facet normal 0 1 -0
    outer loop
      vertex 94.9275 4 0
      vertex -94.9275 4 6
      vertex 94.9275 4 6
    endloop
  endfacet
  facet normal 0 1 0
    outer loop
      vertex -94.9275 4 6
      vertex 94.9275 4 0
      vertex -94.9275 4 0
    endloop
  endfacet
  facet normal 1 -0 0
    outer loop
      vertex -91.9275 -2.5 6
      vertex -91.9275 2.5 1.5
      vertex -91.9275 2.5 6
    endloop
  endfacet
  facet normal 1 0 0
    outer loop
      vertex -91.9275 2.5 1.5
      vertex -91.9275 -2.5 6
      vertex -91.9275 -2.5 1.5
    endloop
  endfacet
  facet normal -1 0 0
    outer loop
      vertex 91.9275 -2.5 1.5
      vertex 91.9275 2.5 6
      vertex 91.9275 2.5 1.5
    endloop
  endfacet
  facet normal -1 -0 0
    outer loop
      vertex 91.9275 2.5 6
      vertex 91.9275 -2.5 1.5
      vertex 91.9275 -2.5 6
    endloop
  endfacet
  facet normal 0 -1 0
    outer loop
      vertex -91.9275 2.5 1.5
      vertex 91.9275 2.5 6
      vertex -91.9275 2.5 6
    endloop
  endfacet
  facet normal 0 -1 -0
    outer loop
      vertex 91.9275 2.5 6
      vertex -91.9275 2.5 1.5
      vertex 91.9275 2.5 1.5
    endloop
  endfacet
  facet normal -0 0 1
    outer loop
      vertex -91.9275 2.5 1.5
      vertex 91.9275 -2.5 1.5
      vertex 91.9275 2.5 1.5
    endloop
  endfacet
  facet normal 0 0 1
    outer loop
      vertex 91.9275 -2.5 1.5
      vertex -91.9275 2.5 1.5
      vertex -91.9275 -2.5 1.5
    endloop
  endfacet
  facet normal 0 1 -0
    outer loop
      vertex 91.9275 -2.5 1.5
      vertex -91.9275 -2.5 6
      vertex 91.9275 -2.5 6
    endloop
  endfacet
  facet normal 0 1 0
    outer loop
      vertex -91.9275 -2.5 6
      vertex 91.9275 -2.5 1.5
      vertex -91.9275 -2.5 1.5
    endloop
  endfacet
endsolid OpenSCAD_Model
